<svg width="325" height="99" viewBox="0 0 325 99" fill="none" xmlns="http://www.w3.org/2000/svg">
<path d="M154.194 23.6979C154.194 36.774 143.503 47.3957 130.341 47.3957C117.179 47.3957 106.488 36.774 106.488 23.6979C106.488 10.6217 117.179 0 130.341 0C143.503 0 154.194 10.6217 154.194 23.6979Z" fill="#F50808"/>
<path d="M212.974 23.6979C212.974 36.774 202.282 47.3957 189.121 47.3957C175.959 47.3957 165.267 36.774 165.267 23.6979C165.267 10.6217 175.959 0 189.121 0C202.282 0 212.974 10.6217 212.974 23.6979Z" fill="#F50808"/>
<path d="M47.7063 47.3957H0L47.7063 0V47.3957Z" fill="#F50808"/>
<path d="M91.1539 47.3957H43.4476L91.1539 0V47.3957Z" fill="#F50808"/>
<path d="M226.178 0H273.885L226.178 47.3957V0Z" fill="#F50808"/>
<path d="M260.681 37.6627L250.884 47.3957H324.999V37.6627H260.681Z" fill="#F50808"/>
<path d="M298.591 0L289.22 9.30987H325V0H298.591Z" fill="#F50808"/>
<path d="M279.423 19.0429L270.478 27.9296H325V19.0429H279.423Z" fill="#F50808"/>
<path d="M250.118 76.9304C250.118 75.2428 249.087 74.1701 247.038 74.1701H243.631V83.1706H245.576L245.563 79.7169H247.194C249.308 79.7169 250.118 78.2255 250.118 76.9304ZM246.764 75.5306C247.56 75.5306 248.16 75.9492 248.16 76.9696C248.16 78.0293 247.52 78.3956 246.829 78.3956H245.563V75.5306H246.764Z" fill="#1F4455"/>
<path d="M257.996 76.7603C257.996 75.3475 257.122 74.1832 255.06 74.1832H251.419V83.1706H253.324V79.5468H254.29C255.021 79.5468 255.517 79.8216 255.791 80.8158C256.013 81.6138 256.248 82.3987 256.469 83.1706H258.388L257.67 80.6588C257.474 79.9655 257.213 79.3244 256.469 79.089V79.0759C257.5 78.7096 257.996 77.7415 257.996 76.7603ZM253.324 78.2255V75.5437H254.681C255.478 75.5437 256.039 75.9623 256.039 76.865C256.039 77.9116 255.308 78.2255 254.694 78.2255H253.324Z" fill="#1F4455"/>
<path d="M267.948 78.6703C267.948 76.1324 266.8 74.0131 263.798 74.0131C260.822 74.0131 259.583 76.1193 259.583 78.6965C259.583 81.4437 260.862 83.3014 263.798 83.3014C266.539 83.3014 267.948 81.3129 267.948 78.6703ZM265.899 78.6965C265.899 80.528 265.312 81.9016 263.798 81.9016C262.18 81.9016 261.605 80.7504 261.605 78.7096C261.605 76.9958 262.023 75.3867 263.798 75.3867C265.547 75.3867 265.899 77.0612 265.899 78.6965Z" fill="#1F4455"/>
<path d="M273.836 74C270.181 74 269.307 76.5903 269.307 78.6965C269.307 81.2083 270.26 83.3014 273.522 83.3014C274.462 83.3014 275.571 83.1444 276.576 82.8043V78.4218H274.814V81.6269C274.475 81.7185 273.966 81.7708 273.627 81.7708C271.917 81.7708 271.343 80.6196 271.343 78.8012C271.343 76.5903 272.217 75.4914 274.058 75.4914C274.606 75.4914 275.31 75.5699 276.028 75.753L276.302 74.3663C275.624 74.157 274.736 74 273.836 74Z" fill="#1F4455"/>
<path d="M284.851 76.7603C284.851 75.3475 283.976 74.1832 281.914 74.1832H278.273V83.1706H280.178V79.5468H281.144C281.875 79.5468 282.371 79.8216 282.645 80.8158C282.867 81.6138 283.102 82.3987 283.324 83.1706H285.242L284.524 80.6588C284.329 79.9655 284.068 79.3244 283.324 79.089V79.0759C284.355 78.7096 284.851 77.7415 284.851 76.7603ZM280.178 78.2255V75.5437H281.536C282.332 75.5437 282.893 75.9623 282.893 76.865C282.893 77.9116 282.162 78.2255 281.549 78.2255H280.178Z" fill="#1F4455"/>
<path d="M294.294 83.1706L291.331 74.1832H288.904L285.85 83.1706H287.768L288.408 81.1167H291.683L292.31 83.1706H294.294ZM291.292 79.8085H288.825L289.491 77.506L290.039 75.4914H290.104L290.626 77.4406L291.292 79.8085Z" fill="#1F4455"/>
<path d="M303.195 77.1005V83.1706H305.075V74.1832H302.778C302.438 74.9288 301.877 76.394 301.538 77.1266C301.12 78.147 300.677 79.2983 300.259 80.3056H300.155C299.789 79.416 299.267 77.9901 298.902 77.1005L297.727 74.1832H295.352V83.1706H297.205C297.205 81.5353 297.218 78.8142 297.218 77.1659H297.257L297.831 78.6703C298.314 79.7169 298.941 81.2998 299.384 82.3595H300.964C301.407 81.3391 302.047 79.7823 302.504 78.7619L303.156 77.1005H303.195Z" fill="#1F4455"/>
<path d="M314.806 77.1005V83.1706H316.686V74.1832H314.389C314.049 74.9288 313.488 76.394 313.149 77.1266C312.731 78.147 312.288 79.2983 311.87 80.3056H311.765C311.4 79.416 310.878 77.9901 310.513 77.1005L309.338 74.1832H306.963V83.1706H308.816C308.816 81.5353 308.829 78.8142 308.829 77.1659H308.868L309.442 78.6703C309.925 79.7169 310.552 81.2998 310.995 82.3595H312.575C313.018 81.3391 313.658 79.7823 314.115 78.7619L314.767 77.1005H314.806Z" fill="#1F4455"/>
<path d="M324.943 83.1706V81.797H320.518V79.102H324.081V77.82H320.518V75.5306H324.76V74.1701H318.574V83.1706H324.943Z" fill="#1F4455"/>
<path d="M197.534 94.1204C198.434 93.6886 198.682 92.8514 198.682 92.2889C198.682 90.8629 197.769 89.8817 195.915 89.8817H192V98.8692H196.085C197.769 98.8692 198.917 97.8357 198.917 96.2527C198.917 95.6771 198.747 94.5913 197.534 94.1858V94.1204ZM195.55 94.8791C196.503 94.8791 196.959 95.4678 196.959 96.1743C196.959 96.9199 196.568 97.5086 195.55 97.5086H193.919V94.8791H195.55ZM195.367 91.2423C196.32 91.2423 196.711 91.7263 196.711 92.4458C196.711 93.1654 196.242 93.5709 195.367 93.5709H193.919V91.2423H195.367Z" fill="#1F4455"/>
<path d="M202.424 98.8692H204.486V95.4155C205.478 93.6102 206.456 91.6871 207.435 89.8817H205.465L204.342 92.1188C204.055 92.6944 203.781 93.4139 203.494 93.9895H203.416L202.619 92.1973C202.267 91.4254 201.875 90.6536 201.51 89.8817H199.5L202.424 95.6379V98.8692Z" fill="#1F4455"/>
<path d="M215.578 89.6986C213.32 89.6986 212.172 90.7975 212.172 92.4328C212.172 94.2773 213.725 94.6567 215.487 95.1015C216.361 95.337 216.962 95.5594 216.962 96.3182C216.962 97.1816 216.413 97.5086 215.356 97.5086C214.756 97.5086 213.699 97.4301 212.433 96.9199L211.937 98.2805C212.981 98.8168 214.299 99 215.213 99C217.719 99 218.985 98.0188 218.985 96.3182C218.985 94.1858 217.21 93.8064 215.983 93.4924C215.056 93.27 214.195 93.0476 214.195 92.3543C214.195 91.5955 214.704 91.203 215.513 91.203C216.152 91.203 217.053 91.2815 217.927 91.6478L218.423 90.3396C217.549 89.8556 216.466 89.6986 215.578 89.6986Z" fill="#1F4455"/>
<path d="M222.378 93.3878V89.8817H220.473V98.8692H222.378V95.494L223.175 94.6829C224.049 96.0827 224.937 97.4694 225.824 98.8692H228.095L224.48 93.4008L227.899 89.8817H225.667L223.018 92.7598L222.47 93.3878H222.378Z" fill="#1F4455"/>
<path d="M237.27 94.3689C237.27 91.831 236.122 89.7117 233.12 89.7117C230.144 89.7117 228.905 91.8179 228.905 94.3951C228.905 97.1423 230.184 99 233.12 99C235.861 99 237.27 97.0115 237.27 94.3689ZM235.221 94.3951C235.221 96.2266 234.634 97.6002 233.12 97.6002C231.502 97.6002 230.928 96.449 230.928 94.4082C230.928 92.6944 231.345 91.0853 233.12 91.0853C234.869 91.0853 235.221 92.7598 235.221 94.3951Z" fill="#1F4455"/>
<path d="M245.376 98.8692V97.5217H240.822V89.8687H238.89V98.8692H245.376Z" fill="#1F4455"/>
<path d="M248.353 93.3878V89.8817H246.448V98.8692H248.353V95.494L249.15 94.6829C250.024 96.0827 250.911 97.4694 251.799 98.8692H254.07L250.455 93.4008L253.874 89.8817H251.642L248.993 92.7598L248.445 93.3878H248.353Z" fill="#1F4455"/>
<path d="M263.245 94.3689C263.245 91.831 262.097 89.7117 259.095 89.7117C256.119 89.7117 254.88 91.8179 254.88 94.3951C254.88 97.1423 256.159 99 259.095 99C261.836 99 263.245 97.0115 263.245 94.3689ZM261.196 94.3951C261.196 96.2266 260.609 97.6002 259.095 97.6002C257.477 97.6002 256.902 96.449 256.902 94.4082C256.902 92.6944 257.32 91.0853 259.095 91.0853C260.844 91.0853 261.196 92.7598 261.196 94.3951Z" fill="#1F4455"/>
<path d="M267.834 97.1162C267.69 96.5798 267.573 96.0303 267.429 95.5071C266.907 93.584 266.385 91.8048 265.824 89.8687H263.775C264.741 92.8645 265.719 95.8864 266.698 98.8692H269.047C270.039 95.8864 271.018 92.8645 271.997 89.8687H269.948C269.387 91.7917 268.865 93.5709 268.356 95.5071C268.225 96.0565 268.069 96.606 267.925 97.1162H267.834Z" fill="#1F4455"/>
<path d="M281.051 94.3689C281.051 91.831 279.902 89.7117 276.9 89.7117C273.925 89.7117 272.685 91.8179 272.685 94.3951C272.685 97.1423 273.964 99 276.9 99C279.641 99 281.051 97.0115 281.051 94.3689ZM279.001 94.3951C279.001 96.2266 278.414 97.6002 276.9 97.6002C275.282 97.6002 274.708 96.449 274.708 94.4082C274.708 92.6944 275.125 91.0853 276.9 91.0853C278.649 91.0853 279.001 92.7598 279.001 94.3951Z" fill="#1F4455"/>
<path d="M288.621 94.1988C287.642 95.7687 286.637 97.3124 285.645 98.8692H287.812L289.743 95.4809C290.409 96.606 291.061 97.7572 291.727 98.8692H293.893L290.957 94.2381C291.91 92.786 292.862 91.3339 293.828 89.8817H291.649C291.048 90.9152 290.448 92.001 289.848 93.0345C289.247 91.9749 288.66 90.9414 288.073 89.8817H285.88C286.781 91.3077 287.733 92.786 288.621 94.1988Z" fill="#1F4455"/>
<path d="M306.624 92.7991V98.8692H308.503V89.8817H306.206C305.867 90.6274 305.306 92.0926 304.966 92.8252C304.549 93.8456 304.105 94.9969 303.687 96.0042H303.583C303.218 95.1146 302.696 93.6886 302.33 92.7991L301.155 89.8817H298.78V98.8692H300.633C300.633 97.2339 300.646 94.5128 300.646 92.8645H300.686L301.26 94.3689C301.743 95.4155 302.369 96.9984 302.813 98.0581H304.392C304.836 97.0377 305.475 95.4809 305.932 94.4605L306.585 92.7991H306.624Z" fill="#1F4455"/>
<path d="M314.385 98.8692L314.398 91.2684H317.23V89.8687H309.634V91.2684H312.479V98.8692H314.385Z" fill="#1F4455"/>
<path d="M321.594 89.6986C319.336 89.6986 318.187 90.7975 318.187 92.4328C318.187 94.2773 319.74 94.6567 321.502 95.1015C322.377 95.337 322.977 95.5594 322.977 96.3182C322.977 97.1816 322.429 97.5086 321.372 97.5086C320.771 97.5086 319.714 97.4301 318.448 96.9199L317.952 98.2805C318.996 98.8168 320.315 99 321.228 99C323.734 99 325 98.0188 325 96.3182C325 94.1858 323.225 93.8064 321.998 93.4924C321.072 93.27 320.21 93.0476 320.21 92.3543C320.21 91.5955 320.719 91.203 321.528 91.203C322.168 91.203 323.068 91.2815 323.943 91.6478L324.439 90.3396C323.564 89.8556 322.481 89.6986 321.594 89.6986Z" fill="#1F4455"/>
</svg>
