<?xml version="1.0" encoding="UTF-8"?>
<svg xmlns="http://www.w3.org/2000/svg" xmlns:xlink="http://www.w3.org/1999/xlink" version="1.2" >
<font id="PF Centro Sans Pro Bold">
<font-face  font-family="PF Centro Sans Pro" units-per-em="1000" ascent="761" descent="-239" font-style="normal" font-weight="700" font-stretch="normal" cap-height="688" x-height="491" underline-position="-85" underline-thickness="70" />
<missing-glyph  horiz-adv-x="445" d="M445 0 L445 687 L0 687 L0 0 L445 0 Z M222 288 L350 60 L94 60 L222 288 Z M93 627 L350 627 L222 400 L93 627 Z M187 345 L61 119 L61 570 L187 345 Z M383 571 L383 117 L257 343 L383 571 Z " />
<glyph glyph-name="space" unicode="&#x20;" horiz-adv-x="294" d="" />
<glyph glyph-name="exclam" unicode="&#x21;" horiz-adv-x="283" d="M75 439 L89 194 L193 194 L206 439 L207 705 L73 705 L75 439 Z M196 109 C183 122 164 129 140 129 C116 129 97 122 84 109 C59 84 59 37 84 10 C97 -3 116 -9 140 -9 C164 -9 183 -3 196 10 C224 37 224 84 196 109 L196 109 Z " />
<glyph glyph-name="quotedbl" unicode="&#x22;" horiz-adv-x="364" d="M169 689 L54 689 L72 447 L150 447 L169 689 Z M313 689 L198 689 L216 447 L295 447 L313 689 Z " />
<glyph glyph-name="numbersign" unicode="&#x23;" horiz-adv-x="575" d="M532 461 L458 461 L499 637 L423 637 L381 461 L268 461 L308 637 L232 637 L190 461 L97 461 L92 395 L175 395 L144 264 L60 264 L55 197 L129 197 L84 0 L161 0 L207 197 L320 197 L275 0 L353 0 L398 197 L489 197 L493 264 L412 264 L442 395 L527 395 L532 461 Z M365 395 L336 264 L222 264 L252 395 L365 395 Z " />
<glyph glyph-name="dollar" unicode="&#x24;" horiz-adv-x="590" d="M353 -75 L353 9 C466 28 538 92 538 199 C538 254 517 297 477 325 C437 353 406 368 353 385 L353 575 C387 572 424 562 464 547 L489 635 C454 654 409 666 353 671 L353 738 L306 738 L306 -75 L353 -75 Z M228 738 L228 669 C131 652 62 585 62 485 C62 392 125 340 228 307 L228 107 C223 108 199 111 184 114 C169 118 134 128 94 144 L61 52 C106 29 162 13 228 6 L228 -75 L274 -75 L274 738 L228 738 Z M425 192 C425 144 401 116 353 107 L353 272 C401 255 425 229 425 192 L425 192 Z M167 493 C167 534 187 560 228 570 L228 418 C187 431 167 456 167 493 L167 493 Z " />
<glyph glyph-name="percent" unicode="&#x25;" horiz-adv-x="900" d="M388 465 C388 603 329 672 212 672 C147 672 100 652 72 613 C45 574 31 524 31 464 C31 328 91 260 211 260 C295 260 352 306 372 365 C383 394 388 428 388 465 L388 465 Z M284 464 C284 379 260 337 212 337 C152 337 135 381 135 464 C135 551 161 595 212 595 C260 595 284 551 284 464 L284 464 Z M868 199 C868 337 809 406 692 406 C627 406 580 386 552 347 C525 308 511 258 511 199 C511 62 571 -6 691 -6 C753 -6 798 13 826 52 C854 91 868 140 868 199 L868 199 Z M764 199 C764 113 740 70 692 70 C633 70 615 115 615 198 C615 285 641 329 692 329 C740 329 764 286 764 199 L764 199 Z M562 708 L247 -20 L334 -20 L648 708 L562 708 Z " />
<glyph glyph-name="ampersand" unicode="&#x26;" horiz-adv-x="790" d="M288 -13 C371 -13 444 8 508 50 C533 28 563 6 596 -15 C630 -36 661 -53 688 -64 L738 20 C693 39 645 71 595 116 C675 197 713 285 720 418 L613 418 C600 313 568 236 516 187 C461 244 409 307 360 376 C444 427 495 476 495 549 C495 586 481 619 454 649 C427 679 382 694 321 694 C264 694 222 678 195 646 C168 615 155 578 155 535 C155 494 171 450 202 405 C97 348 45 277 45 190 C45 125 67 74 112 39 C157 4 216 -13 288 -13 L288 -13 Z M173 198 C173 243 203 284 263 321 C267 316 281 297 304 264 C328 231 349 204 366 183 C384 162 402 141 421 122 C380 98 340 86 301 86 C226 86 173 126 173 198 L173 198 Z M269 544 C269 575 289 606 325 606 C364 606 389 584 389 548 C389 515 361 483 306 454 C281 491 269 521 269 544 L269 544 Z " />
<glyph glyph-name="quotesingle" unicode="&#x27;" horiz-adv-x="239" d="M177 689 L62 689 L79 447 L158 447 L177 689 Z " />
<glyph glyph-name="parenleft" unicode="&#x28;" horiz-adv-x="332" d="M62 280 C62 184 78 98 111 21 C144 -56 183 -119 230 -169 L291 -128 C218 -22 181 115 181 283 C181 436 217 567 290 675 L230 713 C184 663 144 600 111 525 C78 450 62 368 62 280 L62 280 Z " />
<glyph glyph-name="parenright" unicode="&#x29;" horiz-adv-x="334" d="M267 280 C267 369 251 450 218 525 C185 600 146 662 100 713 L39 675 C54 653 69 628 83 599 C97 570 111 526 126 467 C141 408 148 347 148 284 C148 119 112 -18 39 -128 L98 -168 C145 -118 184 -55 217 22 C250 99 267 185 267 280 L267 280 Z " />
<glyph glyph-name="asterisk" unicode="&#x2a;" horiz-adv-x="422" d="M242 579 C247 598 255 637 267 695 C251 698 233 699 213 699 C192 699 174 698 158 695 L182 579 L77 639 C64 612 53 577 44 536 L163 521 L75 438 C102 413 131 392 161 376 L212 485 C237 430 254 394 263 376 C290 391 318 412 347 438 L259 520 C292 523 351 531 382 535 C373 580 362 614 348 637 L242 579 L242 579 Z " />
<glyph glyph-name="plus" unicode="&#x2b;" horiz-adv-x="590" d="M510 344 L347 344 L347 510 L262 510 L262 344 L97 344 L97 261 L262 261 L262 91 L347 91 L347 261 L510 261 L510 344 Z " />
<glyph glyph-name="comma" unicode="&#x2c;" horiz-adv-x="263" d="M51 64 C51 28 68 6 102 -1 C98 -40 79 -75 46 -105 L80 -150 C117 -131 148 -103 173 -64 C198 -26 211 12 211 49 C211 100 183 135 128 135 C83 135 51 104 51 64 L51 64 Z " />
<glyph glyph-name="hyphen" unicode="&#x2d;" horiz-adv-x="393" d="M334 318 L59 318 L59 219 L334 219 L334 318 Z " />
<glyph glyph-name="period" unicode="&#x2e;" horiz-adv-x="253" d="M202 64 C202 105 173 135 124 135 C76 135 46 105 46 64 C46 21 75 -8 124 -8 C173 -8 202 21 202 64 L202 64 Z " />
<glyph glyph-name="slash" unicode="&#x2f;" horiz-adv-x="371" d="M267 706 L8 -33 L105 -33 L365 706 L267 706 Z " />
<glyph glyph-name="zero" unicode="0" horiz-adv-x="590" d="M561 332 C561 430 543 532 482 602 C443 646 378 676 295 676 C166 676 96 613 58 524 C33 463 24 402 24 330 C24 105 114 -8 294 -8 C390 -8 463 32 503 97 C543 162 561 240 561 332 L561 332 Z M419 330 C419 175 378 98 295 98 C196 98 166 181 166 329 C166 488 209 568 295 568 C348 568 384 538 399 486 C415 434 419 391 419 330 L419 330 Z " />
<glyph glyph-name="one" unicode="1" horiz-adv-x="590" d="M376 0 L376 667 L249 667 L96 622 L96 527 L236 540 L236 0 L376 0 Z " />
<glyph glyph-name="two" unicode="2" horiz-adv-x="590" d="M290 149 L337 193 C362 217 379 235 388 246 L430 298 C466 345 477 372 490 415 C497 437 501 458 501 478 C501 605 416 676 275 676 C191 676 111 650 36 599 L80 514 C137 546 194 562 250 562 C321 562 357 531 357 469 C357 438 342 401 326 372 C318 357 305 340 288 320 L246 271 C235 258 218 241 195 220 C172 199 156 183 145 174 L93 127 L47 88 L47 0 L531 0 L531 100 L245 100 L243 106 L290 149 Z " />
<glyph glyph-name="three" unicode="3" horiz-adv-x="590" d="M517 580 L508 623 L499 667 L74 667 L74 560 L328 560 C328 559 329 556 331 552 L169 394 C174 374 180 349 186 319 C202 322 219 323 236 323 C338 323 389 288 389 218 C389 143 335 103 242 103 C199 103 145 114 78 135 L43 37 C99 8 172 -7 261 -10 C341 -10 406 9 456 48 C507 87 532 144 532 217 C532 278 514 325 478 356 C443 387 398 406 345 413 L343 419 L517 580 Z " />
<glyph glyph-name="four" unicode="4" horiz-adv-x="590" d="M28 256 L28 170 L331 170 L331 0 L467 0 L467 170 L564 170 L564 269 L467 269 L467 667 L320 667 L28 256 Z M334 269 L161 269 C179 293 207 334 246 393 C285 452 312 491 327 511 L334 511 L334 269 Z " />
<glyph glyph-name="five" unicode="5" horiz-adv-x="590" d="M260 331 C337 331 394 293 394 221 C394 142 345 103 247 103 C205 103 149 114 79 135 L46 38 C105 7 181 -9 272 -9 C348 -9 411 11 461 50 C511 89 536 145 536 218 C536 287 513 340 468 377 C423 414 366 433 297 433 C282 433 253 429 210 421 L220 561 L502 561 L502 667 L109 667 L84 344 L159 307 C195 323 229 331 260 331 L260 331 Z " />
<glyph glyph-name="six" unicode="6" horiz-adv-x="590" d="M184 388 C189 427 199 462 222 502 C246 543 290 569 346 569 C386 569 426 562 466 549 L476 599 C482 626 486 643 488 649 C442 666 392 675 337 675 C126 675 44 511 44 301 C44 127 109 -8 301 -8 C374 -8 432 12 477 51 C522 90 544 145 544 216 C544 284 525 336 486 371 C448 407 399 425 340 425 C291 425 242 411 191 384 L184 388 Z M409 213 C409 145 369 101 301 101 C224 101 185 156 185 266 L185 284 L192 289 C212 301 248 324 306 324 C375 324 409 287 409 213 L409 213 Z " />
<glyph glyph-name="seven" unicode="7" horiz-adv-x="590" d="M119 0 L257 0 L519 576 L519 667 L80 667 L80 561 L380 561 L119 0 Z " />
<glyph glyph-name="eight" unicode="8" horiz-adv-x="590" d="M204 499 C204 536 238 580 299 580 C366 580 401 540 401 496 C401 463 378 429 332 394 C321 399 292 413 281 417 C272 421 249 434 241 439 C219 457 204 470 204 499 L204 499 Z M293 94 C220 94 179 135 179 188 C179 241 204 284 255 319 C312 296 351 276 374 258 C397 241 409 219 409 192 C409 137 365 94 293 94 L293 94 Z M528 506 C528 545 516 579 491 606 C467 633 439 652 406 663 C373 674 338 679 301 679 C235 679 180 662 137 628 C94 595 72 552 72 501 C72 441 96 404 155 368 C74 320 39 245 39 176 C39 64 134 -8 291 -8 C368 -8 429 10 476 46 C523 82 547 128 547 183 C547 256 511 312 438 350 C498 395 528 447 528 506 L528 506 Z " />
<glyph glyph-name="nine" unicode="9" horiz-adv-x="590" d="M398 278 C389 212 356 98 237 98 C192 98 151 104 114 117 L89 18 C129 1 181 -7 246 -7 C346 -7 420 27 467 94 C515 162 539 252 539 365 C539 460 519 535 478 591 C437 647 372 675 282 675 C209 675 151 655 106 615 C61 576 39 521 39 450 C39 313 122 241 243 241 C294 241 343 255 392 282 L398 278 Z M173 453 C173 521 213 564 282 564 C359 564 397 510 397 401 L397 382 C388 378 344 342 276 342 C207 342 173 379 173 453 L173 453 Z " />
<glyph glyph-name="colon" unicode="&#x3a;" horiz-adv-x="259" d="M209 64 C209 107 179 136 130 136 C81 136 53 107 53 64 C53 23 81 -8 130 -8 C181 -8 209 23 209 64 L209 64 Z M130 295 C179 295 209 324 209 367 C209 410 179 438 130 438 C81 438 53 410 53 367 C53 324 82 295 130 295 L130 295 Z " />
<glyph glyph-name="semicolon" unicode="&#x3b;" horiz-adv-x="259" d="M130 295 C179 295 209 324 209 367 C209 410 179 438 130 438 C81 438 53 410 53 367 C53 324 82 295 130 295 L130 295 Z M50 64 C50 28 67 6 101 -1 C96 -40 77 -75 45 -105 L80 -150 C117 -131 147 -103 172 -64 C197 -26 210 12 210 49 C210 100 182 135 127 135 C82 135 50 104 50 64 L50 64 Z " />
<glyph glyph-name="less" unicode="&#x3c;" horiz-adv-x="598" d="M192 300 L524 452 L524 549 L80 333 L80 264 L524 47 L524 143 L192 300 Z " />
<glyph glyph-name="equal" unicode="&#x3d;" horiz-adv-x="598" d="M511 421 L86 421 L86 340 L511 340 L511 421 Z M511 260 L86 260 L86 180 L511 180 L511 260 Z " />
<glyph glyph-name="greater" unicode="&#x3e;" horiz-adv-x="598" d="M524 264 L524 333 L80 549 L80 452 L412 300 L80 143 L80 47 L524 264 Z " />
<glyph glyph-name="question" unicode="&#x3f;" horiz-adv-x="496" d="M253 435 C227 412 208 393 195 379 C182 366 171 348 160 327 C150 306 145 283 145 258 C145 241 148 215 153 181 L270 187 C268 203 265 228 265 239 C265 299 338 352 395 407 C435 446 466 500 466 560 C458 655 383 710 251 710 C183 710 114 697 45 672 L75 575 C126 592 176 601 225 601 C278 601 312 577 312 536 C312 502 292 468 253 435 L253 435 Z M297 55 C297 96 270 124 222 124 C174 124 147 96 147 55 C147 16 175 -11 222 -11 C269 -11 297 16 297 55 L297 55 Z " />
<glyph glyph-name="at" unicode="&#x40;" horiz-adv-x="970" d="M505 713 C384 713 283 676 202 601 C121 526 80 433 80 321 C80 207 116 114 188 41 C260 -31 357 -67 479 -67 C543 -67 600 -55 650 -31 L622 42 C573 25 525 17 478 17 C389 17 316 46 257 104 C199 162 170 235 170 323 C170 409 202 481 267 540 C332 599 412 628 505 628 C596 628 668 603 720 553 C773 503 799 435 799 350 C799 261 750 213 701 213 C665 213 647 229 647 260 L647 410 C647 499 597 543 498 543 C442 543 388 533 337 513 L358 438 C401 451 440 457 475 457 C523 457 536 442 536 397 L536 382 C443 372 381 360 349 345 C317 330 301 301 301 257 C301 227 310 200 328 175 C346 151 377 139 422 139 C475 139 519 157 554 194 C574 151 628 130 681 130 C740 130 790 150 829 190 C869 230 889 285 889 356 C889 465 855 551 786 616 C717 681 624 713 505 713 L505 713 Z M536 249 C513 230 490 220 468 220 C437 220 421 236 421 267 C416 295 452 308 475 312 C482 314 493 316 508 317 C523 318 533 319 536 320 L536 249 Z " />
<glyph glyph-name="A" unicode="A" horiz-adv-x="664" d="M428 687 L242 687 L8 0 L155 0 L204 157 L455 157 L503 0 L655 0 L428 687 Z M236 257 L287 433 L329 587 L334 587 L374 438 L425 257 L236 257 Z " />
<glyph glyph-name="B" unicode="B" horiz-adv-x="658" d="M496 363 C559 392 584 451 584 503 C584 615 511 687 372 687 L72 687 L72 0 L385 0 C450 0 502 18 542 55 C582 92 602 140 602 200 C602 237 599 271 564 312 C547 333 525 349 496 358 L496 363 Z M344 305 C413 305 452 263 452 206 C452 145 417 104 344 104 L219 104 L219 305 L344 305 Z M330 583 C399 583 433 552 433 491 C433 436 397 405 330 405 L219 405 L219 583 L330 583 Z " />
<glyph glyph-name="C" unicode="C" horiz-adv-x="627" d="M385 701 C122 700 51 502 52 340 C52 236 71 159 119 92 C167 27 254 -10 377 -10 C459 -10 531 2 593 27 L569 129 C514 114 461 107 408 107 C263 107 208 182 208 345 C208 505 273 585 404 585 C452 585 500 578 547 565 L568 673 C509 692 448 701 385 701 L385 701 Z " />
<glyph glyph-name="D" unicode="D" horiz-adv-x="690" d="M325 0 C440 0 525 39 570 104 C617 171 637 249 637 346 C637 459 613 556 544 621 C499 662 426 688 331 688 L73 688 L73 0 L325 0 Z M313 584 C357 584 392 572 427 539 C463 506 484 437 484 341 C484 246 461 180 424 148 C388 117 353 106 313 106 L222 106 L222 584 L313 584 Z " />
<glyph glyph-name="E" unicode="E" horiz-adv-x="606" d="M560 105 L221 105 L221 311 L494 311 L494 409 L221 409 L221 584 L546 584 L546 688 L72 688 L72 0 L560 0 L560 105 Z " />
<glyph glyph-name="F" unicode="F" horiz-adv-x="574" d="M220 297 L471 297 L471 397 L220 397 L220 583 L541 583 L541 688 L72 688 L72 0 L220 0 L220 297 Z " />
<glyph glyph-name="G" unicode="G" horiz-adv-x="667" d="M399 701 C231 701 139 629 94 537 C62 473 52 411 52 342 C52 107 160 -10 375 -10 C456 -10 534 3 609 28 L609 363 L474 363 L474 118 C447 111 416 107 383 107 C258 107 208 187 208 334 C208 503 277 587 416 587 C464 587 514 580 567 567 L588 673 C527 692 464 701 399 701 L399 701 Z " />
<glyph glyph-name="H" unicode="H" horiz-adv-x="710" d="M636 687 L487 687 L487 413 L220 413 L220 550 C221 611 221 656 221 687 L72 687 L72 0 L221 0 C221 33 221 84 220 152 L220 306 L487 306 L487 0 L636 0 L636 687 Z " />
<glyph glyph-name="I" unicode="I" horiz-adv-x="308" d="M227 688 L81 688 L81 0 L227 0 L227 688 Z " />
<glyph glyph-name="J" unicode="J" horiz-adv-x="365" d="M126 156 C126 96 114 49 90 16 C67 -17 20 -53 -51 -90 L-16 -192 C177 -145 273 -37 273 151 L274 689 L127 689 L126 156 L126 156 Z " />
<glyph glyph-name="K" unicode="K" horiz-adv-x="665" d="M218 687 L72 687 L72 0 L218 0 L218 258 L279 320 L482 0 L656 0 L379 418 L641 687 L470 687 L267 467 L225 419 L218 419 L218 687 Z " />
<glyph glyph-name="L" unicode="L" horiz-adv-x="579" d="M569 103 L220 103 L220 688 L72 688 L72 0 L569 0 L569 103 Z " />
<glyph glyph-name="M" unicode="M" horiz-adv-x="890" d="M673 0 L817 0 L817 687 L641 687 C633 669 617 632 594 575 C571 519 555 481 546 462 L448 219 L440 219 L344 464 L254 687 L72 687 L72 0 L214 0 L214 229 C215 340 215 417 215 459 L218 459 L262 344 C267 334 306 240 381 62 L502 62 L620 337 L670 464 L673 464 L673 0 Z " />
<glyph glyph-name="N" unicode="N" horiz-adv-x="742" d="M433 354 L221 687 L72 687 L72 0 L214 0 L214 483 C215 483 218 484 219 484 L288 370 L521 0 L669 0 L669 687 L526 687 L526 214 L520 214 L433 354 Z " />
<glyph glyph-name="O" unicode="O" horiz-adv-x="746" d="M694 344 C694 539 606 700 376 700 C268 700 187 667 133 600 C80 534 53 448 53 342 C53 123 159 -10 376 -10 C478 -10 556 23 611 88 C666 154 694 239 694 344 L694 344 Z M537 342 C537 193 487 97 376 97 C256 97 208 178 208 341 C208 510 264 595 376 595 C483 595 537 511 537 342 L537 342 Z " />
<glyph glyph-name="P" unicode="P" horiz-adv-x="597" d="M569 477 C569 609 486 688 333 688 L72 688 L72 0 L221 0 L220 264 L345 264 C420 264 476 285 513 328 C550 371 569 420 569 477 L569 477 Z M312 584 C377 584 419 549 419 474 C419 398 376 365 317 365 L220 365 L220 584 L312 584 Z " />
<glyph glyph-name="Q" unicode="Q" horiz-adv-x="751" d="M692 342 C692 538 606 700 375 700 C228 700 127 627 84 522 C63 470 52 410 52 341 C52 126 149 10 342 -8 L655 -114 C660 -102 668 -83 677 -58 L698 -2 C635 13 585 26 548 37 C643 92 692 203 692 342 L692 342 Z M536 341 C536 192 484 95 375 95 C256 95 207 179 207 340 C207 509 263 593 375 593 C482 593 536 509 536 341 L536 341 Z " />
<glyph glyph-name="R" unicode="R" horiz-adv-x="645" d="M576 490 C576 606 502 687 351 687 L72 687 L72 0 L218 0 L218 277 L292 277 C352 277 387 252 407 180 L459 0 L606 0 L551 192 C532 256 511 296 459 312 L459 313 C535 340 576 411 576 490 L576 490 Z M218 583 L322 583 C386 583 426 549 426 482 C426 409 379 378 323 378 L218 378 L218 583 Z " />
<glyph glyph-name="S" unicode="S" horiz-adv-x="623" d="M320 701 C151 701 59 620 59 492 C59 452 72 419 85 396 C98 373 134 350 155 338 C166 332 183 325 204 318 C226 311 243 306 255 303 L313 288 C392 267 426 248 426 195 C426 131 386 104 303 104 C228 104 154 119 79 149 L41 45 C112 8 196 -10 292 -10 C481 -10 581 63 581 195 C581 270 552 325 493 361 C466 377 418 394 351 411 C290 426 265 431 236 455 C221 467 214 481 214 498 C214 555 252 586 315 586 C384 586 446 575 500 552 L538 652 C479 685 406 701 320 701 L320 701 Z " />
<glyph glyph-name="T" unicode="T" horiz-adv-x="610" d="M379 581 L596 581 L596 688 L14 688 L14 581 L232 581 L232 0 L378 0 L379 581 Z " />
<glyph glyph-name="U" unicode="U" horiz-adv-x="709" d="M497 688 L498 248 C498 145 445 97 357 97 C261 97 213 147 213 248 L213 688 L67 688 L67 253 C67 78 163 -10 355 -10 C548 -10 641 85 641 253 L642 688 L497 688 Z " />
<glyph glyph-name="V" unicode="V" horiz-adv-x="647" d="M304 194 L288 257 L165 688 L8 688 L232 0 L412 0 L638 688 L481 688 C424 494 384 350 359 257 C353 232 342 191 326 134 L319 134 L304 194 Z " />
<glyph glyph-name="W" unicode="W" horiz-adv-x="943" d="M469 498 C472 488 479 459 488 412 C497 365 503 336 506 326 C515 295 529 239 548 159 C567 80 581 27 588 0 L770 0 C796 101 851 331 935 688 L781 688 L742 506 L708 342 L692 253 L677 167 L669 167 L651 253 L633 335 L589 510 L545 688 L386 688 L308 329 L293 247 L278 166 L271 166 C268 182 262 210 255 250 L240 336 C233 365 221 424 202 513 L165 688 L8 688 L174 0 L359 0 L430 326 C433 339 438 366 445 407 C452 448 458 479 462 499 L469 498 L469 498 Z " />
<glyph glyph-name="X" unicode="X" horiz-adv-x="646" d="M6 0 L172 0 L320 259 L472 0 L638 0 L413 354 L633 687 L466 687 L328 446 L192 687 L24 687 L234 357 L6 0 Z " />
<glyph glyph-name="Y" unicode="Y" horiz-adv-x="626" d="M390 0 L390 264 L616 687 L465 687 L379 516 L346 444 C332 411 321 388 314 373 L308 373 L247 510 L162 687 L8 687 L232 247 L232 0 L390 0 Z " />
<glyph glyph-name="Z" unicode="Z" horiz-adv-x="594" d="M559 592 L559 688 L44 688 L44 582 L355 582 L358 575 L18 98 L18 0 L577 0 L577 106 L218 107 L215 113 L559 592 Z " />
<glyph glyph-name="bracketleft" unicode="&#x5b;" horiz-adv-x="313" d="M278 -83 L182 -83 L182 619 L278 619 L278 699 L63 699 L63 -160 L278 -160 L278 -83 Z " />
<glyph glyph-name="backslash" unicode="&#x5c;" horiz-adv-x="371" d="M365 -33 L106 706 L8 706 L267 -33 L365 -33 Z " />
<glyph glyph-name="bracketright" unicode="&#x5d;" horiz-adv-x="313" d="M253 699 L39 699 L39 619 L134 619 L134 -83 L39 -83 L39 -160 L253 -160 L253 699 Z " />
<glyph glyph-name="asciicircum" unicode="&#x5e;" horiz-adv-x="487" d="M273 679 L205 679 L19 355 L113 355 L239 581 L364 355 L458 355 L273 679 Z " />
<glyph glyph-name="underscore" unicode="&#x5f;" horiz-adv-x="500" d="M500 -75 L0 -75 L0 -145 L500 -145 L500 -75 Z " />
<glyph glyph-name="grave" unicode="&#x60;" horiz-adv-x="519" d="M378 589 C367 602 343 629 304 671 C265 713 240 741 229 756 C222 749 208 734 187 710 L149 668 L325 531 L378 589 Z " />
<glyph glyph-name="a" unicode="a" horiz-adv-x="579" d="M484 330 C484 451 416 501 291 501 C212 501 141 487 78 460 L101 371 C152 388 204 396 257 396 C326 396 348 371 348 311 L348 299 L281 295 L214 291 C105 284 32 230 32 133 C32 76 63 -10 184 -10 C251 -10 307 10 354 51 L356 49 C360 4 387 -10 435 -10 C480 -10 520 -2 555 15 L548 95 L484 95 L484 330 Z M348 126 C315 97 281 82 247 82 C202 82 180 103 180 145 C180 186 203 208 249 212 L348 220 L348 126 Z " />
<glyph glyph-name="b" unicode="b" horiz-adv-x="574" d="M50 41 C118 8 199 -8 294 -8 C454 -8 534 76 534 245 C534 418 469 505 339 505 C292 505 245 490 196 460 L189 464 C189 473 189 490 190 517 C191 544 192 562 192 571 L192 716 L50 716 L50 41 Z M296 398 C355 398 390 363 390 243 C390 131 354 93 287 93 C253 93 222 99 194 111 L194 367 C231 388 265 398 296 398 L296 398 Z " />
<glyph glyph-name="c" unicode="c" horiz-adv-x="485" d="M184 246 C184 338 227 392 306 392 C345 392 380 387 413 378 C418 401 426 434 435 478 C390 494 339 502 282 502 C187 502 118 468 85 413 C52 360 39 304 39 240 C39 104 88 -8 276 -8 C349 -8 410 5 461 31 L434 126 C385 109 341 101 302 101 C217 101 184 151 184 246 L184 246 Z " />
<glyph glyph-name="d" unicode="d" horiz-adv-x="575" d="M251 503 C103 503 39 399 39 235 C39 74 104 -7 234 -7 C291 -7 342 11 385 46 C386 46 387 45 388 44 L391 0 L524 0 L524 715 L381 715 L381 472 C346 493 302 503 251 503 L251 503 Z M381 130 C357 113 308 93 280 93 C219 93 183 128 183 236 C183 345 216 399 282 399 C319 399 352 390 381 372 L381 130 Z " />
<glyph glyph-name="e" unicode="e" horiz-adv-x="544" d="M280 504 C188 504 120 469 87 414 C54 359 40 305 40 245 C40 172 53 117 88 68 C123 20 190 -8 286 -8 C366 -8 435 8 494 41 L465 129 C410 108 357 98 307 98 C220 98 184 136 184 213 L505 213 L505 264 C505 308 503 338 486 386 C477 410 465 430 450 445 C421 477 360 504 280 504 L280 504 Z M286 413 C344 413 374 376 375 301 L186 301 C192 376 225 413 286 413 L286 413 Z " />
<glyph glyph-name="f" unicode="f" horiz-adv-x="412" d="M236 0 L236 199 C237 318 237 384 237 398 L378 398 L378 492 L237 492 L237 555 C237 598 264 620 317 620 C346 620 374 617 402 611 L419 708 C379 719 334 725 284 725 C160 725 98 669 98 557 L98 496 L28 476 L28 398 L97 398 L97 0 L236 0 Z " />
<glyph glyph-name="g" unicode="g" horiz-adv-x="597" d="M118 191 C69 174 45 144 45 101 C45 64 63 40 99 29 C63 9 37 -31 37 -78 C37 -171 114 -218 267 -218 C459 -218 552 -147 552 -48 C552 49 486 98 355 98 L211 98 C185 98 172 106 172 122 C172 143 192 153 233 153 L290 154 C355 154 409 169 452 198 C495 228 516 270 516 325 C516 363 507 393 490 415 L493 420 L563 420 L563 492 L387 492 C360 500 325 504 283 504 C220 504 167 488 123 457 C80 426 58 381 58 320 C58 260 79 218 120 195 L118 191 Z M326 12 C380 12 407 -9 407 -52 C407 -96 366 -123 287 -123 C202 -123 175 -96 175 -52 C175 -27 195 3 218 12 L326 12 Z M376 326 C376 270 337 242 280 242 C228 242 198 273 198 325 C198 378 227 412 286 412 C349 412 376 375 376 326 L376 326 Z " />
<glyph glyph-name="h" unicode="h" horiz-adv-x="569" d="M190 556 L190 715 L49 715 L49 0 L193 0 L193 355 C234 380 271 392 305 392 C364 392 375 364 375 304 L375 0 L518 0 L518 334 C518 388 507 430 486 459 C465 488 425 503 364 503 C313 503 257 484 195 447 L187 451 L190 556 Z " />
<glyph glyph-name="i" unicode="i" horiz-adv-x="299" d="M220 491 L77 491 L77 0 L220 0 L220 491 Z M233 627 C233 672 201 704 148 704 C97 704 66 672 66 627 C66 583 97 551 148 551 C201 551 233 583 233 627 L233 627 Z " />
<glyph glyph-name="j" unicode="j" horiz-adv-x="307" d="M83 56 C83 7 75 -29 60 -52 C45 -75 12 -101 -40 -131 C-36 -137 -4 -221 -1 -228 C81 -206 139 -174 173 -133 C207 -92 225 -33 226 46 C227 57 227 206 227 491 L83 491 L83 56 Z M240 627 C240 672 208 704 156 704 C104 704 74 672 74 627 C74 582 104 551 156 551 C208 551 240 583 240 627 L240 627 Z " />
<glyph glyph-name="k" unicode="k" horiz-adv-x="532" d="M189 323 C192 380 193 428 193 465 L194 714 L49 714 L49 0 L194 0 L194 172 L237 216 L368 0 L526 0 L364 257 L328 299 L513 491 L353 491 L195 322 C192 322 190 322 189 323 L189 323 Z " />
<glyph glyph-name="l" unicode="l" horiz-adv-x="272" d="M64 716 L64 0 L206 0 L207 716 L64 716 Z " />
<glyph glyph-name="m" unicode="m" horiz-adv-x="864" d="M812 329 C812 380 805 416 784 449 C763 484 720 502 657 502 C631 502 601 496 567 483 C533 471 504 456 480 438 C456 481 416 502 361 502 C303 502 246 481 191 440 L187 442 L184 491 L50 491 L50 0 L193 0 L193 354 C232 378 268 390 301 390 C340 390 360 367 360 321 L360 160 C361 89 361 35 361 0 L502 0 L502 293 C502 317 501 338 498 357 C531 380 566 391 603 391 C652 391 668 367 668 311 L668 0 L812 0 L812 329 Z " />
<glyph glyph-name="n" unicode="n" horiz-adv-x="569" d="M518 334 C518 427 494 503 364 503 C308 503 250 483 191 444 L187 446 L185 491 L49 491 L49 0 L193 0 L193 355 C234 380 271 392 305 392 C362 392 375 363 375 304 L375 0 L518 0 L518 334 Z " />
<glyph glyph-name="o" unicode="o" horiz-adv-x="577" d="M285 -10 C372 -10 436 14 476 61 C517 109 537 171 537 246 C537 321 517 383 478 430 C439 478 376 502 291 502 C206 502 142 478 101 430 C60 382 40 320 40 245 C40 168 59 107 98 60 C137 13 200 -10 285 -10 L285 -10 Z M389 245 C389 142 356 91 291 91 C211 91 187 146 187 245 C187 349 222 401 291 401 C356 401 389 349 389 245 L389 245 Z " />
<glyph glyph-name="p" unicode="p" horiz-adv-x="575" d="M184 492 L50 492 L50 -209 L192 -209 L192 20 C225 1 269 -9 324 -9 C469 -9 534 92 534 248 C534 415 469 499 340 499 C287 499 237 481 192 444 L187 448 L184 492 Z M291 92 C254 92 221 101 193 119 L193 357 C204 366 220 375 241 383 C262 391 279 395 294 395 C355 395 391 361 391 254 C391 146 358 92 291 92 L291 92 Z " />
<glyph glyph-name="q" unicode="q" horiz-adv-x="575" d="M384 17 C383 -6 383 -39 383 -82 L383 -208 L523 -208 L523 457 C491 471 453 482 410 489 C367 496 328 500 295 500 C125 500 40 408 40 224 C40 67 108 -11 244 -11 C287 -11 332 0 377 23 L384 17 Z M277 93 C217 93 183 128 183 244 C184 346 221 397 294 397 C325 397 354 392 380 381 L380 123 C343 103 308 93 277 93 L277 93 Z " />
<glyph glyph-name="r" unicode="r" horiz-adv-x="416" d="M196 407 C200 438 202 466 202 491 L61 491 L61 0 L204 0 L204 332 L371 330 C382 345 392 367 401 397 C411 428 416 452 416 471 C416 493 407 504 388 504 C335 504 258 460 201 404 L196 407 L196 407 Z " />
<glyph glyph-name="s" unicode="s" horiz-adv-x="491" d="M258 503 C123 503 50 449 50 354 C50 309 66 277 107 253 C128 242 145 233 159 228 L227 205 C232 204 253 197 260 194 C267 193 284 187 289 183 C306 173 319 163 319 142 C319 106 291 88 236 88 C181 88 123 99 62 121 L31 32 C85 5 152 -8 231 -8 C382 -8 460 44 460 139 C456 208 428 246 376 272 C340 291 319 297 278 309 C277 309 275 310 272 311 C218 325 191 341 191 358 C191 388 215 403 263 403 C308 403 354 394 400 377 L415 421 C424 447 429 462 431 465 C384 490 326 503 258 503 L258 503 Z " />
<glyph glyph-name="t" unicode="t" horiz-adv-x="405" d="M111 559 C102 525 96 505 93 499 L15 476 L15 398 L84 398 L84 138 C84 49 127 -8 254 -8 C306 -8 353 1 394 20 L376 113 C337 104 309 100 291 100 C242 100 225 123 225 176 L225 398 L368 398 L368 492 L225 492 L225 627 L128 617 L111 559 Z " />
<glyph glyph-name="u" unicode="u" horiz-adv-x="558" d="M199 -11 C260 -11 315 11 366 55 L370 53 L374 0 L507 0 L507 492 C491 492 467 492 435 491 L364 491 L364 145 C329 114 294 99 259 99 C204 99 192 131 192 187 L192 491 L49 491 L49 156 C49 102 59 61 79 32 C100 3 140 -11 199 -11 L199 -11 Z " />
<glyph glyph-name="v" unicode="v" horiz-adv-x="551" d="M276 95 C271 108 263 136 252 181 C241 226 233 253 230 263 L159 491 L9 491 L177 0 L372 0 L541 491 L397 491 L369 399 C351 340 338 298 329 273 C316 231 283 99 281 95 L276 95 L276 95 Z " />
<glyph glyph-name="w" unicode="w" horiz-adv-x="820" d="M539 262 L475 492 L339 492 L280 269 L247 114 L242 114 L212 265 L157 492 L16 492 L149 0 L316 0 L369 210 L402 369 L409 369 L445 210 L503 0 L670 0 L803 492 L664 492 L609 262 L580 115 L573 115 L539 262 Z " />
<glyph glyph-name="x" unicode="x" horiz-adv-x="520" d="M514 0 L347 257 L506 491 L353 491 L263 325 L174 491 L17 491 L173 256 L4 0 L157 0 L261 182 L358 0 L514 0 Z " />
<glyph glyph-name="y" unicode="y" horiz-adv-x="536" d="M238 194 C231 217 218 266 197 341 L156 491 L14 491 L166 11 L230 11 L210 -51 C195 -98 174 -112 129 -112 C122 -112 99 -109 58 -103 L38 -198 C86 -211 127 -217 160 -217 C245 -217 302 -176 329 -93 L526 491 L382 491 L296 197 C287 165 277 129 268 89 L261 89 L238 194 Z " />
<glyph glyph-name="z" unicode="z" horiz-adv-x="467" d="M445 414 L445 492 L35 492 L35 395 L258 395 L260 389 L10 78 L10 0 L458 0 L458 96 L197 96 L194 103 L445 414 Z " />
<glyph glyph-name="braceleft" unicode="&#x7b;" horiz-adv-x="326" d="M305 -89 L276 -89 C233 -89 222 -65 222 -24 L222 152 C222 227 208 266 152 287 L152 288 C208 301 222 342 222 415 L222 558 C222 602 241 624 279 624 L305 624 L305 703 L216 703 C139 703 101 653 101 554 L101 428 C101 363 83 333 31 322 L31 249 C82 240 101 212 101 156 L101 -34 C101 -61 104 -82 119 -113 C134 -145 169 -166 221 -166 L305 -166 L305 -89 Z " />
<glyph glyph-name="bar" unicode="&#x7c;" horiz-adv-x="312" d="M202 707 L107 707 L107 -146 L202 -146 L202 707 Z " />
<glyph glyph-name="braceright" unicode="&#x7d;" horiz-adv-x="326" d="M107 -166 C217 -166 227 -64 227 -25 L227 156 C227 209 250 240 297 249 L297 322 C248 333 227 359 227 419 L227 573 C227 652 199 703 112 703 L22 703 L22 624 L49 624 C87 624 106 602 106 558 L106 401 C106 338 129 300 175 288 L175 287 C119 266 106 228 106 152 L106 -24 C106 -65 95 -89 52 -89 L22 -89 L22 -166 L107 -166 L107 -166 Z " />
<glyph glyph-name="asciitilde" unicode="&#x7e;" horiz-adv-x="590" d="M410 231 C467 231 510 267 538 340 L489 377 L422 329 C401 329 364 337 311 352 C258 367 219 375 195 375 C136 375 93 339 65 268 L114 230 L184 276 C201 276 235 268 287 253 C339 238 380 231 410 231 L410 231 Z " />
<glyph glyph-name="exclamdown" unicode="&#xa1;" horiz-adv-x="283" d="M209 -214 C209 -107 208 -38 206 -6 C206 15 204 65 200 144 L194 296 L90 296 L83 162 L77 28 L74 -214 L209 -214 Z M217 430 C217 470 189 500 142 500 C94 500 66 471 66 430 C66 390 94 361 141 361 C190 361 217 389 217 430 L217 430 Z " />
<glyph glyph-name="cent" unicode="&#xa2;" horiz-adv-x="590" d="M351 -82 L351 -6 C404 -1 450 12 489 31 L462 126 C422 112 385 104 351 101 L351 392 C384 391 414 386 441 378 C446 401 454 434 463 478 C431 489 394 497 351 501 L351 576 L293 576 L293 501 C109 494 67 352 67 240 C67 143 86 77 155 29 C190 6 236 -7 293 -8 L293 -82 L351 -82 Z M212 246 C212 323 239 370 293 386 L293 105 C239 118 212 165 212 246 L212 246 Z " />
<glyph glyph-name="sterling" unicode="&#xa3;" horiz-adv-x="590" d="M63 300 L125 300 C125 270 124 251 121 243 C117 168 93 118 49 93 L49 0 L532 0 L532 94 L204 94 C231 120 247 170 251 243 C251 244 252 254 253 272 C254 290 255 299 255 300 L416 300 L416 375 L260 375 C260 377 261 391 262 416 C264 441 265 455 265 457 C270 537 297 574 369 574 C414 574 459 566 503 549 L538 643 C482 668 421 681 355 681 C220 681 146 609 135 465 C135 462 134 447 132 419 C131 392 130 377 130 375 L63 375 L63 300 Z " />
<glyph glyph-name="currency" unicode="&#xa4;" horiz-adv-x="564" d="M164 306 C164 338 175 365 198 388 C221 411 248 422 281 422 C345 422 396 370 396 306 C396 274 385 247 362 224 C339 201 312 190 281 190 C216 190 164 241 164 306 L164 306 Z M113 415 C90 384 79 347 79 305 C79 265 90 229 113 197 L48 134 L107 74 L172 139 C203 117 239 106 282 106 C325 106 361 117 391 139 L456 74 L515 135 L449 196 C471 232 482 269 482 306 C482 345 471 382 449 416 L515 479 L456 538 L392 473 C359 496 322 508 282 508 C243 508 206 497 171 474 L107 538 L48 480 L113 415 Z " />
<glyph glyph-name="yen" unicode="&#xa5;" horiz-adv-x="590" d="M241 488 C234 502 222 532 204 579 L169 668 L26 668 C37 646 60 594 97 513 C134 432 159 379 171 355 L59 355 L59 301 L526 301 L526 355 L410 355 L486 513 L560 668 L420 668 C378 563 353 503 345 488 L320 426 L295 365 L290 365 L241 488 Z M59 201 L220 201 L220 0 L364 0 L364 201 L526 201 L526 256 L59 256 L59 201 Z " />
<glyph glyph-name="brokenbar" unicode="&#xa6;" horiz-adv-x="312" d="M202 707 L107 707 L107 351 L202 351 L202 707 Z M107 -146 L202 -146 L202 239 L107 239 L107 -146 Z " />
<glyph glyph-name="section" unicode="&#xa7;" horiz-adv-x="518" d="M461 322 C461 361 448 390 419 413 C391 436 371 446 331 463 L297 478 L256 496 L223 514 C198 530 187 545 187 562 C187 599 232 626 277 626 C322 626 369 619 418 604 L445 685 C400 706 344 716 277 716 C152 716 65 659 65 554 C65 512 85 476 126 446 C81 412 58 369 58 316 C59 264 84 232 122 204 C142 192 149 188 173 176 C185 171 194 167 199 164 L229 152 L257 141 C321 116 344 95 344 62 C344 26 295 -7 227 -7 C189 -7 144 1 91 17 C79 -19 70 -46 65 -64 C120 -84 179 -94 241 -94 C384 -94 471 -32 471 72 C471 120 446 160 396 193 C439 227 461 270 461 322 L461 322 Z M352 300 C352 283 337 252 316 232 C301 240 282 248 260 257 L212 278 C191 289 171 309 171 337 C171 361 184 384 209 406 C222 399 256 387 269 380 C284 373 308 362 319 353 C338 339 352 323 352 300 L352 300 Z " />
<glyph glyph-name="dieresis" unicode="&#xa8;" horiz-adv-x="542" d="M233 623 C233 660 207 685 162 685 C119 685 94 660 94 623 C94 587 118 561 162 561 C206 561 233 587 233 623 L233 623 Z M444 623 C444 662 418 685 373 685 C332 685 306 660 306 623 C306 587 330 561 373 561 C418 561 444 587 444 623 L444 623 Z " />
<glyph glyph-name="copyright" unicode="&#xa9;" horiz-adv-x="851" d="M424 -48 C528 -48 617 -11 692 63 C767 137 805 226 805 330 C805 434 767 523 692 597 C617 671 528 708 424 708 C319 708 230 671 155 597 C80 523 43 434 43 330 C43 226 80 137 155 63 C230 -11 319 -48 424 -48 L424 -48 Z M424 649 C513 649 588 618 651 555 C714 493 745 418 745 330 C745 242 714 167 651 105 C588 43 513 12 424 12 C336 12 260 43 197 105 C134 167 103 242 103 330 C103 418 134 493 197 555 C260 618 336 649 424 649 L424 649 Z M312 325 C312 436 363 495 454 495 C489 495 522 490 553 481 L567 552 C530 565 489 571 444 571 C355 571 289 539 256 488 C223 437 209 383 209 322 C209 161 283 80 432 80 C487 80 536 88 581 104 L566 172 C535 163 499 159 456 159 C355 159 312 213 312 325 L312 325 Z " />
<glyph glyph-name="ordfeminine" unicode="&#xaa;" horiz-adv-x="387" d="M328 483 C328 566 283 599 196 599 C141 599 91 590 46 571 C48 563 51 551 56 536 C61 521 65 510 66 504 C101 515 136 521 171 521 C214 521 225 508 225 472 L225 459 C175 457 133 453 98 446 C44 436 17 406 17 357 C17 308 48 259 127 259 C167 259 202 272 231 297 C237 273 256 261 289 261 C323 261 351 266 373 277 L369 340 L328 340 L328 483 Z M166 328 C139 328 125 341 125 366 C125 385 136 397 159 402 C177 407 199 409 225 409 L225 351 C203 336 183 328 166 328 L166 328 Z " />
<glyph glyph-name="guillemotleft" unicode="&#xab;" horiz-adv-x="493" d="M213 -1 L271 41 L168 197 L271 355 L215 395 L49 216 L49 178 L213 -1 Z M399 -1 L456 41 L354 197 L457 355 L400 395 L234 216 L234 178 L399 -1 Z " />
<glyph glyph-name="logicalnot" unicode="&#xac;" horiz-adv-x="590" d="M97 344 L97 261 L424 261 L424 91 L510 91 L510 344 L97 344 Z " />
<glyph glyph-name="sfthyphen" unicode="&#xad;" horiz-adv-x="393" d="M334 318 L59 318 L59 219 L334 219 L334 318 Z " />
<glyph glyph-name="registered" unicode="&#xae;" horiz-adv-x="601" d="M298 210 C371 210 432 235 481 284 C530 334 555 395 555 466 C555 537 530 598 481 647 C432 697 371 722 298 722 C225 722 163 697 114 647 C65 598 40 537 40 466 C40 395 65 335 115 285 C165 235 226 210 298 210 L298 210 Z M508 466 C508 407 488 358 449 317 C410 276 360 256 298 256 C237 256 187 276 147 317 C107 358 87 407 87 466 C87 524 107 573 148 614 C189 655 239 676 298 676 C358 676 408 655 448 614 C488 573 508 524 508 466 L508 466 Z M348 532 C348 503 333 488 303 488 L266 488 L266 574 L306 574 C334 574 348 560 348 532 L348 532 Z M366 456 C398 469 416 503 416 531 C416 584 383 617 318 617 L200 617 L200 326 L265 326 L265 445 L313 445 L361 326 L425 326 L366 456 Z " />
<glyph glyph-name="overscore" unicode="&#xaf;" horiz-adv-x="556" d="M459 583 L459 674 L96 674 L96 583 L459 583 Z " />
<glyph glyph-name="degree" unicode="&#xb0;" horiz-adv-x="374" d="M337 538 C337 579 322 614 293 643 C264 672 229 687 188 687 C147 687 112 672 83 643 C54 614 39 579 39 538 C39 495 53 459 81 431 C109 403 145 389 188 389 C229 389 264 403 293 432 C322 461 337 497 337 538 L337 538 Z M267 537 C267 493 231 458 187 458 C143 458 109 492 109 537 C109 582 143 618 187 618 C231 618 267 582 267 537 L267 537 Z " />
<glyph glyph-name="plusminus" unicode="&#xb1;" horiz-adv-x="590" d="M509 360 L347 360 L347 511 L261 511 L261 360 L97 360 L97 277 L261 277 L261 126 L347 126 L347 277 L509 277 L509 360 Z M97 0 L509 0 L509 80 L97 80 L97 0 Z " />
<glyph glyph-name="twosuperior" unicode="&#xb2;" horiz-adv-x="392" d="M333 641 C333 720 278 765 179 765 C122 765 68 748 19 715 L55 648 C90 668 126 678 162 678 C202 678 222 664 222 635 C222 611 202 579 161 538 C121 497 76 458 25 421 L25 354 L350 354 L350 431 L182 431 C277 508 333 569 333 641 L333 641 Z " />
<glyph glyph-name="threesuperior" unicode="&#xb3;" horiz-adv-x="392" d="M197 683 L199 679 L103 592 L111 540 C128 541 142 542 151 542 C213 542 244 525 244 490 C244 458 217 434 165 434 C128 434 88 441 47 454 L35 421 L21 381 C62 360 113 350 176 350 C277 350 353 402 353 490 C353 554 313 598 245 610 L344 701 C343 708 338 727 330 759 L44 759 L44 683 L197 683 Z " />
<glyph glyph-name="acute" unicode="&#xb4;" horiz-adv-x="522" d="M335 754 L187 584 L237 532 L411 672 L335 754 Z " />
<glyph glyph-name="&amp;#xb5;" unicode="&#xb5;" horiz-adv-x="558" d="M197 3 C210 -2 224 -5 239 -5 C286 -5 328 11 363 43 L367 40 C368 34 369 21 370 0 L507 0 L507 492 L364 492 L364 145 C330 115 298 100 267 100 C217 100 192 127 192 180 L192 492 L49 492 L49 -208 L193 -208 L193 -2 L197 3 L197 3 Z " />
<glyph glyph-name="&amp;#x3bc;" unicode="&#x3bc;" horiz-adv-x="558" d="M197 3 C210 -2 224 -5 239 -5 C286 -5 328 11 363 43 L367 40 C368 34 369 21 370 0 L507 0 L507 492 L364 492 L364 145 C330 115 298 100 267 100 C217 100 192 127 192 180 L192 492 L49 492 L49 -208 L193 -208 L193 -2 L197 3 L197 3 Z " />
<glyph glyph-name="paragraph" unicode="&#xb6;" horiz-adv-x="601" d="M263 -207 L359 -207 L359 610 L420 610 L420 -207 L515 -207 L515 704 L245 704 C185 704 136 684 98 643 C61 603 42 554 42 495 C42 436 61 387 99 350 C138 313 186 295 245 295 L264 295 L263 -207 Z " />
<glyph glyph-name="middot" unicode="&#xb7;" horiz-adv-x="259" d="M209 275 C209 319 181 347 130 347 C81 347 53 319 53 275 C53 234 82 203 130 203 C179 203 209 232 209 275 L209 275 Z " />
<glyph glyph-name="cedilla" unicode="&#xb8;" horiz-adv-x="478" d="M275 41 L173 -91 L190 -117 C221 -117 279 -111 279 -151 C279 -180 243 -199 170 -206 L170 -254 C297 -253 364 -209 364 -142 C364 -93 325 -63 258 -58 L315 17 L275 41 Z " />
<glyph glyph-name="onesuperior" unicode="&#xb9;" horiz-adv-x="379" d="M252 355 L252 759 L159 759 L37 722 L51 656 C96 661 126 664 143 667 L143 355 L252 355 Z " />
<glyph glyph-name="ordmasculine" unicode="&#xba;" horiz-adv-x="399" d="M196 262 C316 262 373 332 373 431 C373 530 318 600 201 600 C85 600 25 528 25 431 C25 330 80 262 196 262 L196 262 Z M263 431 C263 368 242 337 201 337 C150 337 135 371 135 430 C135 493 157 524 201 524 C242 524 263 493 263 431 L263 431 Z " />
<glyph glyph-name="guillemotright" unicode="&#xbb;" horiz-adv-x="493" d="M286 395 L229 355 L332 197 L230 41 L287 -1 L452 178 L452 216 L286 395 Z M100 395 L43 355 L147 197 L44 41 L102 -1 L266 178 L266 216 L100 395 Z " />
<glyph glyph-name="onequarter" unicode="&#xbc;" horiz-adv-x="900" d="M462 166 L462 105 L657 105 L657 -1 L762 -1 L762 105 L820 105 L820 177 L762 177 L762 403 L651 403 L462 166 Z M658 177 L558 177 L652 299 L658 299 L658 177 Z M551 708 L236 -20 L323 -20 L637 708 L551 708 Z M295 265 L295 669 L202 669 L80 632 L94 566 C139 571 169 574 186 577 L186 265 L295 265 Z " />
<glyph glyph-name="onehalf" unicode="&#xbd;" horiz-adv-x="900" d="M814 285 C814 364 759 409 660 409 C604 409 551 392 500 359 L536 292 C573 312 608 322 643 322 C683 322 703 307 703 278 C703 254 683 222 643 181 C603 141 557 102 506 65 L506 -1 L834 -1 L834 74 L749 74 C711 75 682 75 663 75 C764 154 814 224 814 285 L814 285 Z M530 708 L215 -20 L302 -20 L616 708 L530 708 Z M280 265 L280 669 L187 669 L65 632 L79 566 C124 571 154 574 171 577 L171 265 L280 265 Z " />
<glyph glyph-name="threequarters" unicode="&#xbe;" horiz-adv-x="900" d="M494 166 L494 105 L689 105 L689 -1 L794 -1 L794 105 L852 105 L852 177 L794 177 L794 403 L683 403 L494 166 Z M224 593 L226 589 L130 502 L138 450 C155 451 169 452 178 452 C240 452 271 435 271 400 C271 368 244 344 192 344 C155 344 115 351 74 364 L62 331 L48 291 C89 270 140 260 203 260 C304 260 380 312 380 400 C380 464 340 508 272 520 L371 611 C370 618 365 637 357 669 L71 669 L71 593 L224 593 Z M581 708 L266 -20 L353 -20 L667 708 L581 708 Z M690 177 L590 177 L684 299 L690 299 L690 177 Z " />
<glyph glyph-name="questiondown" unicode="&#xbf;" horiz-adv-x="496" d="M259 46 C285 71 304 90 317 104 C330 118 341 136 352 158 C363 180 368 203 368 228 C368 251 365 277 360 304 C348 304 329 303 302 302 L243 299 C247 271 249 254 249 247 C249 240 248 234 247 227 C246 221 243 215 240 208 C235 196 230 188 218 173 C206 158 201 153 184 137 L164 119 C155 111 129 87 118 78 C71 36 48 -14 48 -72 C48 -161 131 -222 262 -222 C333 -222 402 -209 469 -184 L439 -88 C385 -105 335 -114 288 -114 C235 -114 201 -92 201 -49 C201 -9 216 9 259 46 L259 46 Z M291 499 C193 506 191 354 292 361 C337 361 367 390 367 430 C367 470 339 499 291 499 L291 499 Z " />
<glyph glyph-name="Agrave" unicode="&#xc0;" horiz-adv-x="664" d="M428 687 L242 687 L8 0 L155 0 L204 157 L455 157 L503 0 L655 0 L428 687 Z M236 257 L287 433 L329 587 L334 587 L374 438 L425 257 L236 257 Z M395 780 L246 948 L173 869 L346 730 L395 780 Z " />
<glyph glyph-name="Aacute" unicode="&#xc1;" horiz-adv-x="664" d="M428 687 L242 687 L8 0 L155 0 L204 157 L455 157 L503 0 L655 0 L428 687 Z M236 257 L287 433 L329 587 L334 587 L374 438 L425 257 L236 257 Z M439 945 L292 776 L339 727 L515 866 L439 945 Z " />
<glyph glyph-name="Acircumflex" unicode="&#xc2;" horiz-adv-x="664" d="M428 687 L242 687 L8 0 L155 0 L204 157 L455 157 L503 0 L655 0 L428 687 Z M236 257 L287 433 L329 587 L334 587 L374 438 L425 257 L236 257 Z M380 912 L292 912 L138 765 L172 724 L335 816 L500 725 L535 766 L380 912 Z " />
<glyph glyph-name="Atilde" unicode="&#xc3;" horiz-adv-x="664" d="M428 687 L242 687 L8 0 L155 0 L204 157 L455 157 L503 0 L655 0 L428 687 Z M236 257 L287 433 L329 587 L334 587 L374 438 L425 257 L236 257 Z M416 758 C463 758 497 789 518 852 L477 885 L421 844 C406 844 378 850 338 863 C298 876 268 882 249 882 C203 882 169 851 146 790 L187 758 L243 797 C254 797 280 790 319 777 C359 764 391 758 416 758 L416 758 Z " />
<glyph glyph-name="Adieresis" unicode="&#xc4;" horiz-adv-x="664" d="M428 687 L242 687 L8 0 L155 0 L204 157 L455 157 L503 0 L655 0 L428 687 Z M236 257 L287 433 L329 587 L334 587 L374 438 L425 257 L236 257 Z M298 786 C298 823 272 848 227 848 C184 848 159 823 159 786 C159 750 183 724 227 724 C271 724 298 750 298 786 L298 786 Z M509 786 C509 825 483 848 438 848 C397 848 371 823 371 786 C371 750 395 724 438 724 C483 724 509 750 509 786 L509 786 Z " />
<glyph glyph-name="Aring" unicode="&#xc5;" horiz-adv-x="664" d="M428 687 L242 687 L8 0 L155 0 L204 157 L455 157 L503 0 L655 0 L428 687 Z M236 257 L287 433 L329 587 L334 587 L374 438 L425 257 L236 257 Z M335 700 C368 700 397 712 420 735 C443 758 455 787 455 820 C455 853 443 881 420 904 C397 928 369 940 335 940 C300 940 271 928 246 904 C222 881 210 853 210 820 C210 787 222 758 246 735 C271 712 300 700 335 700 L335 700 Z M335 877 C368 877 390 850 390 817 C390 786 367 760 335 760 C299 760 276 785 276 817 C276 850 300 877 335 877 L335 877 Z " />
<glyph glyph-name="AE" unicode="&#xc6;" horiz-adv-x="1039" d="M983 0 L983 103 L667 103 L667 309 L920 309 L920 407 L667 407 L667 585 L971 585 L971 687 L435 687 L8 0 L165 0 L276 180 L520 180 L520 0 L983 0 Z M520 581 L520 280 L333 280 L423 428 L459 488 L494 547 L514 581 L520 581 Z " />
<glyph glyph-name="Ccedilla" unicode="&#xc7;" horiz-adv-x="627" d="M385 701 C122 700 51 502 52 340 C52 151 117 5 342 -9 L266 -108 L283 -134 C314 -134 372 -128 372 -168 C372 -197 336 -216 263 -223 L263 -271 C390 -270 457 -226 457 -159 C457 -110 418 -80 351 -75 C360 -62 376 -40 400 -9 C475 -7 539 5 593 27 L569 129 C514 114 461 107 408 107 C263 107 208 182 208 345 C208 505 273 585 404 585 C452 585 500 578 547 565 L568 673 C509 692 448 701 385 701 L385 701 Z " />
<glyph glyph-name="Egrave" unicode="&#xc8;" horiz-adv-x="606" d="M560 105 L221 105 L221 311 L494 311 L494 409 L221 409 L221 584 L546 584 L546 688 L72 688 L72 0 L560 0 L560 105 Z M407 780 L258 948 L185 869 L358 730 L407 780 Z " />
<glyph glyph-name="Eacute" unicode="&#xc9;" horiz-adv-x="606" d="M560 105 L221 105 L221 311 L494 311 L494 409 L221 409 L221 584 L546 584 L546 688 L72 688 L72 0 L560 0 L560 105 Z M411 947 L264 778 L311 729 L487 868 L411 947 Z " />
<glyph glyph-name="Ecircumflex" unicode="&#xca;" horiz-adv-x="606" d="M560 105 L221 105 L221 311 L494 311 L494 409 L221 409 L221 584 L546 584 L546 688 L72 688 L72 0 L560 0 L560 105 Z M361 919 L273 919 L119 772 L153 731 L316 823 L481 732 L516 773 L361 919 Z " />
<glyph glyph-name="Edieresis" unicode="&#xcb;" horiz-adv-x="606" d="M274 786 C274 823 248 848 203 848 C160 848 135 823 135 786 C135 750 159 724 203 724 C247 724 274 750 274 786 L274 786 Z M485 786 C485 825 459 848 414 848 C373 848 347 823 347 786 C347 750 371 724 414 724 C459 724 485 750 485 786 L485 786 Z M560 105 L221 105 L221 311 L494 311 L494 409 L221 409 L221 584 L546 584 L546 688 L72 688 L72 0 L560 0 L560 105 Z " />
<glyph glyph-name="Igrave" unicode="&#xcc;" horiz-adv-x="308" d="M227 688 L81 688 L81 0 L227 0 L227 688 Z M224 781 L75 949 L2 870 L175 731 L224 781 Z " />
<glyph glyph-name="Iacute" unicode="&#xcd;" horiz-adv-x="308" d="M227 688 L81 688 L81 0 L227 0 L227 688 Z M249 951 L102 782 L149 733 L325 872 L249 951 Z " />
<glyph glyph-name="Icircumflex" unicode="&#xce;" horiz-adv-x="308" d="M197 921 L109 921 L-45 774 L-11 733 L152 825 L317 734 L352 775 L197 921 Z M227 688 L81 688 L81 0 L227 0 L227 688 Z " />
<glyph glyph-name="Idieresis" unicode="&#xcf;" horiz-adv-x="308" d="M121 793 C121 830 95 855 50 855 C7 855 -18 830 -18 793 C-18 757 6 731 50 731 C94 731 121 757 121 793 L121 793 Z M332 793 C332 832 306 855 261 855 C220 855 194 830 194 793 C194 757 218 731 261 731 C306 731 332 757 332 793 L332 793 Z M227 688 L81 688 L81 0 L227 0 L227 688 Z " />
<glyph glyph-name="Eth" unicode="&#xd0;" horiz-adv-x="690" d="M325 0 C440 0 525 39 570 104 C617 171 637 249 637 346 C637 459 613 556 544 621 C499 662 426 688 331 688 L73 688 L73 394 L14 394 L14 321 L73 321 L73 0 L325 0 Z M313 584 C357 584 392 572 427 539 C463 506 484 437 484 341 C484 246 461 180 424 148 C388 117 353 106 313 106 L222 106 L222 321 L345 321 L345 394 L222 394 L222 584 L313 584 Z " />
<glyph glyph-name="Ntilde" unicode="&#xd1;" horiz-adv-x="742" d="M433 354 L221 687 L72 687 L72 0 L214 0 L214 483 C215 483 218 484 219 484 L288 370 L521 0 L669 0 L669 687 L526 687 L526 214 L520 214 L433 354 Z M455 761 C502 761 536 792 557 855 L516 888 L460 847 C445 847 417 853 377 866 C337 879 307 885 288 885 C242 885 208 854 185 793 L226 761 L282 800 C293 800 319 793 358 780 C398 767 430 761 455 761 L455 761 Z " />
<glyph glyph-name="Ograve" unicode="&#xd2;" horiz-adv-x="746" d="M694 344 C694 539 606 700 376 700 C268 700 187 667 133 600 C80 534 53 448 53 342 C53 123 159 -10 376 -10 C478 -10 556 23 611 88 C666 154 694 239 694 344 L694 344 Z M537 342 C537 193 487 97 376 97 C256 97 208 178 208 341 C208 510 264 595 376 595 C483 595 537 511 537 342 L537 342 Z M445 786 L296 954 L223 875 L396 736 L445 786 Z " />
<glyph glyph-name="Oacute" unicode="&#xd3;" horiz-adv-x="746" d="M694 344 C694 539 606 700 376 700 C268 700 187 667 133 600 C80 534 53 448 53 342 C53 123 159 -10 376 -10 C478 -10 556 23 611 88 C666 154 694 239 694 344 L694 344 Z M537 342 C537 193 487 97 376 97 C256 97 208 178 208 341 C208 510 264 595 376 595 C483 595 537 511 537 342 L537 342 Z M472 954 L325 785 L372 736 L548 875 L472 954 Z " />
<glyph glyph-name="Ocircumflex" unicode="&#xd4;" horiz-adv-x="746" d="M694 344 C694 539 606 700 376 700 C268 700 187 667 133 600 C80 534 53 448 53 342 C53 123 159 -10 376 -10 C478 -10 556 23 611 88 C666 154 694 239 694 344 L694 344 Z M537 342 C537 193 487 97 376 97 C256 97 208 178 208 341 C208 510 264 595 376 595 C483 595 537 511 537 342 L537 342 Z M424 919 L336 919 L182 772 L216 731 L379 823 L544 732 L579 773 L424 919 Z " />
<glyph glyph-name="Otilde" unicode="&#xd5;" horiz-adv-x="746" d="M694 344 C694 539 606 700 376 700 C268 700 187 667 133 600 C80 534 53 448 53 342 C53 123 159 -10 376 -10 C478 -10 556 23 611 88 C666 154 694 239 694 344 L694 344 Z M537 342 C537 193 487 97 376 97 C256 97 208 178 208 341 C208 510 264 595 376 595 C483 595 537 511 537 342 L537 342 Z M462 767 C509 767 543 798 564 861 L523 894 L467 853 C452 853 424 859 384 872 C344 885 314 891 295 891 C249 891 215 860 192 799 L233 767 L289 806 C300 806 326 799 365 786 C405 773 437 767 462 767 L462 767 Z " />
<glyph glyph-name="Odieresis" unicode="&#xd6;" horiz-adv-x="746" d="M694 344 C694 539 606 700 376 700 C268 700 187 667 133 600 C80 534 53 448 53 342 C53 123 159 -10 376 -10 C478 -10 556 23 611 88 C666 154 694 239 694 344 L694 344 Z M537 342 C537 193 487 97 376 97 C256 97 208 178 208 341 C208 510 264 595 376 595 C483 595 537 511 537 342 L537 342 Z M339 801 C339 838 313 863 268 863 C225 863 200 838 200 801 C200 765 224 739 268 739 C312 739 339 765 339 801 L339 801 Z M550 801 C550 840 524 863 479 863 C438 863 412 838 412 801 C412 765 436 739 479 739 C524 739 550 765 550 801 L550 801 Z " />
<glyph glyph-name="multiply" unicode="&#xd7;" horiz-adv-x="598" d="M490 170 L364 295 L488 420 L427 481 L303 356 L176 483 L117 424 L244 297 L116 169 L177 109 L305 236 L430 110 L490 170 Z " />
<glyph glyph-name="Oslash" unicode="&#xd8;" horiz-adv-x="734" d="M688 344 C688 453 662 539 610 602 L693 702 L625 702 L573 637 C520 679 453 700 370 700 C142 700 46 539 46 342 C46 233 72 148 124 87 L47 -8 L108 -8 L158 54 C212 11 283 -10 370 -10 C472 -10 550 23 605 88 C660 154 688 239 688 344 L688 344 Z M202 341 C202 510 258 595 370 595 C421 595 460 576 487 537 L224 203 C209 235 202 281 202 341 L202 341 Z M530 342 C530 193 479 97 370 97 C313 97 271 115 244 152 L507 485 C522 449 530 401 530 342 L530 342 Z " />
<glyph glyph-name="Ugrave" unicode="&#xd9;" horiz-adv-x="709" d="M497 688 L498 248 C498 145 445 97 357 97 C261 97 213 147 213 248 L213 688 L67 688 L67 253 C67 78 163 -10 355 -10 C548 -10 641 85 641 253 L642 688 L497 688 Z M428 786 L279 954 L206 875 L379 736 L428 786 Z " />
<glyph glyph-name="Uacute" unicode="&#xda;" horiz-adv-x="709" d="M497 688 L498 248 C498 145 445 97 357 97 C261 97 213 147 213 248 L213 688 L67 688 L67 253 C67 78 163 -10 355 -10 C548 -10 641 85 641 253 L642 688 L497 688 Z M442 954 L295 785 L342 736 L518 875 L442 954 Z " />
<glyph glyph-name="Ucircumflex" unicode="&#xdb;" horiz-adv-x="709" d="M497 688 L498 248 C498 145 445 97 357 97 C261 97 213 147 213 248 L213 688 L67 688 L67 253 C67 78 163 -10 355 -10 C548 -10 641 85 641 253 L642 688 L497 688 Z M399 920 L308 920 L148 776 L183 736 L352 826 L524 737 L560 777 L399 920 Z " />
<glyph glyph-name="Udieresis" unicode="&#xdc;" horiz-adv-x="709" d="M321 793 C321 830 295 855 250 855 C207 855 182 830 182 793 C182 757 206 731 250 731 C294 731 321 757 321 793 L321 793 Z M532 793 C532 832 506 855 461 855 C420 855 394 830 394 793 C394 757 418 731 461 731 C506 731 532 757 532 793 L532 793 Z M497 688 L498 248 C498 145 445 97 357 97 C261 97 213 147 213 248 L213 688 L67 688 L67 253 C67 78 163 -10 355 -10 C548 -10 641 85 641 253 L642 688 L497 688 Z " />
<glyph glyph-name="Yacute" unicode="&#xdd;" horiz-adv-x="626" d="M390 0 L390 264 L616 687 L465 687 L379 516 L346 444 C332 411 321 388 314 373 L308 373 L247 510 L162 687 L8 687 L232 247 L232 0 L390 0 Z M408 939 L261 770 L308 721 L484 860 L408 939 Z " />
<glyph glyph-name="Thorn" unicode="&#xde;" horiz-adv-x="597" d="M569 343 C569 475 486 554 333 554 L220 554 L220 688 L72 688 L72 0 L220 0 L220 129 L345 129 C420 129 476 150 513 193 C550 236 569 286 569 343 L569 343 Z M312 450 C377 450 419 415 419 340 C419 264 376 231 317 231 L220 231 L220 450 L312 450 Z " />
<glyph glyph-name="germandbls" unicode="&#xdf;" horiz-adv-x="657" d="M484 134 C484 102 456 81 415 81 C387 81 353 88 312 101 L288 5 C337 -9 385 -16 432 -16 C555 -16 627 43 627 130 C628 224 555 289 497 329 C458 358 427 385 427 409 C427 428 452 455 477 478 C502 502 527 545 527 589 C527 642 483 733 317 733 C232 733 166 704 134 663 C103 623 90 583 90 547 L90 455 L24 455 L24 375 L90 375 L90 0 L231 0 L231 534 C231 593 257 632 316 632 C373 632 395 599 395 572 C395 520 299 484 299 404 C299 388 305 370 309 357 C314 344 330 324 337 315 C344 306 366 283 373 276 L393 258 C404 249 410 243 412 241 L428 226 C438 217 444 212 446 209 C449 207 453 202 460 194 C479 175 480 161 484 134 L484 134 Z " />
<glyph glyph-name="agrave" unicode="&#xe0;" horiz-adv-x="579" d="M484 330 C484 451 416 501 291 501 C212 501 141 487 78 460 L101 371 C152 388 204 396 257 396 C326 396 348 371 348 311 L348 299 L281 295 L214 291 C105 284 32 230 32 133 C32 76 63 -10 184 -10 C251 -10 307 10 354 51 L356 49 C360 4 387 -10 435 -10 C480 -10 520 -2 555 15 L548 95 L484 95 L484 330 Z M369 589 C358 602 334 629 295 671 C256 713 231 741 220 756 C213 749 199 734 178 710 L140 668 L316 531 L369 589 Z M348 126 C315 97 281 82 247 82 C202 82 180 103 180 145 C180 186 203 208 249 212 L348 220 L348 126 Z " />
<glyph glyph-name="aacute" unicode="&#xe1;" horiz-adv-x="579" d="M484 330 C484 451 416 501 291 501 C212 501 141 487 78 460 L101 371 C152 388 204 396 257 396 C326 396 348 371 348 311 L348 299 L281 295 L214 291 C105 284 32 230 32 133 C32 76 63 -10 184 -10 C251 -10 307 10 354 51 L356 49 C360 4 387 -10 435 -10 C480 -10 520 -2 555 15 L548 95 L484 95 L484 330 Z M359 754 L211 584 L261 532 L435 672 L359 754 Z M348 126 C315 97 281 82 247 82 C202 82 180 103 180 145 C180 186 203 208 249 212 L348 220 L348 126 Z " />
<glyph glyph-name="acircumflex" unicode="&#xe2;" horiz-adv-x="579" d="M484 330 C484 451 416 501 291 501 C212 501 141 487 78 460 L101 371 C152 388 204 396 257 396 C326 396 348 371 348 311 L348 299 L281 295 L214 291 C105 284 32 230 32 133 C32 76 63 -10 184 -10 C251 -10 307 10 354 51 L356 49 C360 4 387 -10 435 -10 C480 -10 520 -2 555 15 L548 95 L484 95 L484 330 Z M322 724 L234 724 L80 570 L113 529 L277 625 L442 530 L478 572 L322 724 Z M348 126 C315 97 281 82 247 82 C202 82 180 103 180 145 C180 186 203 208 249 212 L348 220 L348 126 Z " />
<glyph glyph-name="atilde" unicode="&#xe3;" horiz-adv-x="579" d="M484 330 C484 451 416 501 291 501 C212 501 141 487 78 460 L101 371 C152 388 204 396 257 396 C326 396 348 371 348 311 L348 299 L281 295 L214 291 C105 284 32 230 32 133 C32 76 63 -10 184 -10 C251 -10 307 10 354 51 L356 49 C360 4 387 -10 435 -10 C480 -10 520 -2 555 15 L548 95 L484 95 L484 330 Z M366 568 C413 568 447 599 468 662 L427 695 L371 654 C356 654 328 660 288 673 C248 686 218 692 199 692 C153 692 119 661 96 600 L137 568 L193 607 C204 607 230 600 269 587 C309 574 341 568 366 568 L366 568 Z M348 126 C315 97 281 82 247 82 C202 82 180 103 180 145 C180 186 203 208 249 212 L348 220 L348 126 Z " />
<glyph glyph-name="adieresis" unicode="&#xe4;" horiz-adv-x="579" d="M484 330 C484 451 416 501 291 501 C212 501 141 487 78 460 L101 371 C152 388 204 396 257 396 C326 396 348 371 348 311 L348 299 L281 295 L214 291 C105 284 32 230 32 133 C32 76 63 -10 184 -10 C251 -10 307 10 354 51 L356 49 C360 4 387 -10 435 -10 C480 -10 520 -2 555 15 L548 95 L484 95 L484 330 Z M348 126 C315 97 281 82 247 82 C202 82 180 103 180 145 C180 186 203 208 249 212 L348 220 L348 126 Z M243 623 C243 660 217 685 172 685 C129 685 104 660 104 623 C104 587 128 561 172 561 C216 561 243 587 243 623 L243 623 Z M454 623 C454 662 428 685 383 685 C342 685 316 660 316 623 C316 587 340 561 383 561 C428 561 454 587 454 623 L454 623 Z " />
<glyph glyph-name="aring" unicode="&#xe5;" horiz-adv-x="579" d="M484 330 C484 451 416 501 291 501 C212 501 141 487 78 460 L101 371 C152 388 204 396 257 396 C326 396 348 371 348 311 L348 299 L281 295 L214 291 C105 284 32 230 32 133 C32 76 63 -10 184 -10 C251 -10 307 10 354 51 L356 49 C360 4 387 -10 435 -10 C480 -10 520 -2 555 15 L548 95 L484 95 L484 330 Z M291 548 C324 548 353 560 376 583 C399 606 411 635 411 668 C411 701 399 729 376 752 C353 776 325 788 291 788 C256 788 227 776 202 752 C178 729 166 701 166 668 C166 635 178 606 202 583 C227 560 256 548 291 548 L291 548 Z M348 126 C315 97 281 82 247 82 C202 82 180 103 180 145 C180 186 203 208 249 212 L348 220 L348 126 Z M291 725 C324 725 346 698 346 665 C346 634 323 608 291 608 C255 608 232 633 232 665 C232 698 256 725 291 725 L291 725 Z " />
<glyph glyph-name="ae" unicode="&#xe6;" horiz-adv-x="832" d="M586 503 C521 503 469 479 430 432 C404 478 351 501 271 501 C202 501 135 488 70 461 L95 372 C144 389 196 397 252 397 C324 397 351 375 351 311 L351 291 L208 291 C146 291 101 275 72 243 C43 211 29 174 29 133 C29 97 41 64 66 34 C91 5 132 -10 190 -10 C268 -10 338 14 400 63 C436 16 498 -8 587 -8 C664 -8 730 8 787 39 C784 50 778 67 771 88 L759 125 C705 105 655 95 609 95 C531 95 491 137 490 221 L799 221 L799 263 C799 304 797 338 778 385 C769 408 758 428 743 444 C714 477 658 503 586 503 L586 503 Z M247 81 C200 81 176 104 176 151 C176 183 189 204 216 212 C244 220 261 221 300 221 L350 221 C351 185 356 154 364 127 C333 99 278 81 247 81 L247 81 Z M587 403 C654 403 672 361 672 292 L492 292 C500 359 522 403 587 403 L587 403 Z " />
<glyph glyph-name="ccedilla" unicode="&#xe7;" horiz-adv-x="485" d="M184 246 C184 338 227 392 306 392 C345 392 380 387 413 378 C418 401 426 434 435 478 C390 494 339 502 282 502 C187 502 118 468 85 413 C52 360 39 304 39 240 C39 101 89 11 229 -5 L163 -91 L180 -117 C211 -117 269 -111 269 -151 C269 -180 233 -199 160 -206 L160 -254 C287 -253 354 -209 354 -142 C354 -93 315 -63 248 -58 L285 -8 C356 -6 414 7 461 31 L434 126 C385 109 341 101 302 101 C217 101 184 151 184 246 L184 246 Z " />
<glyph glyph-name="egrave" unicode="&#xe8;" horiz-adv-x="544" d="M280 504 C188 504 120 469 87 414 C54 359 40 305 40 245 C40 172 53 117 88 68 C123 20 190 -8 286 -8 C366 -8 435 8 494 41 L465 129 C410 108 357 98 307 98 C220 98 184 136 184 213 L505 213 L505 264 C505 308 503 338 486 386 C477 410 465 430 450 445 C421 477 360 504 280 504 L280 504 Z M286 413 C344 413 374 376 375 301 L186 301 C192 376 225 413 286 413 L286 413 Z M369 589 C358 602 334 629 295 671 C256 713 231 741 220 756 C213 749 199 734 178 710 L140 668 L316 531 L369 589 Z " />
<glyph glyph-name="eacute" unicode="&#xe9;" horiz-adv-x="544" d="M280 504 C188 504 120 469 87 414 C54 359 40 305 40 245 C40 172 53 117 88 68 C123 20 190 -8 286 -8 C366 -8 435 8 494 41 L465 129 C410 108 357 98 307 98 C220 98 184 136 184 213 L505 213 L505 264 C505 308 503 338 486 386 C477 410 465 430 450 445 C421 477 360 504 280 504 L280 504 Z M286 413 C344 413 374 376 375 301 L186 301 C192 376 225 413 286 413 L286 413 Z M361 754 L213 584 L263 532 L437 672 L361 754 Z " />
<glyph glyph-name="ecircumflex" unicode="&#xea;" horiz-adv-x="544" d="M280 504 C188 504 120 469 87 414 C54 359 40 305 40 245 C40 172 53 117 88 68 C123 20 190 -8 286 -8 C366 -8 435 8 494 41 L465 129 C410 108 357 98 307 98 C220 98 184 136 184 213 L505 213 L505 264 C505 308 503 338 486 386 C477 410 465 430 450 445 C421 477 360 504 280 504 L280 504 Z M286 413 C344 413 374 376 375 301 L186 301 C192 376 225 413 286 413 L286 413 Z M333 724 L245 724 L91 570 L124 529 L288 625 L453 530 L489 572 L333 724 Z " />
<glyph glyph-name="edieresis" unicode="&#xeb;" horiz-adv-x="544" d="M280 504 C188 504 120 469 87 414 C54 359 40 305 40 245 C40 172 53 117 88 68 C123 20 190 -8 286 -8 C366 -8 435 8 494 41 L465 129 C410 108 357 98 307 98 C220 98 184 136 184 213 L505 213 L505 264 C505 308 503 338 486 386 C477 410 465 430 450 445 C421 477 360 504 280 504 L280 504 Z M286 413 C344 413 374 376 375 301 L186 301 C192 376 225 413 286 413 L286 413 Z M250 623 C250 660 224 685 179 685 C136 685 111 660 111 623 C111 587 135 561 179 561 C223 561 250 587 250 623 L250 623 Z M461 623 C461 662 435 685 390 685 C349 685 323 660 323 623 C323 587 347 561 390 561 C435 561 461 587 461 623 L461 623 Z " />
<glyph glyph-name="igrave" unicode="&#xec;" horiz-adv-x="299" d="M226 589 C215 602 191 629 152 671 C113 713 88 741 77 756 C70 749 56 734 35 710 L-3 668 L173 531 L226 589 Z M220 491 L77 491 L77 0 L220 0 L220 491 Z " />
<glyph glyph-name="iacute" unicode="&#xed;" horiz-adv-x="299" d="M220 491 L77 491 L77 0 L220 0 L220 491 Z M243 754 L95 584 L145 532 L319 672 L243 754 Z " />
<glyph glyph-name="icircumflex" unicode="&#xee;" horiz-adv-x="299" d="M192 724 L104 724 L-50 570 L-17 529 L147 625 L312 530 L348 572 L192 724 Z M220 491 L77 491 L77 0 L220 0 L220 491 Z " />
<glyph glyph-name="idieresis" unicode="&#xef;" horiz-adv-x="299" d="M115 625 C115 662 89 687 44 687 C1 687 -24 662 -24 625 C-24 589 0 563 44 563 C88 563 115 589 115 625 L115 625 Z M326 625 C326 664 300 687 255 687 C214 687 188 662 188 625 C188 589 212 563 255 563 C300 563 326 589 326 625 L326 625 Z M220 491 L77 491 L77 0 L220 0 L220 491 Z " />
<glyph glyph-name="eth" unicode="&#xf0;" horiz-adv-x="578" d="M359 658 C317 692 271 720 220 741 L182 671 C222 645 253 622 274 601 L193 548 L221 507 L310 566 C342 529 365 485 380 436 C349 453 313 461 270 461 C201 461 146 437 104 390 C62 343 41 287 41 222 C41 115 94 -10 281 -10 C401 -10 468 46 502 116 C526 167 535 211 536 263 C544 412 498 534 399 627 L474 676 L445 717 L359 658 Z M290 366 C326 366 359 356 390 336 C395 305 398 279 398 256 C398 216 393 182 377 146 C362 111 331 88 287 88 C217 88 182 135 182 228 C182 265 191 298 208 325 C225 352 253 366 290 366 L290 366 Z " />
<glyph glyph-name="ntilde" unicode="&#xf1;" horiz-adv-x="569" d="M518 334 C518 427 494 503 364 503 C308 503 250 483 191 444 L187 446 L185 491 L49 491 L49 0 L193 0 L193 355 C234 380 271 392 305 392 C362 392 375 363 375 304 L375 0 L518 0 L518 334 Z M357 576 C404 576 438 607 459 670 L418 703 L362 662 C347 662 319 668 279 681 C239 694 209 700 190 700 C144 700 110 669 87 608 L128 576 L184 615 C195 615 221 608 260 595 C300 582 332 576 357 576 L357 576 Z " />
<glyph glyph-name="ograve" unicode="&#xf2;" horiz-adv-x="577" d="M285 -10 C372 -10 436 14 476 61 C517 109 537 171 537 246 C537 321 517 383 478 430 C439 478 376 502 291 502 C206 502 142 478 101 430 C60 382 40 320 40 245 C40 168 59 107 98 60 C137 13 200 -10 285 -10 L285 -10 Z M389 245 C389 142 356 91 291 91 C211 91 187 146 187 245 C187 349 222 401 291 401 C356 401 389 349 389 245 L389 245 Z M370 589 C359 602 335 629 296 671 C257 713 232 741 221 756 C214 749 200 734 179 710 L141 668 L317 531 L370 589 Z " />
<glyph glyph-name="oacute" unicode="&#xf3;" horiz-adv-x="577" d="M285 -10 C372 -10 436 14 476 61 C517 109 537 171 537 246 C537 321 517 383 478 430 C439 478 376 502 291 502 C206 502 142 478 101 430 C60 382 40 320 40 245 C40 168 59 107 98 60 C137 13 200 -10 285 -10 L285 -10 Z M389 245 C389 142 356 91 291 91 C211 91 187 146 187 245 C187 349 222 401 291 401 C356 401 389 349 389 245 L389 245 Z M385 754 L237 584 L287 532 L461 672 L385 754 Z " />
<glyph glyph-name="ocircumflex" unicode="&#xf4;" horiz-adv-x="577" d="M285 -10 C372 -10 436 14 476 61 C517 109 537 171 537 246 C537 321 517 383 478 430 C439 478 376 502 291 502 C206 502 142 478 101 430 C60 382 40 320 40 245 C40 168 59 107 98 60 C137 13 200 -10 285 -10 L285 -10 Z M389 245 C389 142 356 91 291 91 C211 91 187 146 187 245 C187 349 222 401 291 401 C356 401 389 349 389 245 L389 245 Z M336 724 L248 724 L94 570 L127 529 L291 625 L456 530 L492 572 L336 724 Z " />
<glyph glyph-name="otilde" unicode="&#xf5;" horiz-adv-x="577" d="M285 -10 C372 -10 436 14 476 61 C517 109 537 171 537 246 C537 321 517 383 478 430 C439 478 376 502 291 502 C206 502 142 478 101 430 C60 382 40 320 40 245 C40 168 59 107 98 60 C137 13 200 -10 285 -10 L285 -10 Z M389 245 C389 142 356 91 291 91 C211 91 187 146 187 245 C187 349 222 401 291 401 C356 401 389 349 389 245 L389 245 Z M375 563 C422 563 456 594 477 657 L436 690 L380 649 C365 649 337 655 297 668 C257 681 227 687 208 687 C162 687 128 656 105 595 L146 563 L202 602 C213 602 239 595 278 582 C318 569 350 563 375 563 L375 563 Z " />
<glyph glyph-name="odieresis" unicode="&#xf6;" horiz-adv-x="577" d="M285 -10 C372 -10 436 14 476 61 C517 109 537 171 537 246 C537 321 517 383 478 430 C439 478 376 502 291 502 C206 502 142 478 101 430 C60 382 40 320 40 245 C40 168 59 107 98 60 C137 13 200 -10 285 -10 L285 -10 Z M389 245 C389 142 356 91 291 91 C211 91 187 146 187 245 C187 349 222 401 291 401 C356 401 389 349 389 245 L389 245 Z M255 623 C255 660 229 685 184 685 C141 685 116 660 116 623 C116 587 140 561 184 561 C228 561 255 587 255 623 L255 623 Z M466 623 C466 662 440 685 395 685 C354 685 328 660 328 623 C328 587 352 561 395 561 C440 561 466 587 466 623 L466 623 Z " />
<glyph glyph-name="divide" unicode="&#xf7;" horiz-adv-x="590" d="M361 475 C361 511 332 540 295 540 C259 540 229 511 229 475 C229 439 259 408 296 408 C331 408 361 438 361 475 L361 475 Z M504 344 L86 344 L86 261 L504 261 L504 344 Z M361 131 C361 168 332 196 295 196 C259 196 229 167 229 131 C229 95 259 65 296 65 C331 65 361 95 361 131 L361 131 Z " />
<glyph glyph-name="oslash" unicode="&#xf8;" horiz-adv-x="566" d="M531 246 C531 325 511 387 472 432 L501 466 L531 501 L479 501 C476 497 470 489 459 477 L442 457 C401 487 349 502 285 502 C200 502 137 478 96 430 C55 382 35 320 35 245 C35 163 54 101 93 58 L35 -7 L90 -7 L123 33 C162 5 214 -9 279 -9 C367 -9 431 15 471 62 C511 109 531 171 531 246 L531 246 Z M285 91 C252 91 226 101 209 122 L288 221 C328 270 355 305 370 325 C379 306 384 279 384 245 C384 142 351 91 285 91 L285 91 Z M285 400 C316 400 340 389 355 366 C341 347 314 314 274 265 C235 217 208 184 194 165 C186 183 182 210 182 246 C182 349 216 400 285 400 L285 400 Z " />
<glyph glyph-name="ugrave" unicode="&#xf9;" horiz-adv-x="558" d="M199 -11 C260 -11 315 11 366 55 L370 53 L374 0 L507 0 L507 492 C491 492 467 492 435 491 L364 491 L364 145 C329 114 294 99 259 99 C204 99 192 131 192 187 L192 491 L49 491 L49 156 C49 102 59 61 79 32 C100 3 140 -11 199 -11 L199 -11 Z M369 589 C358 602 334 629 295 671 C256 713 231 741 220 756 C213 749 199 734 178 710 L140 668 L316 531 L369 589 Z " />
<glyph glyph-name="uacute" unicode="&#xfa;" horiz-adv-x="558" d="M199 -11 C260 -11 315 11 366 55 L370 53 L374 0 L507 0 L507 492 C491 492 467 492 435 491 L364 491 L364 145 C329 114 294 99 259 99 C204 99 192 131 192 187 L192 491 L49 491 L49 156 C49 102 59 61 79 32 C100 3 140 -11 199 -11 L199 -11 Z M371 754 L223 584 L273 532 L447 672 L371 754 Z " />
<glyph glyph-name="ucircumflex" unicode="&#xfb;" horiz-adv-x="558" d="M199 -11 C260 -11 315 11 366 55 L370 53 L374 0 L507 0 L507 492 C491 492 467 492 435 491 L364 491 L364 145 C329 114 294 99 259 99 C204 99 192 131 192 187 L192 491 L49 491 L49 156 C49 102 59 61 79 32 C100 3 140 -11 199 -11 L199 -11 Z M321 724 L233 724 L79 570 L112 529 L276 625 L441 530 L477 572 L321 724 Z " />
<glyph glyph-name="udieresis" unicode="&#xfc;" horiz-adv-x="558" d="M199 -11 C260 -11 315 11 366 55 L370 53 L374 0 L507 0 L507 492 C491 492 467 492 435 491 L364 491 L364 145 C329 114 294 99 259 99 C204 99 192 131 192 187 L192 491 L49 491 L49 156 C49 102 59 61 79 32 C100 3 140 -11 199 -11 L199 -11 Z M245 625 C245 662 219 687 174 687 C131 687 106 662 106 625 C106 589 130 563 174 563 C218 563 245 589 245 625 L245 625 Z M456 625 C456 664 430 687 385 687 C344 687 318 662 318 625 C318 589 342 563 385 563 C430 563 456 589 456 625 L456 625 Z " />
<glyph glyph-name="yacute" unicode="&#xfd;" horiz-adv-x="536" d="M238 194 C231 217 218 266 197 341 L156 491 L14 491 L166 11 L230 11 L210 -51 C195 -98 174 -112 129 -112 C122 -112 99 -109 58 -103 L38 -198 C86 -211 127 -217 160 -217 C245 -217 302 -176 329 -93 L526 491 L382 491 L296 197 C287 165 277 129 268 89 L261 89 L238 194 Z M351 754 L203 584 L253 532 L427 672 L351 754 Z " />
<glyph glyph-name="thorn" unicode="&#xfe;" horiz-adv-x="575" d="M191 -208 L191 -94 C192 -43 192 -6 192 19 C230 0 273 -10 322 -10 C469 -10 534 89 534 249 C534 416 469 499 339 499 C284 499 235 480 190 442 L186 444 L186 687 L49 687 L49 -208 L191 -208 Z M192 359 C216 378 265 396 293 396 C354 396 390 362 390 254 C390 147 357 93 291 93 C252 93 219 102 192 120 L192 359 Z " />
<glyph glyph-name="ydieresis" unicode="&#xff;" horiz-adv-x="536" d="M238 194 C231 217 218 266 197 341 L156 491 L14 491 L166 11 L230 11 L210 -51 C195 -98 174 -112 129 -112 C122 -112 99 -109 58 -103 L38 -198 C86 -211 127 -217 160 -217 C245 -217 302 -176 329 -93 L526 491 L382 491 L296 197 C287 165 277 129 268 89 L261 89 L238 194 Z M236 623 C236 660 210 685 165 685 C122 685 97 660 97 623 C97 587 121 561 165 561 C209 561 236 587 236 623 L236 623 Z M447 623 C447 662 421 685 376 685 C335 685 309 660 309 623 C309 587 333 561 376 561 C421 561 447 587 447 623 L447 623 Z " />
<glyph glyph-name="Amacron" unicode="&#x100;" horiz-adv-x="664" d="M428 687 L242 687 L8 0 L155 0 L204 157 L455 157 L503 0 L655 0 L428 687 Z M236 257 L287 433 L329 587 L334 587 L374 438 L425 257 L236 257 Z M512 748 L512 839 L158 839 L158 748 L512 748 Z " />
<glyph glyph-name="amacron" unicode="&#x101;" horiz-adv-x="579" d="M484 330 C484 451 416 501 291 501 C212 501 141 487 78 460 L101 371 C152 388 204 396 257 396 C326 396 348 371 348 311 L348 299 L281 295 L214 291 C105 284 32 230 32 133 C32 76 63 -10 184 -10 C251 -10 307 10 354 51 L356 49 C360 4 387 -10 435 -10 C480 -10 520 -2 555 15 L548 95 L484 95 L484 330 Z M462 583 L462 674 L99 674 L99 583 L462 583 Z M348 126 C315 97 281 82 247 82 C202 82 180 103 180 145 C180 186 203 208 249 212 L348 220 L348 126 Z " />
<glyph glyph-name="Abreve" unicode="&#x102;" horiz-adv-x="664" d="M428 687 L242 687 L8 0 L155 0 L204 157 L455 157 L503 0 L655 0 L428 687 Z M236 257 L287 433 L329 587 L334 587 L374 438 L425 257 L236 257 Z M329 732 C403 732 467 775 522 861 L484 899 C429 846 379 820 333 820 C294 820 243 852 203 905 L145 861 C202 775 263 732 329 732 L329 732 Z " />
<glyph glyph-name="abreve" unicode="&#x103;" horiz-adv-x="579" d="M484 330 C484 451 416 501 291 501 C212 501 141 487 78 460 L101 371 C152 388 204 396 257 396 C326 396 348 371 348 311 L348 299 L281 295 L214 291 C105 284 32 230 32 133 C32 76 63 -10 184 -10 C251 -10 307 10 354 51 L356 49 C360 4 387 -10 435 -10 C480 -10 520 -2 555 15 L548 95 L484 95 L484 330 Z M277 547 C342 547 416 587 475 678 L432 717 C381 669 331 644 312 641 C303 640 293 639 280 639 C241 639 191 669 151 724 L91 679 C149 591 211 547 277 547 L277 547 Z M348 126 C315 97 281 82 247 82 C202 82 180 103 180 145 C180 186 203 208 249 212 L348 220 L348 126 Z " />
<glyph glyph-name="Aogonek" unicode="&#x104;" horiz-adv-x="664" d="M428 687 L242 687 L8 0 L155 0 L204 157 L455 157 L500 9 C447 -38 421 -89 421 -144 C421 -195 459 -225 528 -225 C571 -225 611 -215 649 -195 L637 -149 C605 -156 581 -160 566 -160 C531 -160 513 -145 513 -114 C513 -77 526 -39 553 0 L655 0 L428 687 Z M236 257 L287 433 L329 587 L334 587 L374 438 L425 257 L236 257 Z " />
<glyph glyph-name="aogonek" unicode="&#x105;" horiz-adv-x="579" d="M484 330 C484 451 416 501 291 501 C212 501 141 487 78 460 L101 371 C152 388 204 396 257 396 C326 396 348 371 348 311 L348 299 L281 295 L214 291 C105 284 32 230 32 133 C32 76 63 -10 184 -10 C251 -10 307 10 354 51 L356 49 C359 20 372 2 395 -5 C356 -48 337 -92 337 -138 C337 -189 375 -219 444 -219 C487 -219 527 -209 565 -189 L553 -143 C521 -150 497 -154 482 -154 C447 -154 429 -139 429 -108 C429 -77 439 -44 459 -9 C495 -6 527 2 555 15 L548 95 L484 95 L484 330 Z M348 126 C315 97 281 82 247 82 C202 82 180 103 180 145 C180 186 203 208 249 212 L348 220 L348 126 Z " />
<glyph glyph-name="Cacute" unicode="&#x106;" horiz-adv-x="627" d="M385 701 C122 700 51 502 52 340 C52 236 71 159 119 92 C167 27 254 -10 377 -10 C459 -10 531 2 593 27 L569 129 C514 114 461 107 408 107 C263 107 208 182 208 345 C208 505 273 585 404 585 C452 585 500 578 547 565 L568 673 C509 692 448 701 385 701 L385 701 Z M457 954 L310 785 L357 736 L533 875 L457 954 Z " />
<glyph glyph-name="cacute" unicode="&#x107;" horiz-adv-x="485" d="M184 246 C184 338 227 392 306 392 C345 392 380 387 413 378 C418 401 426 434 435 478 C390 494 339 502 282 502 C187 502 118 468 85 413 C52 360 39 304 39 240 C39 104 88 -8 276 -8 C349 -8 410 5 461 31 L434 126 C385 109 341 101 302 101 C217 101 184 151 184 246 L184 246 Z M329 754 L181 584 L231 532 L405 672 L329 754 Z " />
<glyph glyph-name="Ccircumflex" unicode="&#x108;" horiz-adv-x="627" d="M385 701 C122 700 51 502 52 340 C52 236 71 159 119 92 C167 27 254 -10 377 -10 C459 -10 531 2 593 27 L569 129 C514 114 461 107 408 107 C263 107 208 182 208 345 C208 505 273 585 404 585 C452 585 500 578 547 565 L568 673 C509 692 448 701 385 701 L385 701 Z M406 924 L318 924 L164 777 L198 736 L361 828 L526 737 L561 778 L406 924 Z " />
<glyph glyph-name="ccircumflex" unicode="&#x109;" horiz-adv-x="485" d="M184 246 C184 338 227 392 306 392 C345 392 380 387 413 378 C418 401 426 434 435 478 C390 494 339 502 282 502 C187 502 118 468 85 413 C52 360 39 304 39 240 C39 104 88 -8 276 -8 C349 -8 410 5 461 31 L434 126 C385 109 341 101 302 101 C217 101 184 151 184 246 L184 246 Z M315 724 L227 724 L73 570 L106 529 L270 625 L435 530 L471 572 L315 724 Z " />
<glyph glyph-name="Cdotaccent" unicode="&#x10a;" horiz-adv-x="627" d="M385 701 C122 700 51 502 52 340 C52 236 71 159 119 92 C167 27 254 -10 377 -10 C459 -10 531 2 593 27 L569 129 C514 114 461 107 408 107 C263 107 208 182 208 345 C208 505 273 585 404 585 C452 585 500 578 547 565 L568 673 C509 692 448 701 385 701 L385 701 Z M431 832 C431 879 400 909 347 909 C295 909 267 879 267 832 C267 787 296 756 347 756 C399 756 431 788 431 832 L431 832 Z " />
<glyph glyph-name="cdotaccent" unicode="&#x10b;" horiz-adv-x="485" d="M184 246 C184 338 227 392 306 392 C345 392 380 387 413 378 C418 401 426 434 435 478 C390 494 339 502 282 502 C187 502 118 468 85 413 C52 360 39 304 39 240 C39 104 88 -8 276 -8 C349 -8 410 5 461 31 L434 126 C385 109 341 101 302 101 C217 101 184 151 184 246 L184 246 Z M335 641 C335 685 307 715 260 715 C215 715 188 685 188 641 C188 597 215 567 260 567 C307 567 335 598 335 641 L335 641 Z " />
<glyph glyph-name="Ccaron" unicode="&#x10c;" horiz-adv-x="627" d="M385 701 C122 700 51 502 52 340 C52 236 71 159 119 92 C167 27 254 -10 377 -10 C459 -10 531 2 593 27 L569 129 C514 114 461 107 408 107 C263 107 208 182 208 345 C208 505 273 585 404 585 C452 585 500 578 547 565 L568 673 C509 692 448 701 385 701 L385 701 Z M347 830 L184 922 L150 883 L304 736 L391 736 L547 881 L512 923 L347 830 Z " />
<glyph glyph-name="ccaron" unicode="&#x10d;" horiz-adv-x="485" d="M184 246 C184 338 227 392 306 392 C345 392 380 387 413 378 C418 401 426 434 435 478 C390 494 339 502 282 502 C187 502 118 468 85 413 C52 360 39 304 39 240 C39 104 88 -8 276 -8 C349 -8 410 5 461 31 L434 126 C385 109 341 101 302 101 C217 101 184 151 184 246 L184 246 Z M269 641 L104 738 L71 698 L226 543 L313 543 L469 697 L433 738 L269 641 Z " />
<glyph glyph-name="Dcaron" unicode="&#x10e;" horiz-adv-x="690" d="M325 0 C440 0 525 39 570 104 C617 171 637 249 637 346 C637 459 613 556 544 621 C499 662 426 688 331 688 L73 688 L73 0 L325 0 Z M313 584 C357 584 392 572 427 539 C463 506 484 437 484 341 C484 246 461 180 424 148 C388 117 353 106 313 106 L222 106 L222 584 L313 584 Z M310 830 L147 922 L113 883 L267 736 L354 736 L510 881 L475 923 L310 830 Z " />
<glyph glyph-name="dcaron" unicode="&#x10f;" horiz-adv-x="731" d="M251 503 C103 503 39 399 39 235 C39 74 104 -7 234 -7 C291 -7 342 11 385 46 C386 46 387 45 388 44 L391 0 L524 0 L524 715 L381 715 L381 472 C346 493 302 503 251 503 L251 503 Z M381 130 C357 113 308 93 280 93 C219 93 183 128 183 236 C183 345 216 399 282 399 C319 399 352 390 381 372 L381 130 Z M587 682 C587 649 602 630 633 624 C631 601 617 578 590 555 L621 516 C682 545 730 607 731 668 C731 711 705 745 658 745 C617 745 587 717 587 682 L587 682 Z " />
<glyph glyph-name="Dcroat" unicode="&#x110;" horiz-adv-x="690" d="M325 0 C440 0 525 39 570 104 C617 171 637 249 637 346 C637 459 613 556 544 621 C499 662 426 688 331 688 L73 688 L73 394 L14 394 L14 321 L73 321 L73 0 L325 0 Z M313 584 C357 584 392 572 427 539 C463 506 484 437 484 341 C484 246 461 180 424 148 C388 117 353 106 313 106 L222 106 L222 321 L345 321 L345 394 L222 394 L222 584 L313 584 Z " />
<glyph glyph-name="dslash" unicode="&#x111;" horiz-adv-x="575" d="M388 44 C389 32 391 1 391 0 L524 0 L524 544 L585 544 L585 598 L524 598 L524 715 L381 715 L381 598 L247 598 L247 544 L381 544 L381 455 C337 473 292 482 245 482 C102 482 39 381 39 225 C39 70 104 -7 234 -7 C291 -7 342 11 385 46 C386 46 387 45 388 44 L388 44 Z M381 130 C370 121 354 112 333 104 C312 97 295 93 280 93 C219 93 183 125 183 226 C183 327 216 378 282 378 C319 378 352 369 381 351 L381 130 Z " />
<glyph glyph-name="Emacron" unicode="&#x112;" horiz-adv-x="606" d="M560 105 L221 105 L221 311 L494 311 L494 409 L221 409 L221 584 L546 584 L546 688 L72 688 L72 0 L560 0 L560 105 Z M493 748 L493 839 L139 839 L139 748 L493 748 Z " />
<glyph glyph-name="emacron" unicode="&#x113;" horiz-adv-x="544" d="M280 504 C188 504 120 469 87 414 C54 359 40 305 40 245 C40 172 53 117 88 68 C123 20 190 -8 286 -8 C366 -8 435 8 494 41 L465 129 C410 108 357 98 307 98 C220 98 184 136 184 213 L505 213 L505 264 C505 308 503 338 486 386 C477 410 465 430 450 445 C421 477 360 504 280 504 L280 504 Z M286 413 C344 413 374 376 375 301 L186 301 C192 376 225 413 286 413 L286 413 Z M465 583 L465 674 L102 674 L102 583 L465 583 Z " />
<glyph glyph-name="Ebreve" unicode="&#x114;" horiz-adv-x="606" d="M560 105 L221 105 L221 311 L494 311 L494 409 L221 409 L221 584 L546 584 L546 688 L72 688 L72 0 L560 0 L560 105 Z M308 730 C382 730 446 773 501 859 L463 897 C408 844 358 818 312 818 C273 818 222 850 182 903 L124 859 C181 773 242 730 308 730 L308 730 Z " />
<glyph glyph-name="ebreve" unicode="&#x115;" horiz-adv-x="544" d="M280 504 C188 504 120 469 87 414 C54 359 40 305 40 245 C40 172 53 117 88 68 C123 20 190 -8 286 -8 C366 -8 435 8 494 41 L465 129 C410 108 357 98 307 98 C220 98 184 136 184 213 L505 213 L505 264 C505 308 503 338 486 386 C477 410 465 430 450 445 C421 477 360 504 280 504 L280 504 Z M286 413 C344 413 374 376 375 301 L186 301 C192 376 225 413 286 413 L286 413 Z M279 547 C344 547 418 587 477 678 L434 717 C383 669 333 644 314 641 C305 640 295 639 282 639 C243 639 193 669 153 724 L93 679 C151 591 213 547 279 547 L279 547 Z " />
<glyph glyph-name="Edotaccent" unicode="&#x116;" horiz-adv-x="606" d="M560 105 L221 105 L221 311 L494 311 L494 409 L221 409 L221 584 L546 584 L546 688 L72 688 L72 0 L560 0 L560 105 Z M412 827 C412 874 381 904 328 904 C276 904 248 874 248 827 C248 782 277 751 328 751 C380 751 412 783 412 827 L412 827 Z " />
<glyph glyph-name="edotaccent" unicode="&#x117;" horiz-adv-x="544" d="M280 504 C188 504 120 469 87 414 C54 359 40 305 40 245 C40 172 53 117 88 68 C123 20 190 -8 286 -8 C366 -8 435 8 494 41 L465 129 C410 108 357 98 307 98 C220 98 184 136 184 213 L505 213 L505 264 C505 308 503 338 486 386 C477 410 465 430 450 445 C421 477 360 504 280 504 L280 504 Z M286 413 C344 413 374 376 375 301 L186 301 C192 376 225 413 286 413 L286 413 Z M364 641 C364 688 333 718 280 718 C228 718 200 688 200 641 C200 596 229 565 280 565 C332 565 364 597 364 641 L364 641 Z " />
<glyph glyph-name="Eogonek" unicode="&#x118;" horiz-adv-x="606" d="M560 105 L221 105 L221 311 L494 311 L494 409 L221 409 L221 584 L546 584 L546 688 L72 688 L72 0 L465 0 C421 -44 399 -91 399 -141 C399 -192 437 -222 506 -222 C549 -222 589 -212 627 -192 L615 -146 C583 -153 559 -157 544 -157 C509 -157 491 -142 491 -111 C491 -74 504 -37 529 0 L560 0 L560 105 Z " />
<glyph glyph-name="eogonek" unicode="&#x119;" horiz-adv-x="544" d="M280 504 C188 504 120 469 87 414 C54 359 40 305 40 245 C40 172 53 117 88 68 C123 20 190 -8 286 -8 C305 -8 323 -7 342 -5 C317 -40 305 -75 305 -111 C305 -162 343 -192 412 -192 C455 -192 495 -182 533 -162 L521 -116 C489 -123 465 -127 450 -127 C415 -127 397 -112 397 -81 C397 -52 406 -21 424 11 C451 20 475 30 494 41 L465 129 C410 108 357 98 307 98 C220 98 184 136 184 213 L505 213 L505 264 C505 308 503 338 486 386 C477 410 465 430 450 445 C421 477 360 504 280 504 L280 504 Z M286 413 C344 413 374 376 375 301 L186 301 C192 376 225 413 286 413 L286 413 Z " />
<glyph glyph-name="Ecaron" unicode="&#x11a;" horiz-adv-x="606" d="M560 105 L221 105 L221 311 L494 311 L494 409 L221 409 L221 584 L546 584 L546 688 L72 688 L72 0 L560 0 L560 105 Z M305 825 L142 917 L108 878 L262 731 L349 731 L505 876 L470 918 L305 825 Z " />
<glyph glyph-name="ecaron" unicode="&#x11b;" horiz-adv-x="544" d="M280 504 C188 504 120 469 87 414 C54 359 40 305 40 245 C40 172 53 117 88 68 C123 20 190 -8 286 -8 C366 -8 435 8 494 41 L465 129 C410 108 357 98 307 98 C220 98 184 136 184 213 L505 213 L505 264 C505 308 503 338 486 386 C477 410 465 430 450 445 C421 477 360 504 280 504 L280 504 Z M286 413 C344 413 374 376 375 301 L186 301 C192 376 225 413 286 413 L286 413 Z M276 641 L111 738 L78 698 L233 543 L320 543 L476 697 L440 738 L276 641 Z " />
<glyph glyph-name="Gcircumflex" unicode="&#x11c;" horiz-adv-x="667" d="M399 701 C231 701 139 629 94 537 C62 473 52 411 52 342 C52 107 160 -10 375 -10 C456 -10 534 3 609 28 L609 363 L474 363 L474 118 C447 111 416 107 383 107 C258 107 208 187 208 334 C208 503 277 587 416 587 C464 587 514 580 567 567 L588 673 C527 692 464 701 399 701 L399 701 Z M414 922 L326 922 L172 775 L206 734 L369 826 L534 735 L569 776 L414 922 Z " />
<glyph glyph-name="gcircumflex" unicode="&#x11d;" horiz-adv-x="597" d="M118 191 C69 174 45 144 45 101 C45 64 63 40 99 29 C63 9 37 -31 37 -78 C37 -171 114 -218 267 -218 C459 -218 552 -147 552 -48 C552 49 486 98 355 98 L211 98 C185 98 172 106 172 122 C172 143 192 153 233 153 L290 154 C355 154 409 169 452 198 C495 228 516 270 516 325 C516 363 507 393 490 415 L493 420 L563 420 L563 492 L387 492 C360 500 325 504 283 504 C220 504 167 488 123 457 C80 426 58 381 58 320 C58 260 79 218 120 195 L118 191 Z M326 12 C380 12 407 -9 407 -52 C407 -96 366 -123 287 -123 C202 -123 175 -96 175 -52 C175 -27 195 3 218 12 L326 12 Z M376 326 C376 270 337 242 280 242 C228 242 198 273 198 325 C198 378 227 412 286 412 C349 412 376 375 376 326 L376 326 Z M327 724 L239 724 L85 570 L118 529 L282 625 L447 530 L483 572 L327 724 Z " />
<glyph glyph-name="Gbreve" unicode="&#x11e;" horiz-adv-x="667" d="M399 701 C231 701 139 629 94 537 C62 473 52 411 52 342 C52 107 160 -10 375 -10 C456 -10 534 3 609 28 L609 363 L474 363 L474 118 C447 111 416 107 383 107 C258 107 208 187 208 334 C208 503 277 587 416 587 C464 587 514 580 567 567 L588 673 C527 692 464 701 399 701 L399 701 Z M360 735 C434 735 498 778 553 864 L515 902 C460 849 410 823 364 823 C325 823 274 855 234 908 L176 864 C233 778 294 735 360 735 L360 735 Z " />
<glyph glyph-name="gbreve" unicode="&#x11f;" horiz-adv-x="597" d="M118 191 C69 174 45 144 45 101 C45 64 63 40 99 29 C63 9 37 -31 37 -78 C37 -171 114 -218 267 -218 C459 -218 552 -147 552 -48 C552 49 486 98 355 98 L211 98 C185 98 172 106 172 122 C172 143 192 153 233 153 L290 154 C355 154 409 169 452 198 C495 228 516 270 516 325 C516 363 507 393 490 415 L493 420 L563 420 L563 492 L387 492 C360 500 325 504 283 504 C220 504 167 488 123 457 C80 426 58 381 58 320 C58 260 79 218 120 195 L118 191 Z M326 12 C380 12 407 -9 407 -52 C407 -96 366 -123 287 -123 C202 -123 175 -96 175 -52 C175 -27 195 3 218 12 L326 12 Z M376 326 C376 270 337 242 280 242 C228 242 198 273 198 325 C198 378 227 412 286 412 C349 412 376 375 376 326 L376 326 Z M283 547 C348 547 422 587 481 678 L438 717 C387 669 337 644 318 641 C309 640 299 639 286 639 C247 639 197 669 157 724 L97 679 C155 591 217 547 283 547 L283 547 Z " />
<glyph glyph-name="Gdotaccent" unicode="&#x120;" horiz-adv-x="667" d="M399 701 C231 701 139 629 94 537 C62 473 52 411 52 342 C52 107 160 -10 375 -10 C456 -10 534 3 609 28 L609 363 L474 363 L474 118 C447 111 416 107 383 107 C258 107 208 187 208 334 C208 503 277 587 416 587 C464 587 514 580 567 567 L588 673 C527 692 464 701 399 701 L399 701 Z M457 830 C457 877 426 907 373 907 C321 907 293 877 293 830 C293 785 322 754 373 754 C425 754 457 786 457 830 L457 830 Z " />
<glyph glyph-name="gdotaccent" unicode="&#x121;" horiz-adv-x="597" d="M118 191 C69 174 45 144 45 101 C45 64 63 40 99 29 C63 9 37 -31 37 -78 C37 -171 114 -218 267 -218 C459 -218 552 -147 552 -48 C552 49 486 98 355 98 L211 98 C185 98 172 106 172 122 C172 143 192 153 233 153 L290 154 C355 154 409 169 452 198 C495 228 516 270 516 325 C516 363 507 393 490 415 L493 420 L563 420 L563 492 L387 492 C360 500 325 504 283 504 C220 504 167 488 123 457 C80 426 58 381 58 320 C58 260 79 218 120 195 L118 191 Z M326 12 C380 12 407 -9 407 -52 C407 -96 366 -123 287 -123 C202 -123 175 -96 175 -52 C175 -27 195 3 218 12 L326 12 Z M376 326 C376 270 337 242 280 242 C228 242 198 273 198 325 C198 378 227 412 286 412 C349 412 376 375 376 326 L376 326 Z M365 641 C365 688 334 718 281 718 C229 718 201 688 201 641 C201 596 230 565 281 565 C333 565 365 597 365 641 L365 641 Z " />
<glyph glyph-name="Gcommaaccent" unicode="&#x122;" horiz-adv-x="667" d="M399 701 C231 701 139 629 94 537 C62 473 52 411 52 342 C52 107 160 -10 375 -10 C456 -10 534 3 609 28 L609 363 L474 363 L474 118 C447 111 416 107 383 107 C258 107 208 187 208 334 C208 503 277 587 416 587 C464 587 514 580 567 567 L588 673 C527 692 464 701 399 701 L399 701 Z M308 -104 C308 -137 323 -156 354 -162 C352 -185 338 -208 311 -231 L342 -270 C403 -241 451 -179 452 -118 C452 -75 426 -41 379 -41 C338 -41 308 -69 308 -104 L308 -104 Z " />
<glyph glyph-name="gcommaaccent" unicode="&#x123;" horiz-adv-x="597" d="M118 191 C69 174 45 144 45 101 C45 64 63 40 99 29 C63 9 37 -31 37 -78 C37 -171 114 -218 267 -218 C459 -218 552 -147 552 -48 C552 49 486 98 355 98 L211 98 C185 98 172 106 172 122 C172 143 192 153 233 153 L290 154 C355 154 409 169 452 198 C495 228 516 270 516 325 C516 363 507 393 490 415 L493 420 L563 420 L563 492 L387 492 C360 500 325 504 283 504 C220 504 167 488 123 457 C80 426 58 381 58 320 C58 260 79 218 120 195 L118 191 Z M326 12 C380 12 407 -9 407 -52 C407 -96 366 -123 287 -123 C202 -123 175 -96 175 -52 C175 -27 195 3 218 12 L326 12 Z M376 326 C376 270 337 242 280 242 C228 242 198 273 198 325 C198 378 227 412 286 412 C349 412 376 375 376 326 L376 326 Z M365 612 C365 643 347 667 316 672 C318 695 333 719 361 742 L328 783 C263 751 213 691 212 627 C212 580 239 546 288 546 C332 546 365 576 365 612 L365 612 Z " />
<glyph glyph-name="Hcircumflex" unicode="&#x124;" horiz-adv-x="710" d="M636 687 L487 687 L487 413 L220 413 L220 550 C221 611 221 656 221 687 L72 687 L72 0 L221 0 C221 33 221 84 220 152 L220 306 L487 306 L487 0 L636 0 L636 687 Z M393 917 L305 917 L151 770 L185 729 L348 821 L513 730 L548 771 L393 917 Z " />
<glyph glyph-name="hcircumflex" unicode="&#x125;" horiz-adv-x="569" d="M190 556 L190 715 L49 715 L49 0 L193 0 L193 355 C234 380 271 392 305 392 C364 392 375 364 375 304 L375 0 L518 0 L518 334 C518 388 507 430 486 459 C465 488 425 503 364 503 C313 503 257 484 195 447 L187 451 L190 556 Z M167 929 L79 929 L-75 782 L-41 741 L122 833 L287 742 L322 783 L167 929 Z " />
<glyph glyph-name="Hbar" unicode="&#x126;" horiz-adv-x="710" d="M637 511 L698 511 L698 568 L637 568 L637 688 L488 688 L488 568 L221 568 L221 688 L73 688 L73 568 L9 568 L9 511 L73 511 L73 0 L221 0 L221 307 L488 307 L488 0 L637 0 L637 511 Z M221 511 L488 511 L488 414 L221 414 L221 511 Z " />
<glyph glyph-name="hbar" unicode="&#x127;" horiz-adv-x="587" d="M536 304 C536 355 529 389 508 422 C488 455 446 473 382 473 C353 473 326 469 301 461 C277 454 246 440 207 421 L207 484 C208 512 208 533 208 547 L389 547 L389 608 L209 608 L209 715 L68 715 L68 608 L5 608 L5 547 L68 547 L68 0 L211 0 L211 325 C252 350 289 362 324 362 C381 362 393 333 393 274 L393 0 L536 0 L536 304 Z " />
<glyph glyph-name="Itilde" unicode="&#x128;" horiz-adv-x="308" d="M240 750 C287 750 321 781 342 844 L301 877 L245 836 C230 836 202 842 162 855 C122 868 92 874 73 874 C27 874 -7 843 -30 782 L11 750 L67 789 C78 789 104 782 143 769 C183 756 215 750 240 750 L240 750 Z M227 688 L81 688 L81 0 L227 0 L227 688 Z " />
<glyph glyph-name="itilde" unicode="&#x129;" horiz-adv-x="342" d="M260 572 C307 572 341 603 362 666 L321 699 L265 658 C250 658 222 664 182 677 C142 690 112 696 93 696 C47 696 13 665 -10 604 L31 572 L87 611 C98 611 124 604 163 591 C203 578 235 572 260 572 L260 572 Z M243 491 L100 491 L100 0 L243 0 L243 491 Z " />
<glyph glyph-name="Imacron" unicode="&#x12a;" horiz-adv-x="308" d="M227 688 L81 688 L81 0 L227 0 L227 688 Z M333 748 L333 839 L-21 839 L-21 748 L333 748 Z " />
<glyph glyph-name="imacron" unicode="&#x12b;" horiz-adv-x="323" d="M343 583 L343 674 L-20 674 L-20 583 L343 583 Z M232 491 L89 491 L89 0 L232 0 L232 491 Z " />
<glyph glyph-name="Ibreve" unicode="&#x12c;" horiz-adv-x="308" d="M153 733 C227 733 291 776 346 862 L308 900 C253 847 203 821 157 821 C118 821 67 853 27 906 L-31 862 C26 776 87 733 153 733 L153 733 Z M227 688 L81 688 L81 0 L227 0 L227 688 Z " />
<glyph glyph-name="ibreve" unicode="&#x12d;" horiz-adv-x="344" d="M166 547 C231 547 305 587 364 678 L321 717 C270 669 220 644 201 641 C192 640 182 639 169 639 C130 639 80 669 40 724 L-20 679 C38 591 100 547 166 547 L166 547 Z M232 491 L89 491 L89 0 L232 0 L232 491 Z " />
<glyph glyph-name="Iogonek" unicode="&#x12e;" horiz-adv-x="308" d="M227 688 L81 688 L81 0 L121 0 C78 -44 56 -91 56 -140 C56 -191 94 -221 163 -221 C206 -221 246 -211 284 -191 L272 -145 C240 -152 216 -156 201 -156 C166 -156 148 -141 148 -110 C148 -75 160 -38 185 0 L227 0 L227 688 Z " />
<glyph glyph-name="iogonek" unicode="&#x12f;" horiz-adv-x="299" d="M220 491 L77 491 L77 0 L107 0 C68 -43 48 -87 48 -133 C48 -184 86 -214 155 -214 C198 -214 238 -204 276 -184 L264 -138 C232 -145 208 -149 193 -149 C158 -149 140 -134 140 -103 C140 -70 151 -36 173 0 L220 0 L220 491 Z M233 627 C233 672 201 704 148 704 C97 704 66 672 66 627 C66 583 97 551 148 551 C201 551 233 583 233 627 L233 627 Z " />
<glyph glyph-name="Idot" unicode="&#x130;" horiz-adv-x="308" d="M236 833 C236 880 205 910 152 910 C100 910 72 880 72 833 C72 788 101 757 152 757 C204 757 236 789 236 833 L236 833 Z M227 688 L81 688 L81 0 L227 0 L227 688 Z " />
<glyph glyph-name="dotlessi" unicode="&#x131;" horiz-adv-x="299" d="M220 491 L77 491 L77 0 L220 0 L220 491 Z " />
<glyph glyph-name="IJ" unicode="&#x132;" horiz-adv-x="656" d="M418 156 C418 96 406 49 382 16 C359 -17 312 -53 241 -90 L276 -192 C469 -145 565 -37 565 151 L566 689 L419 689 L418 156 Z M227 688 L81 688 L81 0 L227 0 L227 688 Z " />
<glyph glyph-name="ij" unicode="&#x133;" horiz-adv-x="583" d="M361 56 C361 7 353 -29 338 -52 C323 -75 290 -101 238 -131 C242 -137 274 -221 277 -228 C359 -206 417 -174 451 -133 C485 -92 503 -33 504 46 C505 57 505 206 505 491 L361 491 L361 56 Z M518 627 C518 672 486 704 434 704 C382 704 352 672 352 627 C352 582 382 551 434 551 C486 551 518 583 518 627 L518 627 Z M220 491 L77 491 L77 0 L220 0 L220 491 Z M233 627 C233 672 201 704 148 704 C97 704 66 672 66 627 C66 583 97 551 148 551 C201 551 233 583 233 627 L233 627 Z " />
<glyph glyph-name="Jcircumflex" unicode="&#x134;" horiz-adv-x="365" d="M245 921 L157 921 L3 774 L37 733 L200 825 L365 734 L400 775 L245 921 Z M126 157 C126 97 114 50 90 17 C67 -16 20 -52 -51 -89 L-16 -191 C177 -144 273 -36 273 152 L274 690 L127 690 L126 157 Z " />
<glyph glyph-name="jcircumflex" unicode="&#x135;" horiz-adv-x="362" d="M107 55 C107 7 99 -28 84 -51 C69 -74 37 -101 -14 -130 C3 -177 16 -209 24 -226 C184 -185 250 -106 250 39 L250 490 L107 490 L107 55 Z M226 723 L138 723 L-15 569 C-6 560 14 534 18 529 L181 624 L346 529 C354 540 377 563 382 570 L226 723 Z " />
<glyph glyph-name="Kcommaaccent" unicode="&#x136;" horiz-adv-x="665" d="M218 687 L72 687 L72 0 L218 0 L218 258 L279 320 L482 0 L656 0 L379 418 L641 687 L470 687 L267 467 L225 419 L218 419 L218 687 Z M258 -104 C258 -137 273 -156 304 -162 C302 -185 288 -208 261 -231 L292 -270 C353 -241 401 -179 402 -118 C402 -75 376 -41 329 -41 C288 -41 258 -69 258 -104 L258 -104 Z " />
<glyph glyph-name="kcommaaccent" unicode="&#x137;" horiz-adv-x="532" d="M189 323 C192 380 193 428 193 465 L194 714 L49 714 L49 0 L194 0 L194 172 L237 216 L368 0 L526 0 L364 257 L328 299 L513 491 L353 491 L195 322 C192 322 190 322 189 323 L189 323 Z M197 -104 C197 -137 212 -156 243 -162 C241 -185 227 -208 200 -231 L231 -270 C292 -241 340 -179 341 -118 C341 -75 315 -41 268 -41 C227 -41 197 -69 197 -104 L197 -104 Z " />
<glyph glyph-name="kgreenlandic" unicode="&#x138;" horiz-adv-x="531" d="M193 418 C194 434 194 458 194 490 L49 490 L49 0 L194 0 L194 172 L237 216 L368 0 L526 0 L364 257 L328 299 L513 491 L353 491 L195 322 C192 322 190 322 189 323 L193 418 Z " />
<glyph glyph-name="Lacute" unicode="&#x139;" horiz-adv-x="579" d="M569 103 L220 103 L220 688 L72 688 L72 0 L569 0 L569 103 Z M254 951 L107 782 L154 733 L330 872 L254 951 Z " />
<glyph glyph-name="lacute" unicode="&#x13a;" horiz-adv-x="272" d="M64 716 L64 0 L206 0 L207 716 L64 716 Z M224 964 L77 795 L124 746 L300 885 L224 964 Z " />
<glyph glyph-name="Lcommaaccent" unicode="&#x13b;" horiz-adv-x="579" d="M247 -104 C247 -137 262 -156 293 -162 C291 -185 277 -208 250 -231 L281 -270 C342 -241 390 -179 391 -118 C391 -75 365 -41 318 -41 C277 -41 247 -69 247 -104 L247 -104 Z M569 103 L220 103 L220 688 L72 688 L72 0 L569 0 L569 103 Z " />
<glyph glyph-name="lcommaaccent" unicode="&#x13c;" horiz-adv-x="272" d="M68 -104 C68 -137 83 -156 114 -162 C112 -185 98 -208 71 -231 L102 -270 C163 -241 211 -179 212 -118 C212 -75 186 -41 139 -41 C98 -41 68 -69 68 -104 L68 -104 Z M64 716 L64 0 L206 0 L207 716 L64 716 Z " />
<glyph glyph-name="Lcaron" unicode="&#x13d;" horiz-adv-x="579" d="M389 626 C389 593 404 574 435 568 C433 545 419 522 392 499 L423 460 C484 489 532 551 533 612 C533 655 507 689 460 689 C419 689 389 661 389 626 L389 626 Z M569 103 L220 103 L220 688 L72 688 L72 0 L569 0 L569 103 Z " />
<glyph glyph-name="lcaron" unicode="&#x13e;" horiz-adv-x="414" d="M273 661 C273 628 288 609 319 603 C317 580 303 557 276 534 L307 495 C368 524 416 586 417 647 C417 690 391 724 344 724 C303 724 273 696 273 661 L273 661 Z M64 716 L64 0 L206 0 L207 716 L64 716 Z " />
<glyph glyph-name="Ldot" unicode="&#x13f;" horiz-adv-x="579" d="M539 398 C539 445 508 475 455 475 C403 475 375 445 375 398 C375 353 404 322 455 322 C507 322 539 354 539 398 L539 398 Z M569 103 L220 103 L220 688 L72 688 L72 0 L569 0 L569 103 Z " />
<glyph glyph-name="ldot" unicode="&#x140;" horiz-adv-x="434" d="M430 374 C430 421 399 451 346 451 C294 451 266 421 266 374 C266 329 295 298 346 298 C398 298 430 330 430 374 L430 374 Z M64 716 L64 0 L206 0 L207 716 L64 716 Z " />
<glyph glyph-name="Lslash" unicode="&#x141;" horiz-adv-x="579" d="M569 103 L220 103 L220 310 L365 394 L332 454 L220 390 L220 688 L72 688 L72 304 L-26 249 L9 186 L72 223 L72 0 L569 0 L569 103 Z " />
<glyph glyph-name="lslash" unicode="&#x142;" horiz-adv-x="319" d="M84 715 L84 349 L-20 288 L12 229 L84 272 L84 0 L226 0 L226 354 L339 420 L306 476 L226 430 L226 573 C227 636 227 684 227 715 L84 715 Z " />
<glyph glyph-name="Nacute" unicode="&#x143;" horiz-adv-x="742" d="M433 354 L221 687 L72 687 L72 0 L214 0 L214 483 C215 483 218 484 219 484 L288 370 L521 0 L669 0 L669 687 L526 687 L526 214 L520 214 L433 354 Z M468 936 L321 767 L368 718 L544 857 L468 936 Z " />
<glyph glyph-name="nacute" unicode="&#x144;" horiz-adv-x="569" d="M518 334 C518 427 494 503 364 503 C308 503 250 483 191 444 L187 446 L185 491 L49 491 L49 0 L193 0 L193 355 C234 380 271 392 305 392 C362 392 375 363 375 304 L375 0 L518 0 L518 334 Z M347 754 L199 584 L249 532 L423 672 L347 754 Z " />
<glyph glyph-name="Ncommaaccent" unicode="&#x145;" horiz-adv-x="742" d="M433 354 L221 687 L72 687 L72 0 L214 0 L214 483 C215 483 218 484 219 484 L288 370 L521 0 L669 0 L669 687 L526 687 L526 214 L520 214 L433 354 Z M295 -104 C295 -137 310 -156 341 -162 C339 -185 325 -208 298 -231 L329 -270 C390 -241 438 -179 439 -118 C439 -75 413 -41 366 -41 C325 -41 295 -69 295 -104 L295 -104 Z " />
<glyph glyph-name="ncommaaccent" unicode="&#x146;" horiz-adv-x="569" d="M518 334 C518 427 494 503 364 503 C308 503 250 483 191 444 L187 446 L185 491 L49 491 L49 0 L193 0 L193 355 C234 380 271 392 305 392 C362 392 375 363 375 304 L375 0 L518 0 L518 334 Z M221 -104 C221 -137 236 -156 267 -162 C265 -185 251 -208 224 -231 L255 -270 C316 -241 364 -179 365 -118 C365 -75 339 -41 292 -41 C251 -41 221 -69 221 -104 L221 -104 Z " />
<glyph glyph-name="Ncaron" unicode="&#x147;" horiz-adv-x="742" d="M433 354 L221 687 L72 687 L72 0 L214 0 L214 483 C215 483 218 484 219 484 L288 370 L521 0 L669 0 L669 687 L526 687 L526 214 L520 214 L433 354 Z M383 824 L220 916 L186 877 L340 730 L427 730 L583 875 L548 917 L383 824 Z " />
<glyph glyph-name="ncaron" unicode="&#x148;" horiz-adv-x="569" d="M518 334 C518 427 494 503 364 503 C308 503 250 483 191 444 L187 446 L185 491 L49 491 L49 0 L193 0 L193 355 C234 380 271 392 305 392 C362 392 375 363 375 304 L375 0 L518 0 L518 334 Z M279 641 L114 738 L81 698 L236 543 L323 543 L479 697 L443 738 L279 641 Z " />
<glyph glyph-name="napostrophe" unicode="&#x149;" horiz-adv-x="675" d="M624 334 C624 427 600 503 470 503 C414 503 356 483 297 444 L293 446 L291 491 L155 491 L155 0 L299 0 L299 355 C340 380 377 392 411 392 C468 392 481 363 481 304 L481 0 L624 0 L624 334 Z M19 648 C19 615 34 596 65 590 C63 567 49 544 22 521 L53 482 C114 511 162 573 163 634 C163 677 137 711 90 711 C49 711 19 683 19 648 L19 648 Z " />
<glyph glyph-name="Eng" unicode="&#x14a;" horiz-adv-x="742" d="M433 354 L221 687 L72 687 L72 0 L214 0 L214 483 C215 483 218 484 219 484 L297 354 L530 -8 L530 -40 C530 -83 501 -105 443 -105 C428 -105 408 -103 381 -100 L369 -200 C405 -209 441 -213 477 -213 C549 -213 599 -196 626 -162 C653 -129 668 -81 669 -20 L669 687 L526 687 L526 214 L520 214 L433 354 Z " />
<glyph glyph-name="eng" unicode="&#x14b;" horiz-adv-x="569" d="M363 503 C306 503 249 484 191 445 L187 447 C186 467 185 482 185 491 L49 491 L49 0 L193 0 L193 355 C234 380 271 392 304 392 C359 392 374 359 374 304 L374 -5 C374 -60 349 -80 294 -80 C269 -80 248 -79 230 -76 L224 -123 L219 -171 C252 -179 287 -183 324 -183 C475 -183 514 -96 516 -17 C517 -6 517 12 517 37 L517 334 C517 387 506 429 484 458 C463 488 422 503 363 503 L363 503 Z " />
<glyph glyph-name="Omacron" unicode="&#x14c;" horiz-adv-x="746" d="M694 344 C694 539 606 700 376 700 C268 700 187 667 133 600 C80 534 53 448 53 342 C53 123 159 -10 376 -10 C478 -10 556 23 611 88 C666 154 694 239 694 344 L694 344 Z M537 342 C537 193 487 97 376 97 C256 97 208 178 208 341 C208 510 264 595 376 595 C483 595 537 511 537 342 L537 342 Z M550 748 L550 839 L196 839 L196 748 L550 748 Z " />
<glyph glyph-name="omacron" unicode="&#x14d;" horiz-adv-x="577" d="M285 -10 C372 -10 436 14 476 61 C517 109 537 171 537 246 C537 321 517 383 478 430 C439 478 376 502 291 502 C206 502 142 478 101 430 C60 382 40 320 40 245 C40 168 59 107 98 60 C137 13 200 -10 285 -10 L285 -10 Z M389 245 C389 142 356 91 291 91 C211 91 187 146 187 245 C187 349 222 401 291 401 C356 401 389 349 389 245 L389 245 Z M470 583 L470 674 L107 674 L107 583 L470 583 Z " />
<glyph glyph-name="Obreve" unicode="&#x14e;" horiz-adv-x="746" d="M694 344 C694 539 606 700 376 700 C268 700 187 667 133 600 C80 534 53 448 53 342 C53 123 159 -10 376 -10 C478 -10 556 23 611 88 C666 154 694 239 694 344 L694 344 Z M537 342 C537 193 487 97 376 97 C256 97 208 178 208 341 C208 510 264 595 376 595 C483 595 537 511 537 342 L537 342 Z M369 737 C443 737 507 780 562 866 L524 904 C469 851 419 825 373 825 C334 825 283 857 243 910 L185 866 C242 780 303 737 369 737 L369 737 Z " />
<glyph glyph-name="obreve" unicode="&#x14f;" horiz-adv-x="577" d="M285 -10 C372 -10 436 14 476 61 C517 109 537 171 537 246 C537 321 517 383 478 430 C439 478 376 502 291 502 C206 502 142 478 101 430 C60 382 40 320 40 245 C40 168 59 107 98 60 C137 13 200 -10 285 -10 L285 -10 Z M389 245 C389 142 356 91 291 91 C211 91 187 146 187 245 C187 349 222 401 291 401 C356 401 389 349 389 245 L389 245 Z M286 547 C351 547 425 587 484 678 L441 717 C390 669 340 644 321 641 C312 640 302 639 289 639 C250 639 200 669 160 724 L100 679 C158 591 220 547 286 547 L286 547 Z " />
<glyph glyph-name="Ohungarumlaut" unicode="&#x150;" horiz-adv-x="746" d="M694 344 C694 539 606 700 376 700 C268 700 187 667 133 600 C80 534 53 448 53 342 C53 123 159 -10 376 -10 C478 -10 556 23 611 88 C666 154 694 239 694 344 L694 344 Z M537 342 C537 193 487 97 376 97 C256 97 208 178 208 341 C208 510 264 595 376 595 C483 595 537 511 537 342 L537 342 Z M378 962 L248 777 L303 735 L464 894 L378 962 Z M534 962 L405 777 L459 735 L620 894 L534 962 Z " />
<glyph glyph-name="ohungarumlaut" unicode="&#x151;" horiz-adv-x="577" d="M285 -10 C372 -10 436 14 476 61 C517 109 537 171 537 246 C537 321 517 383 478 430 C439 478 376 502 291 502 C206 502 142 478 101 430 C60 382 40 320 40 245 C40 168 59 107 98 60 C137 13 200 -10 285 -10 L285 -10 Z M389 245 C389 142 356 91 291 91 C211 91 187 146 187 245 C187 349 222 401 291 401 C356 401 389 349 389 245 L389 245 Z M268 758 L138 573 L190 530 L351 691 L268 758 Z M426 758 L297 573 L348 530 L510 691 L426 758 Z " />
<glyph glyph-name="OE" unicode="&#x152;" horiz-adv-x="893" d="M859 103 L536 103 L536 309 L795 309 L795 408 L536 408 L536 585 L846 585 L846 687 L474 687 C444 696 409 700 368 700 C260 700 179 667 125 600 C72 534 45 448 45 342 C45 123 151 -9 368 -9 C399 -9 428 -6 455 0 L859 0 L859 103 Z M368 96 C251 96 200 178 200 341 C200 506 255 591 365 594 C369 594 385 593 388 593 L388 97 C383 96 376 96 368 96 L368 96 Z " />
<glyph glyph-name="oe" unicode="&#x153;" horiz-adv-x="877" d="M804 128 C751 107 701 97 652 97 C565 97 528 136 527 215 L845 215 L845 267 C845 308 842 343 823 388 C814 411 802 431 787 447 C758 480 701 506 629 506 C552 506 494 479 455 425 C417 476 360 502 285 502 C202 502 140 477 97 428 C55 379 34 318 34 243 C34 168 54 107 94 60 C134 13 196 -10 279 -10 C354 -10 413 15 456 66 C492 18 550 -6 630 -6 C705 -6 772 10 833 43 L804 128 Z M384 245 C384 142 351 91 285 91 C205 91 182 149 182 245 C182 349 216 401 285 401 C351 401 384 349 384 245 L384 245 Z M630 411 C685 411 714 373 715 298 L530 298 C535 363 569 411 630 411 L630 411 Z " />
<glyph glyph-name="Racute" unicode="&#x154;" horiz-adv-x="645" d="M576 490 C576 606 502 687 351 687 L72 687 L72 0 L218 0 L218 277 L292 277 C352 277 387 252 407 180 L459 0 L606 0 L551 192 C532 256 511 296 459 312 L459 313 C535 340 576 411 576 490 L576 490 Z M218 583 L322 583 C386 583 426 549 426 482 C426 409 379 378 323 378 L218 378 L218 583 Z M387 947 L240 778 L287 729 L463 868 L387 947 Z " />
<glyph glyph-name="racute" unicode="&#x155;" horiz-adv-x="416" d="M196 407 C200 438 202 466 202 491 L61 491 L61 0 L204 0 L204 332 L371 330 C382 345 392 367 401 397 C411 428 416 452 416 471 C416 493 407 504 388 504 C335 504 258 460 201 404 L196 407 L196 407 Z M258 754 L110 584 L160 532 L334 672 L258 754 Z " />
<glyph glyph-name="Rcommaaccent" unicode="&#x156;" horiz-adv-x="645" d="M576 490 C576 606 502 687 351 687 L72 687 L72 0 L218 0 L218 277 L292 277 C352 277 387 252 407 180 L459 0 L606 0 L551 192 C532 256 511 296 459 312 L459 313 C535 340 576 411 576 490 L576 490 Z M218 583 L322 583 C386 583 426 549 426 482 C426 409 379 378 323 378 L218 378 L218 583 Z M255 -104 C255 -137 270 -156 301 -162 C299 -185 285 -208 258 -231 L289 -270 C350 -241 398 -179 399 -118 C399 -75 373 -41 326 -41 C285 -41 255 -69 255 -104 L255 -104 Z " />
<glyph glyph-name="rcommaaccent" unicode="&#x157;" horiz-adv-x="416" d="M196 407 C200 438 202 466 202 491 L61 491 L61 0 L204 0 L204 332 L371 330 C382 345 392 367 401 397 C411 428 416 452 416 471 C416 493 407 504 388 504 C335 504 258 460 201 404 L196 407 Z M67 -104 C67 -137 82 -156 113 -162 C111 -185 97 -208 70 -231 L101 -270 C162 -241 210 -179 211 -118 C211 -75 185 -41 138 -41 C97 -41 67 -69 67 -104 L67 -104 Z " />
<glyph glyph-name="Rcaron" unicode="&#x158;" horiz-adv-x="645" d="M576 490 C576 606 502 687 351 687 L72 687 L72 0 L218 0 L218 277 L292 277 C352 277 387 252 407 180 L459 0 L606 0 L551 192 C532 256 511 296 459 312 L459 313 C535 340 576 411 576 490 L576 490 Z M218 583 L322 583 C386 583 426 549 426 482 C426 409 379 378 323 378 L218 378 L218 583 Z M300 825 L137 917 L103 878 L257 731 L344 731 L500 876 L465 918 L300 825 Z " />
<glyph glyph-name="rcaron" unicode="&#x159;" horiz-adv-x="416" d="M196 407 C200 438 202 466 202 491 L61 491 L61 0 L204 0 L204 332 L371 330 C382 345 392 367 401 397 C411 428 416 452 416 471 C416 493 407 504 388 504 C335 504 258 460 201 404 L196 407 L196 407 Z M192 641 L27 738 L-6 698 L149 543 L236 543 L392 697 L356 738 L192 641 Z " />
<glyph glyph-name="Sacute" unicode="&#x15a;" horiz-adv-x="623" d="M320 701 C151 701 59 620 59 492 C59 452 72 419 85 396 C98 373 134 350 155 338 C166 332 183 325 204 318 C226 311 243 306 255 303 L313 288 C392 267 426 248 426 195 C426 131 386 104 303 104 C228 104 154 119 79 149 L41 45 C112 8 196 -10 292 -10 C481 -10 581 63 581 195 C581 270 552 325 493 361 C466 377 418 394 351 411 C290 426 265 431 236 455 C221 467 214 481 214 498 C214 555 252 586 315 586 C384 586 446 575 500 552 L538 652 C479 685 406 701 320 701 L320 701 Z M395 949 L248 780 L295 731 L471 870 L395 949 Z " />
<glyph glyph-name="sacute" unicode="&#x15b;" horiz-adv-x="491" d="M258 503 C123 503 50 449 50 354 C50 309 66 277 107 253 C128 242 145 233 159 228 L227 205 C232 204 253 197 260 194 C267 193 284 187 289 183 C306 173 319 163 319 142 C319 106 291 88 236 88 C181 88 123 99 62 121 L31 32 C85 5 152 -8 231 -8 C382 -8 460 44 460 139 C456 208 428 246 376 272 C340 291 319 297 278 309 C277 309 275 310 272 311 C218 325 191 341 191 358 C191 388 215 403 263 403 C308 403 354 394 400 377 L415 421 C424 447 429 462 431 465 C384 490 326 503 258 503 L258 503 Z M322 754 L174 584 L224 532 L398 672 L322 754 Z " />
<glyph glyph-name="Scircumflex" unicode="&#x15c;" horiz-adv-x="623" d="M320 701 C151 701 59 620 59 492 C59 452 72 419 85 396 C98 373 134 350 155 338 C166 332 183 325 204 318 C226 311 243 306 255 303 L313 288 C392 267 426 248 426 195 C426 131 386 104 303 104 C228 104 154 119 79 149 L41 45 C112 8 196 -10 292 -10 C481 -10 581 63 581 195 C581 270 552 325 493 361 C466 377 418 394 351 411 C290 426 265 431 236 455 C221 467 214 481 214 498 C214 555 252 586 315 586 C384 586 446 575 500 552 L538 652 C479 685 406 701 320 701 L320 701 Z M369 919 L281 919 L127 772 L161 731 L324 823 L489 732 L524 773 L369 919 Z " />
<glyph glyph-name="scircumflex" unicode="&#x15d;" horiz-adv-x="491" d="M258 503 C123 503 50 449 50 354 C50 309 66 277 107 253 C128 242 145 233 159 228 L227 205 C232 204 253 197 260 194 C267 193 284 187 289 183 C306 173 319 163 319 142 C319 106 291 88 236 88 C181 88 123 99 62 121 L31 32 C85 5 152 -8 231 -8 C382 -8 460 44 460 139 C456 208 428 246 376 272 C340 291 319 297 278 309 C277 309 275 310 272 311 C218 325 191 341 191 358 C191 388 215 403 263 403 C308 403 354 394 400 377 L415 421 C424 447 429 462 431 465 C384 490 326 503 258 503 L258 503 Z M294 724 L206 724 L52 570 L85 529 L249 625 L414 530 L450 572 L294 724 Z " />
<glyph glyph-name="Scedilla" unicode="&#x15e;" horiz-adv-x="623" d="M320 701 C151 701 59 620 59 492 C59 452 72 419 85 396 C98 373 134 350 155 338 C166 332 183 325 204 318 C226 311 243 306 255 303 L313 288 C392 267 426 248 426 195 C426 131 386 104 303 104 C228 104 154 119 79 149 L41 45 C106 11 185 -7 278 -10 L214 -93 L231 -119 C262 -119 320 -113 320 -153 C320 -182 284 -201 211 -208 L211 -256 C338 -255 405 -211 405 -144 C405 -95 366 -65 299 -60 L337 -8 C497 3 581 75 581 195 C581 270 552 325 493 361 C466 377 418 394 351 411 C290 426 265 431 236 455 C221 467 214 481 214 498 C214 555 252 586 315 586 C384 586 446 575 500 552 L538 652 C479 685 406 701 320 701 L320 701 Z " />
<glyph glyph-name="scedilla" unicode="&#x15f;" horiz-adv-x="491" d="M258 503 C123 503 50 449 50 354 C50 309 66 277 107 253 C128 242 145 233 159 228 L227 205 C232 204 253 197 260 194 C267 193 284 187 289 183 C306 173 319 163 319 142 C319 106 291 88 236 88 C181 88 123 99 62 121 L31 32 C79 8 141 -5 217 -8 L153 -91 L170 -117 C201 -117 259 -111 259 -151 C259 -180 223 -199 150 -206 L150 -254 C277 -253 344 -209 344 -142 C344 -93 305 -63 238 -58 L277 -6 C397 3 460 54 460 139 C456 208 428 246 376 272 C340 291 319 297 278 309 C277 309 275 310 272 311 C218 325 191 341 191 358 C191 388 215 403 263 403 C308 403 354 394 400 377 L415 421 C424 447 429 462 431 465 C384 490 326 503 258 503 L258 503 Z " />
<glyph glyph-name="Scaron" unicode="&#x160;" horiz-adv-x="623" d="M320 701 C151 701 59 620 59 492 C59 452 72 419 85 396 C98 373 134 350 155 338 C166 332 183 325 204 318 C226 311 243 306 255 303 L313 288 C392 267 426 248 426 195 C426 131 386 104 303 104 C228 104 154 119 79 149 L41 45 C112 8 196 -10 292 -10 C481 -10 581 63 581 195 C581 270 552 325 493 361 C466 377 418 394 351 411 C290 426 265 431 236 455 C221 467 214 481 214 498 C214 555 252 586 315 586 C384 586 446 575 500 552 L538 652 C479 685 406 701 320 701 L320 701 Z M310 830 L147 922 L113 883 L267 736 L354 736 L510 881 L475 923 L310 830 Z " />
<glyph glyph-name="scaron" unicode="&#x161;" horiz-adv-x="491" d="M258 503 C123 503 50 449 50 354 C50 309 66 277 107 253 C128 242 145 233 159 228 L227 205 C232 204 253 197 260 194 C267 193 284 187 289 183 C306 173 319 163 319 142 C319 106 291 88 236 88 C181 88 123 99 62 121 L31 32 C85 5 152 -8 231 -8 C382 -8 460 44 460 139 C456 208 428 246 376 272 C340 291 319 297 278 309 C277 309 275 310 272 311 C218 325 191 341 191 358 C191 388 215 403 263 403 C308 403 354 394 400 377 L415 421 C424 447 429 462 431 465 C384 490 326 503 258 503 L258 503 Z M244 643 L79 740 L46 700 L201 545 L288 545 L444 699 L408 740 L244 643 Z " />
<glyph glyph-name="Tcommaaccent" unicode="&#x162;" horiz-adv-x="610" d="M379 581 L596 581 L596 688 L14 688 L14 581 L232 581 L232 0 L378 0 L379 581 Z M238 -104 C238 -137 253 -156 284 -162 C282 -185 268 -208 241 -231 L272 -270 C333 -241 381 -179 382 -118 C382 -75 356 -41 309 -41 C268 -41 238 -69 238 -104 L238 -104 Z " />
<glyph glyph-name="tcommaaccent" unicode="&#x163;" horiz-adv-x="405" d="M111 559 C102 525 96 505 93 499 L15 476 L15 398 L84 398 L84 138 C84 49 127 -8 254 -8 C306 -8 353 1 394 20 L376 113 C337 104 309 100 291 100 C242 100 225 123 225 176 L225 398 L368 398 L368 492 L225 492 L225 627 L128 617 L111 559 Z M142 -104 C142 -137 157 -156 188 -162 C186 -185 172 -208 145 -231 L176 -270 C237 -241 285 -179 286 -118 C286 -75 260 -41 213 -41 C172 -41 142 -69 142 -104 L142 -104 Z " />
<glyph glyph-name="Tcaron" unicode="&#x164;" horiz-adv-x="610" d="M379 581 L596 581 L596 688 L14 688 L14 581 L232 581 L232 0 L378 0 L379 581 Z M303 826 L140 918 L106 879 L260 732 L347 732 L503 877 L468 919 L303 826 Z " />
<glyph glyph-name="tcaron" unicode="&#x165;" horiz-adv-x="521" d="M111 559 C102 525 96 505 93 499 L15 476 L15 398 L84 398 L84 138 C84 49 127 -8 254 -8 C306 -8 353 1 394 20 L376 113 C337 104 309 100 291 100 C242 100 225 123 225 176 L225 398 L368 398 L368 492 L225 492 L225 627 L128 617 L111 559 Z M365 670 C365 637 380 618 411 612 C409 589 395 566 368 543 L399 504 C460 533 508 595 509 656 C509 699 483 733 436 733 C395 733 365 705 365 670 L365 670 Z " />
<glyph glyph-name="Tbar" unicode="&#x166;" horiz-adv-x="610" d="M378 315 L514 315 L514 383 L379 383 L379 581 L596 581 L596 688 L14 688 L14 581 L232 581 L232 383 L89 383 L89 315 L232 315 L232 0 L378 0 L378 315 Z " />
<glyph glyph-name="tbar" unicode="&#x167;" horiz-adv-x="422" d="M366 400 L366 490 L223 490 L223 625 L128 616 C125 603 119 583 111 556 L93 497 L54 486 L14 474 L14 400 L84 400 L84 332 L20 332 L20 267 L84 267 L84 154 C84 46 126 -7 254 -7 C305 -7 351 2 392 19 L374 108 C339 100 312 96 291 96 C242 96 223 118 223 167 L223 267 L359 267 L359 332 L223 332 L223 400 L366 400 Z " />
<glyph glyph-name="Utilde" unicode="&#x168;" horiz-adv-x="709" d="M497 688 L498 248 C498 145 445 97 357 97 C261 97 213 147 213 248 L213 688 L67 688 L67 253 C67 78 163 -10 355 -10 C548 -10 641 85 641 253 L642 688 L497 688 Z M440 755 C487 755 521 786 542 849 L501 882 L445 841 C430 841 402 847 362 860 C322 873 292 879 273 879 C227 879 193 848 170 787 L211 755 L267 794 C278 794 304 787 343 774 C383 761 415 755 440 755 L440 755 Z " />
<glyph glyph-name="utilde" unicode="&#x169;" horiz-adv-x="558" d="M199 -11 C260 -11 315 11 366 55 L370 53 L374 0 L507 0 L507 492 C491 492 467 492 435 491 L364 491 L364 145 C329 114 294 99 259 99 C204 99 192 131 192 187 L192 491 L49 491 L49 156 C49 102 59 61 79 32 C100 3 140 -11 199 -11 L199 -11 Z M364 566 C411 566 445 597 466 660 L425 693 L369 652 C354 652 326 658 286 671 C246 684 216 690 197 690 C151 690 117 659 94 598 L135 566 L191 605 C202 605 228 598 267 585 C307 572 339 566 364 566 L364 566 Z " />
<glyph glyph-name="Umacron" unicode="&#x16a;" horiz-adv-x="709" d="M497 688 L498 248 C498 145 445 97 357 97 C261 97 213 147 213 248 L213 688 L67 688 L67 253 C67 78 163 -10 355 -10 C548 -10 641 85 641 253 L642 688 L497 688 Z M532 748 L532 839 L178 839 L178 748 L532 748 Z " />
<glyph glyph-name="umacron" unicode="&#x16b;" horiz-adv-x="558" d="M199 -11 C260 -11 315 11 366 55 L370 53 L374 0 L507 0 L507 492 C491 492 467 492 435 491 L364 491 L364 145 C329 114 294 99 259 99 C204 99 192 131 192 187 L192 491 L49 491 L49 156 C49 102 59 61 79 32 C100 3 140 -11 199 -11 L199 -11 Z M459 583 L459 674 L96 674 L96 583 L459 583 Z " />
<glyph glyph-name="Ubreve" unicode="&#x16c;" horiz-adv-x="709" d="M497 688 L498 248 C498 145 445 97 357 97 C261 97 213 147 213 248 L213 688 L67 688 L67 253 C67 78 163 -10 355 -10 C548 -10 641 85 641 253 L642 688 L497 688 Z M362 728 C427 728 501 768 560 859 L517 898 C466 850 416 825 397 822 C388 821 378 820 365 820 C326 820 276 850 236 905 L176 860 C234 772 296 728 362 728 L362 728 Z " />
<glyph glyph-name="ubreve" unicode="&#x16d;" horiz-adv-x="558" d="M199 -11 C260 -11 315 11 366 55 L370 53 L374 0 L507 0 L507 492 C491 492 467 492 435 491 L364 491 L364 145 C329 114 294 99 259 99 C204 99 192 131 192 187 L192 491 L49 491 L49 156 C49 102 59 61 79 32 C100 3 140 -11 199 -11 L199 -11 Z M272 547 C337 547 411 587 470 678 L427 717 C376 669 326 644 307 641 C298 640 288 639 275 639 C236 639 186 669 146 724 L86 679 C144 591 206 547 272 547 L272 547 Z " />
<glyph glyph-name="Uring" unicode="&#x16e;" horiz-adv-x="709" d="M358 713 C391 713 420 725 443 748 C466 771 478 800 478 833 C478 866 466 894 443 917 C420 941 392 953 358 953 C323 953 294 941 269 917 C245 894 233 866 233 833 C233 800 245 771 269 748 C294 725 323 713 358 713 L358 713 Z M358 890 C391 890 413 863 413 830 C413 799 390 773 358 773 C322 773 299 798 299 830 C299 863 323 890 358 890 L358 890 Z M497 688 L498 248 C498 145 445 97 357 97 C261 97 213 147 213 248 L213 688 L67 688 L67 253 C67 78 163 -10 355 -10 C548 -10 641 85 641 253 L642 688 L497 688 Z " />
<glyph glyph-name="uring" unicode="&#x16f;" horiz-adv-x="558" d="M284 548 C317 548 346 560 369 583 C392 606 404 635 404 668 C404 701 392 729 369 752 C346 776 318 788 284 788 C249 788 220 776 195 752 C171 729 159 701 159 668 C159 635 171 606 195 583 C220 560 249 548 284 548 L284 548 Z M284 725 C317 725 339 698 339 665 C339 634 316 608 284 608 C248 608 225 633 225 665 C225 698 249 725 284 725 L284 725 Z M199 -11 C260 -11 315 11 366 55 L370 53 L374 0 L507 0 L507 492 C491 492 467 492 435 491 L364 491 L364 145 C329 114 294 99 259 99 C204 99 192 131 192 187 L192 491 L49 491 L49 156 C49 102 59 61 79 32 C100 3 140 -11 199 -11 L199 -11 Z " />
<glyph glyph-name="Uhungarumlaut" unicode="&#x170;" horiz-adv-x="709" d="M497 688 L498 248 C498 145 445 97 357 97 C261 97 213 147 213 248 L213 688 L67 688 L67 253 C67 78 163 -10 355 -10 C548 -10 641 85 641 253 L642 688 L497 688 Z M351 965 L221 780 L276 738 L437 897 L351 965 Z M507 965 L378 780 L432 738 L593 897 L507 965 Z " />
<glyph glyph-name="uhungarumlaut" unicode="&#x171;" horiz-adv-x="558" d="M199 -11 C260 -11 315 11 366 55 L370 53 L374 0 L507 0 L507 492 C491 492 467 492 435 491 L364 491 L364 145 C329 114 294 99 259 99 C204 99 192 131 192 187 L192 491 L49 491 L49 156 C49 102 59 61 79 32 C100 3 140 -11 199 -11 L199 -11 Z M420 758 L291 573 L342 530 L504 691 L420 758 Z M262 758 L132 573 L184 530 L345 691 L262 758 Z " />
<glyph glyph-name="Uogonek" unicode="&#x172;" horiz-adv-x="709" d="M497 688 L498 248 C498 145 445 97 357 97 C261 97 213 147 213 248 L213 688 L67 688 L67 253 C67 91 148 4 310 -8 C269 -51 249 -97 249 -144 C249 -195 287 -225 356 -225 C399 -225 439 -215 477 -195 L465 -149 C433 -156 409 -160 394 -160 C359 -160 341 -145 341 -114 C341 -83 352 -48 374 -10 C554 -3 641 90 641 253 L642 688 L497 688 Z " />
<glyph glyph-name="uogonek" unicode="&#x173;" horiz-adv-x="558" d="M199 -11 C260 -11 315 11 366 55 L370 53 L373 5 C330 -38 308 -85 308 -134 C308 -185 346 -215 415 -215 C458 -215 498 -205 536 -185 L524 -139 C492 -146 468 -150 453 -150 C418 -150 400 -135 400 -104 C400 -73 411 -38 433 0 L507 0 L507 492 C491 492 467 492 435 491 L364 491 L364 145 C329 114 294 99 259 99 C204 99 192 131 192 187 L192 491 L49 491 L49 156 C49 102 59 61 79 32 C100 3 140 -11 199 -11 L199 -11 Z " />
<glyph glyph-name="Wcircumflex" unicode="&#x174;" horiz-adv-x="943" d="M469 498 C472 488 479 459 488 412 C497 365 503 336 506 326 C515 295 529 239 548 159 C567 80 581 27 588 0 L770 0 C796 101 851 331 935 688 L781 688 L742 506 L708 342 L692 253 L677 167 L669 167 L651 253 L633 335 L589 510 L545 688 L386 688 L308 329 L293 247 L278 166 L271 166 C268 182 262 210 255 250 L240 336 C233 365 221 424 202 513 L165 688 L8 688 L174 0 L359 0 L430 326 C433 339 438 366 445 407 C452 448 458 479 462 499 L469 498 Z M509 924 L421 924 L267 777 L301 736 L464 828 L629 737 L664 778 L509 924 Z " />
<glyph glyph-name="wcircumflex" unicode="&#x175;" horiz-adv-x="820" d="M539 262 L475 492 L339 492 L280 269 L247 114 L242 114 L212 265 L157 492 L16 492 L149 0 L316 0 L369 210 L402 369 L409 369 L445 210 L503 0 L670 0 L803 492 L664 492 L609 262 L580 115 L573 115 L539 262 Z M447 724 L359 724 L205 570 L238 529 L402 625 L567 530 L603 572 L447 724 Z " />
<glyph glyph-name="Ycircumflex" unicode="&#x176;" horiz-adv-x="626" d="M390 0 L390 264 L616 687 L465 687 L379 516 L346 444 C332 411 321 388 314 373 L308 373 L247 510 L162 687 L8 687 L232 247 L232 0 L390 0 Z M357 919 L269 919 L115 772 L149 731 L312 823 L477 732 L512 773 L357 919 Z " />
<glyph glyph-name="ycircumflex" unicode="&#x177;" horiz-adv-x="536" d="M238 194 C231 217 218 266 197 341 L156 491 L14 491 L166 11 L230 11 L210 -51 C195 -98 174 -112 129 -112 C122 -112 99 -109 58 -103 L38 -198 C86 -211 127 -217 160 -217 C245 -217 302 -176 329 -93 L526 491 L382 491 L296 197 C287 165 277 129 268 89 L261 89 L238 194 Z M315 724 L227 724 L73 570 L106 529 L270 625 L435 530 L471 572 L315 724 Z " />
<glyph glyph-name="Ydieresis" unicode="&#x178;" horiz-adv-x="626" d="M390 0 L390 264 L616 687 L465 687 L379 516 L346 444 C332 411 321 388 314 373 L308 373 L247 510 L162 687 L8 687 L232 247 L232 0 L390 0 Z M275 784 C275 821 249 846 204 846 C161 846 136 821 136 784 C136 748 160 722 204 722 C248 722 275 748 275 784 L275 784 Z M486 784 C486 823 460 846 415 846 C374 846 348 821 348 784 C348 748 372 722 415 722 C460 722 486 748 486 784 L486 784 Z " />
<glyph glyph-name="Zacute" unicode="&#x179;" horiz-adv-x="594" d="M559 592 L559 688 L44 688 L44 582 L355 582 L358 575 L18 98 L18 0 L577 0 L577 106 L218 107 L215 113 L559 592 Z M398 947 L251 778 L298 729 L474 868 L398 947 Z " />
<glyph glyph-name="zacute" unicode="&#x17a;" horiz-adv-x="467" d="M445 414 L445 492 L35 492 L35 395 L258 395 L260 389 L10 78 L10 0 L458 0 L458 96 L197 96 L194 103 L445 414 Z M316 754 L168 584 L218 532 L392 672 L316 754 Z " />
<glyph glyph-name="Zdotaccent" unicode="&#x17b;" horiz-adv-x="594" d="M559 592 L559 688 L44 688 L44 582 L355 582 L358 575 L18 98 L18 0 L577 0 L577 106 L218 107 L215 113 L559 592 Z M399 831 C399 878 368 908 315 908 C263 908 235 878 235 831 C235 786 264 755 315 755 C367 755 399 787 399 831 L399 831 Z " />
<glyph glyph-name="zdotaccent" unicode="&#x17c;" horiz-adv-x="467" d="M445 414 L445 492 L35 492 L35 395 L258 395 L260 389 L10 78 L10 0 L458 0 L458 96 L197 96 L194 103 L445 414 Z M330 641 C330 688 299 718 246 718 C194 718 166 688 166 641 C166 596 195 565 246 565 C298 565 330 597 330 641 L330 641 Z " />
<glyph glyph-name="Zcaron" unicode="&#x17d;" horiz-adv-x="594" d="M559 592 L559 688 L44 688 L44 582 L355 582 L358 575 L18 98 L18 0 L577 0 L577 106 L218 107 L215 113 L559 592 Z M326 830 L163 922 L129 883 L283 736 L370 736 L526 881 L491 923 L326 830 Z " />
<glyph glyph-name="zcaron" unicode="&#x17e;" horiz-adv-x="467" d="M445 414 L445 492 L35 492 L35 395 L258 395 L260 389 L10 78 L10 0 L458 0 L458 96 L197 96 L194 103 L445 414 Z M248 641 L83 738 L50 698 L205 543 L292 543 L448 697 L412 738 L248 641 Z " />
<glyph glyph-name="florin" unicode="&#x192;" horiz-adv-x="590" d="M233 311 C233 310 230 280 223 222 C216 164 211 123 206 99 C191 18 169 -12 113 -12 C93 -12 72 -9 49 -4 L23 -97 C58 -110 99 -116 144 -116 C212 -116 262 -92 290 -48 C319 -5 332 36 341 95 C344 112 349 152 356 213 C364 275 368 308 369 311 L477 311 L477 400 L378 400 L386 467 C397 547 420 577 476 577 C496 577 518 574 543 569 L568 662 C532 674 491 680 446 680 C377 680 326 654 298 609 C270 564 259 525 251 466 L243 401 L149 400 L149 311 L233 311 Z " />
<glyph glyph-name="Ohorn" unicode="&#x1a0;" horiz-adv-x="771" d="M688 344 C688 414 677 477 654 532 C729 536 767 583 767 674 L767 758 L681 758 L681 684 C681 633 659 607 616 607 L602 607 C547 669 470 700 370 700 C142 700 46 539 46 342 C46 123 153 -10 370 -10 C472 -10 550 23 605 88 C660 154 688 239 688 344 L688 344 Z M530 342 C530 193 479 97 370 97 C250 97 202 178 202 341 C202 510 258 595 370 595 C477 595 530 511 530 342 L530 342 Z " />
<glyph glyph-name="ohorn" unicode="&#x1a1;" horiz-adv-x="625" d="M389 245 C389 142 356 91 289 91 C209 91 186 146 186 245 C186 349 220 401 289 401 C356 401 389 349 389 245 L389 245 Z M535 245 C535 283 530 317 520 348 C588 362 622 409 622 489 L622 573 L535 573 L535 499 C535 450 517 425 481 422 C438 475 374 502 290 502 C205 502 141 478 100 429 C59 381 38 319 38 244 C38 168 58 107 97 60 C137 13 199 -10 284 -10 C369 -10 432 14 473 62 C514 110 535 171 535 245 L535 245 Z " />
<glyph glyph-name="Uhorn" unicode="&#x1af;" horiz-adv-x="804" d="M498 688 L498 248 C498 145 445 97 357 97 C261 97 213 147 213 248 L213 688 L67 688 L67 253 C67 78 163 -10 355 -10 C548 -10 641 85 641 253 L641 515 L685 515 C775 515 820 562 820 655 L820 754 L731 754 L731 662 C731 611 710 595 663 595 L642 595 L642 688 L498 688 Z " />
<glyph glyph-name="uhorn" unicode="&#x1b0;" horiz-adv-x="664" d="M374 0 L507 0 L507 349 L528 349 C627 349 664 410 664 491 L664 576 L575 576 L575 498 C575 446 559 427 515 427 L507 427 L507 492 L365 492 L365 145 C330 115 295 100 259 100 C204 100 193 124 193 187 L193 492 L50 492 L50 156 C50 105 56 72 76 39 C96 6 136 -11 199 -11 C259 -11 315 11 367 55 L372 53 L374 0 Z " />
<glyph glyph-name="AEacute" unicode="&#x1fc;" horiz-adv-x="1039" d="M983 0 L983 103 L667 103 L667 309 L920 309 L920 407 L667 407 L667 585 L971 585 L971 687 L435 687 L8 0 L165 0 L276 180 L520 180 L520 0 L983 0 Z M520 581 L520 280 L333 280 L423 428 L459 488 L494 547 L514 581 L520 581 Z M715 954 L568 785 L615 736 L791 875 L715 954 Z " />
<glyph glyph-name="aeacute" unicode="&#x1fd;" horiz-adv-x="832" d="M586 503 C521 503 469 479 430 432 C404 478 351 501 271 501 C202 501 135 488 70 461 L95 372 C144 389 196 397 252 397 C324 397 351 375 351 311 L351 291 L208 291 C146 291 101 275 72 243 C43 211 29 174 29 133 C29 97 41 64 66 34 C91 5 132 -10 190 -10 C268 -10 338 14 400 63 C436 16 498 -8 587 -8 C664 -8 730 8 787 39 C784 50 778 67 771 88 L759 125 C705 105 655 95 609 95 C531 95 491 137 490 221 L799 221 L799 263 C799 304 797 338 778 385 C769 408 758 428 743 444 C714 477 658 503 586 503 L586 503 Z M247 81 C200 81 176 104 176 151 C176 183 189 204 216 212 C244 220 261 221 300 221 L350 221 C351 185 356 154 364 127 C333 99 278 81 247 81 L247 81 Z M587 403 C654 403 672 361 672 292 L492 292 C500 359 522 403 587 403 L587 403 Z M529 754 L381 584 L431 532 L605 672 L529 754 Z " />
<glyph glyph-name="Oslashacute" unicode="&#x1fe;" horiz-adv-x="734" d="M688 344 C688 453 662 539 610 602 L693 702 L625 702 L573 637 C520 679 453 700 370 700 C142 700 46 539 46 342 C46 233 72 148 124 87 L47 -8 L108 -8 L158 54 C212 11 283 -10 370 -10 C472 -10 550 23 605 88 C660 154 688 239 688 344 L688 344 Z M202 341 C202 510 258 595 370 595 C421 595 460 576 487 537 L224 203 C209 235 202 281 202 341 L202 341 Z M530 342 C530 193 479 97 370 97 C313 97 271 115 244 152 L507 485 C522 449 530 401 530 342 L530 342 Z M474 948 L327 779 L374 730 L550 869 L474 948 Z " />
<glyph glyph-name="oslashacute" unicode="&#x1ff;" horiz-adv-x="566" d="M531 246 C531 325 511 387 472 432 L501 466 L531 501 L479 501 C476 497 470 489 459 477 L442 457 C401 487 349 502 285 502 C200 502 137 478 96 430 C55 382 35 320 35 245 C35 163 54 101 93 58 L35 -7 L90 -7 L123 33 C162 5 214 -9 279 -9 C367 -9 431 15 471 62 C511 109 531 171 531 246 L531 246 Z M285 91 C252 91 226 101 209 122 L288 221 C328 270 355 305 370 325 C379 306 384 279 384 245 C384 142 351 91 285 91 L285 91 Z M285 400 C316 400 340 389 355 366 C341 347 314 314 274 265 C235 217 208 184 194 165 C186 183 182 210 182 246 C182 349 216 400 285 400 L285 400 Z M383 754 L235 584 L285 532 L459 672 L383 754 Z " />
<glyph glyph-name="Scommaaccent" unicode="&#x218;" horiz-adv-x="623" d="M320 701 C151 701 59 620 59 492 C59 452 72 419 85 396 C98 373 134 350 155 338 C166 332 183 325 204 318 C226 311 243 306 255 303 L313 288 C392 267 426 248 426 195 C426 131 386 104 303 104 C228 104 154 119 79 149 L41 45 C112 8 196 -10 292 -10 C481 -10 581 63 581 195 C581 270 552 325 493 361 C466 377 418 394 351 411 C290 426 265 431 236 455 C221 467 214 481 214 498 C214 555 252 586 315 586 C384 586 446 575 500 552 L538 652 C479 685 406 701 320 701 L320 701 Z M230 -104 C230 -137 245 -156 276 -162 C274 -185 260 -208 233 -231 L264 -270 C325 -241 373 -179 374 -118 C374 -75 348 -41 301 -41 C260 -41 230 -69 230 -104 L230 -104 Z " />
<glyph glyph-name="scommaaccent" unicode="&#x219;" horiz-adv-x="491" d="M258 503 C123 503 50 449 50 354 C50 309 66 277 107 253 C128 242 145 233 159 228 L227 205 C232 204 253 197 260 194 C267 193 284 187 289 183 C306 173 319 163 319 142 C319 106 291 88 236 88 C181 88 123 99 62 121 L31 32 C85 5 152 -8 231 -8 C382 -8 460 44 460 139 C456 208 428 246 376 272 C340 291 319 297 278 309 C277 309 275 310 272 311 C218 325 191 341 191 358 C191 388 215 403 263 403 C308 403 354 394 400 377 L415 421 C424 447 429 462 431 465 C384 490 326 503 258 503 L258 503 Z M169 -104 C169 -137 184 -156 215 -162 C213 -185 199 -208 172 -231 L203 -270 C264 -241 312 -179 313 -118 C313 -75 287 -41 240 -41 C199 -41 169 -69 169 -104 L169 -104 Z " />
<glyph glyph-name="schwa" unicode="&#x259;" horiz-adv-x="533" d="M43 231 C43 190 47 156 64 109 C73 86 85 67 100 50 C131 18 186 -8 259 -8 C450 -8 498 141 498 250 C498 323 486 377 453 426 C421 475 355 503 262 503 C190 503 123 487 61 455 L88 371 C141 392 191 402 239 402 C319 402 358 360 357 276 L43 276 L43 231 Z M258 88 C203 88 174 122 171 190 L353 190 C345 122 313 88 258 88 L258 88 Z " />
<glyph glyph-name="primemod" unicode="&#x2b9;" horiz-adv-x="234" d="M189 702 L36 406 L90 375 L276 653 L189 702 Z " />
<glyph glyph-name="circumflex" unicode="&#x2c6;" horiz-adv-x="556" d="M322 724 L234 724 L80 570 L113 529 L277 625 L442 530 L478 572 L322 724 Z " />
<glyph glyph-name="caron" unicode="&#x2c7;" horiz-adv-x="556" d="M278 641 L113 738 L80 698 L235 543 L322 543 L478 697 L442 738 L278 641 Z " />
<glyph glyph-name="breve" unicode="&#x2d8;" horiz-adv-x="571" d="M282 547 C347 547 421 587 480 678 L437 717 C386 669 336 644 317 641 C308 640 298 639 285 639 C246 639 196 669 156 724 L96 679 C154 591 216 547 282 547 L282 547 Z " />
<glyph glyph-name="dotaccent" unicode="&#x2d9;" horiz-adv-x="559" d="M369 641 C369 688 338 718 285 718 C233 718 205 688 205 641 C205 596 234 565 285 565 C337 565 369 597 369 641 L369 641 Z " />
<glyph glyph-name="ring" unicode="&#x2da;" horiz-adv-x="559" d="M286 548 C319 548 348 560 371 583 C394 606 406 635 406 668 C406 701 394 729 371 752 C348 776 320 788 286 788 C251 788 222 776 197 752 C173 729 161 701 161 668 C161 635 173 606 197 583 C222 560 251 548 286 548 L286 548 Z M286 725 C319 725 341 698 341 665 C341 634 318 608 286 608 C250 608 227 633 227 665 C227 698 251 725 286 725 L286 725 Z " />
<glyph glyph-name="ogonek" unicode="&#x2db;" horiz-adv-x="573" d="M419 38 C330 -22 297 -92 297 -148 C297 -199 335 -229 404 -229 C447 -229 487 -219 525 -199 L513 -153 C481 -160 457 -164 442 -164 C407 -164 389 -149 389 -118 C389 -81 411 -23 444 16 L419 38 L419 38 Z " />
<glyph glyph-name="tilde" unicode="&#x2dc;" horiz-adv-x="556" d="M367 563 C414 563 448 594 469 657 L428 690 L372 649 C357 649 329 655 289 668 C249 681 219 687 200 687 C154 687 120 656 97 595 L138 563 L194 602 C205 602 231 595 270 582 C310 569 342 563 367 563 L367 563 Z " />
<glyph glyph-name="hungarumlaut" unicode="&#x2dd;" horiz-adv-x="559" d="M252 758 L122 573 L174 530 L335 691 L252 758 Z M410 758 L281 573 L332 530 L494 691 L410 758 Z " />
<glyph glyph-name="tonos" unicode="&#x384;" horiz-adv-x="522" d="M304 766 L191 572 L258 529 L402 703 L304 766 Z " />
<glyph glyph-name="dieresistonos" unicode="&#x385;" horiz-adv-x="515" d="M259 764 L182 554 L244 529 L359 721 L259 764 Z M177 617 C177 654 152 677 109 677 C24 685 24 549 109 557 C152 557 177 582 177 617 L177 617 Z M465 617 C465 653 441 677 398 677 C357 677 333 652 333 617 C333 581 356 557 397 557 C438 557 465 582 465 617 L465 617 Z " />
<glyph glyph-name="Alphatonos" unicode="&#x386;" horiz-adv-x="664" d="M428 687 L242 687 L8 0 L155 0 L204 157 L455 157 L503 0 L655 0 L428 687 Z M236 257 L287 433 L329 587 L334 587 L374 438 L425 257 L236 257 Z M53 745 L-60 551 L7 508 L151 682 L53 745 Z " />
<glyph glyph-name="anoteleia" unicode="&#x387;" horiz-adv-x="259" d="M130 295 C179 295 209 324 209 367 C209 410 179 438 130 438 C81 438 53 410 53 367 C53 324 82 295 130 295 L130 295 Z " />
<glyph glyph-name="Epsilontonos" unicode="&#x388;" horiz-adv-x="606" d="M560 105 L221 105 L221 311 L494 311 L494 409 L221 409 L221 584 L546 584 L546 688 L72 688 L72 0 L560 0 L560 105 Z M-73 746 L-186 552 L-119 509 L25 683 L-73 746 Z " />
<glyph glyph-name="Etatonos" unicode="&#x389;" horiz-adv-x="710" d="M636 687 L487 687 L487 413 L220 413 L220 550 C221 611 221 656 221 687 L72 687 L72 0 L221 0 C221 33 221 84 220 152 L220 306 L487 306 L487 0 L636 0 L636 687 Z M-70 743 L-183 549 L-116 506 L28 680 L-70 743 Z " />
<glyph glyph-name="Iotatonos" unicode="&#x38a;" horiz-adv-x="308" d="M227 688 L81 688 L81 0 L227 0 L227 688 Z M-66 743 L-179 549 L-112 506 L32 680 L-66 743 Z " />
<glyph glyph-name="Omicrontonos" unicode="&#x38c;" horiz-adv-x="746" d="M694 344 C694 539 606 700 376 700 C268 700 187 667 133 600 C80 534 53 448 53 342 C53 123 159 -10 376 -10 C478 -10 556 23 611 88 C666 154 694 239 694 344 L694 344 Z M537 342 C537 193 487 97 376 97 C256 97 208 178 208 341 C208 510 264 595 376 595 C483 595 537 511 537 342 L537 342 Z M-26 748 L-139 554 L-72 511 L72 685 L-26 748 Z " />
<glyph glyph-name="Upsilontonos" unicode="&#x38e;" horiz-adv-x="626" d="M390 0 L390 264 L616 687 L465 687 L379 516 L346 444 C332 411 321 388 314 373 L308 373 L247 510 L162 687 L8 687 L232 247 L232 0 L390 0 Z M-110 747 L-223 553 L-156 510 L-12 684 L-110 747 Z " />
<glyph glyph-name="Omegatonos" unicode="&#x38f;" horiz-adv-x="748" d="M611 102 C668 153 696 239 696 359 C696 460 669 542 615 605 C562 669 482 701 375 701 C270 701 190 669 135 604 C81 540 54 457 54 356 C54 227 80 143 131 104 L128 98 L29 98 L29 0 L320 0 L320 101 C239 122 209 204 209 353 C209 488 250 565 331 586 C343 591 358 593 377 593 C496 593 540 504 540 352 C540 205 508 124 424 100 L424 0 L716 0 L716 98 L614 98 L612 101 L611 102 Z M-14 748 L-127 554 L-60 511 L84 685 L-14 748 Z " />
<glyph glyph-name="iotadieresistonos" unicode="&#x390;" horiz-adv-x="301" d="M64 87 C64 22 94 -8 167 -8 C203 -8 237 -1 270 12 L268 98 L207 98 L207 491 L64 491 L64 87 Z M150 764 L73 554 L135 529 L250 721 L150 764 Z M68 617 C68 654 43 677 0 677 C-40 677 -64 653 -64 617 C-64 581 -40 557 0 557 C43 557 68 582 68 617 L68 617 Z M356 617 C356 653 332 677 289 677 C248 677 224 652 224 617 C224 581 247 557 288 557 C329 557 356 582 356 617 L356 617 Z " />
<glyph glyph-name="Alpha" unicode="&#x391;" horiz-adv-x="664" d="M428 687 L242 687 L8 0 L155 0 L204 157 L455 157 L503 0 L655 0 L428 687 Z M236 257 L287 433 L329 587 L334 587 L374 438 L425 257 L236 257 Z " />
<glyph glyph-name="Beta" unicode="&#x392;" horiz-adv-x="658" d="M496 363 C559 392 584 451 584 503 C584 615 511 687 372 687 L72 687 L72 0 L385 0 C450 0 502 18 542 55 C582 92 602 140 602 200 C602 237 599 271 564 312 C547 333 525 349 496 358 L496 363 Z M344 305 C413 305 452 263 452 206 C452 145 417 104 344 104 L219 104 L219 305 L344 305 Z M330 583 C399 583 433 552 433 491 C433 436 397 405 330 405 L219 405 L219 583 L330 583 Z " />
<glyph glyph-name="Gamma" unicode="&#x393;" horiz-adv-x="575" d="M223 582 L549 582 L549 688 L76 688 L76 0 L223 0 L223 582 Z " />
<glyph glyph-name="&amp;#x394;" unicode="&#x394;" horiz-adv-x="721" d="M450 687 L273 687 L171 419 C112 262 67 141 38 57 L38 0 L680 0 L680 60 L450 687 Z M399 451 C408 426 423 380 444 314 C465 248 490 176 518 98 L190 98 C261 298 303 415 314 450 C322 478 335 519 354 574 L361 574 L399 451 Z " />
<glyph glyph-name="&amp;#x2206;" unicode="&#x2206;" horiz-adv-x="721" d="M450 687 L273 687 L171 419 C112 262 67 141 38 57 L38 0 L680 0 L680 60 L450 687 Z M399 451 C408 426 423 380 444 314 C465 248 490 176 518 98 L190 98 C261 298 303 415 314 450 C322 478 335 519 354 574 L361 574 L399 451 Z " />
<glyph glyph-name="Epsilon" unicode="&#x395;" horiz-adv-x="606" d="M560 105 L221 105 L221 311 L494 311 L494 409 L221 409 L221 584 L546 584 L546 688 L72 688 L72 0 L560 0 L560 105 Z " />
<glyph glyph-name="Zeta" unicode="&#x396;" horiz-adv-x="594" d="M559 592 L559 688 L44 688 L44 582 L355 582 L358 575 L18 98 L18 0 L577 0 L577 106 L218 107 L215 113 L559 592 Z " />
<glyph glyph-name="Eta" unicode="&#x397;" horiz-adv-x="710" d="M636 687 L487 687 L487 413 L220 413 L220 550 C221 611 221 656 221 687 L72 687 L72 0 L221 0 C221 33 221 84 220 152 L220 306 L487 306 L487 0 L636 0 L636 687 Z " />
<glyph glyph-name="Theta" unicode="&#x398;" horiz-adv-x="741" d="M488 308 L488 402 L251 402 L251 308 L488 308 Z M695 344 C695 539 604 700 373 700 C226 700 123 627 79 522 C57 470 46 410 46 342 C46 123 156 -10 373 -10 C475 -10 554 23 610 88 C667 154 695 239 695 344 L695 344 Z M538 342 C538 194 484 97 373 97 C253 97 202 180 202 341 C202 510 259 595 373 595 C483 595 538 511 538 342 L538 342 Z " />
<glyph glyph-name="Iota" unicode="&#x399;" horiz-adv-x="308" d="M227 688 L81 688 L81 0 L227 0 L227 688 Z " />
<glyph glyph-name="Kappa" unicode="&#x39a;" horiz-adv-x="665" d="M218 687 L72 687 L72 0 L218 0 L218 258 L279 320 L482 0 L656 0 L379 418 L641 687 L470 687 L267 467 L225 419 L218 419 L218 687 Z " />
<glyph glyph-name="Lambda" unicode="&#x39b;" horiz-adv-x="670" d="M364 482 L506 0 L659 0 L432 688 L246 688 C235 651 196 538 130 348 C65 159 25 43 12 0 L159 0 L307 481 C313 500 322 531 334 576 L338 576 L364 482 Z " />
<glyph glyph-name="Mu" unicode="&#x39c;" horiz-adv-x="890" d="M673 0 L817 0 L817 687 L641 687 C633 669 617 632 594 575 C571 519 555 481 546 462 L448 219 L440 219 L344 464 L254 687 L72 687 L72 0 L214 0 L214 229 C215 340 215 417 215 459 L218 459 L262 344 C267 334 306 240 381 62 L502 62 L620 337 L670 464 L673 464 L673 0 Z " />
<glyph glyph-name="Nu" unicode="&#x39d;" horiz-adv-x="742" d="M433 354 L221 687 L72 687 L72 0 L214 0 L214 483 C215 483 218 484 219 484 L288 370 L521 0 L669 0 L669 687 L526 687 L526 214 L520 214 L433 354 Z " />
<glyph glyph-name="Xi" unicode="&#x39e;" horiz-adv-x="596" d="M26 0 L569 0 L569 119 L26 119 L26 0 Z M556 688 L38 688 L38 568 L556 568 L556 688 Z M499 412 L100 412 L100 303 L499 303 L499 412 Z " />
<glyph glyph-name="Omicron" unicode="&#x39f;" horiz-adv-x="746" d="M694 344 C694 539 606 700 376 700 C268 700 187 667 133 600 C80 534 53 448 53 342 C53 123 159 -10 376 -10 C478 -10 556 23 611 88 C666 154 694 239 694 344 L694 344 Z M537 342 C537 193 487 97 376 97 C256 97 208 178 208 341 C208 510 264 595 376 595 C483 595 537 511 537 342 L537 342 Z " />
<glyph glyph-name="Pi" unicode="&#x3a0;" horiz-adv-x="725" d="M645 688 L80 688 L80 0 L229 0 L228 580 L495 580 L495 0 L645 0 L645 688 Z " />
<glyph glyph-name="Rho" unicode="&#x3a1;" horiz-adv-x="597" d="M569 477 C569 609 486 688 333 688 L72 688 L72 0 L221 0 L220 264 L345 264 C420 264 476 285 513 328 C550 371 569 420 569 477 L569 477 Z M312 584 C377 584 419 549 419 474 C419 398 376 365 317 365 L220 365 L220 584 L312 584 Z " />
<glyph glyph-name="Sigma" unicode="&#x3a3;" horiz-adv-x="600" d="M378 345 L378 373 L339 426 L268 523 C245 555 232 573 229 576 L235 583 L560 583 L560 688 L36 688 L36 603 C41 597 71 556 126 479 C181 403 211 363 215 358 L30 88 L30 0 L572 0 L572 107 L229 107 L223 113 L378 345 Z " />
<glyph glyph-name="Tau" unicode="&#x3a4;" horiz-adv-x="610" d="M379 581 L596 581 L596 688 L14 688 L14 581 L232 581 L232 0 L378 0 L379 581 Z " />
<glyph glyph-name="Upsilon" unicode="&#x3a5;" horiz-adv-x="626" d="M390 0 L390 264 L616 687 L465 687 L379 516 L346 444 C332 411 321 388 314 373 L308 373 L247 510 L162 687 L8 687 L232 247 L232 0 L390 0 Z " />
<glyph glyph-name="Phi" unicode="&#x3a6;" horiz-adv-x="867" d="M509 531 C633 523 682 449 682 349 C682 249 617 178 509 169 L509 531 Z M364 169 C243 179 183 239 183 348 C183 449 240 520 364 531 L364 169 Z M364 687 L364 634 C261 629 181 599 123 546 C65 493 36 427 36 350 C36 182 148 78 364 67 L364 0 L508 0 L508 67 C712 80 829 188 829 352 C829 431 802 496 748 548 C695 601 615 629 508 634 L508 687 L364 687 Z " />
<glyph glyph-name="Chi" unicode="&#x3a7;" horiz-adv-x="646" d="M6 0 L172 0 L320 259 L472 0 L638 0 L413 354 L633 687 L466 687 L328 446 L192 687 L24 687 L234 357 L6 0 Z " />
<glyph glyph-name="Psi" unicode="&#x3a8;" horiz-adv-x="862" d="M361 688 L361 287 C268 294 212 345 212 436 L212 688 L67 688 L67 451 C67 282 165 193 361 184 L361 0 L504 0 L504 185 C693 190 794 287 794 444 L794 688 L651 688 L651 439 C651 343 602 292 504 287 L504 688 L361 688 Z " />
<glyph glyph-name="Omega" unicode="&#x3a9;" horiz-adv-x="748" d="M611 102 C668 153 696 239 696 359 C696 460 669 542 615 605 C562 669 482 701 375 701 C270 701 190 669 135 604 C81 540 54 457 54 356 C54 227 80 143 131 104 L128 98 L29 98 L29 0 L320 0 L320 101 C239 122 209 204 209 353 C209 488 250 565 331 586 C343 591 358 593 377 593 C496 593 540 504 540 352 C540 205 508 124 424 100 L424 0 L716 0 L716 98 L614 98 L612 101 L611 102 L611 102 Z " />
<glyph glyph-name="Iotadieresis" unicode="&#x3aa;" horiz-adv-x="308" d="M122 787 C122 824 96 849 51 849 C8 849 -17 824 -17 787 C-17 751 7 725 51 725 C95 725 122 751 122 787 L122 787 Z M333 787 C333 826 307 849 262 849 C221 849 195 824 195 787 C195 751 219 725 262 725 C307 725 333 751 333 787 L333 787 Z M227 688 L81 688 L81 0 L227 0 L227 688 Z " />
<glyph glyph-name="Upsilondieresis" unicode="&#x3ab;" horiz-adv-x="626" d="M390 0 L390 264 L616 687 L465 687 L379 516 L346 444 C332 411 321 388 314 373 L308 373 L247 510 L162 687 L8 687 L232 247 L232 0 L390 0 Z M276 786 C276 823 250 848 205 848 C162 848 137 823 137 786 C137 750 161 724 205 724 C249 724 276 750 276 786 L276 786 Z M487 786 C487 825 461 848 416 848 C375 848 349 823 349 786 C349 750 373 724 416 724 C461 724 487 750 487 786 L487 786 Z " />
<glyph glyph-name="alphatonos" unicode="&#x3ac;" horiz-adv-x="606" d="M374 140 C339 111 303 97 268 97 C207 97 176 148 176 249 C176 338 212 397 280 397 C313 397 345 385 374 361 L374 140 Z M385 455 C348 483 301 497 246 497 C95 497 33 371 33 243 C33 166 47 104 75 59 C104 14 153 -9 224 -9 C284 -9 338 9 386 45 C399 4 427 -8 479 -8 C513 -7 545 -1 576 10 C575 19 575 33 574 52 C573 71 573 86 572 95 L516 95 L516 491 L406 491 L390 456 L385 455 Z M308 766 L195 572 L262 529 L406 703 L308 766 Z " />
<glyph glyph-name="epsilontonos" unicode="&#x3ad;" horiz-adv-x="466" d="M115 255 C66 238 34 191 34 139 C34 43 116 -11 252 -11 C327 -11 394 4 453 34 L424 127 C374 107 327 97 284 97 C219 97 186 113 186 160 C186 196 213 214 252 214 L325 214 L325 308 L260 308 C215 308 192 323 192 354 C192 389 217 406 267 406 C307 406 352 398 401 383 L427 476 C379 495 319 505 248 505 C119 505 41 444 41 356 C41 312 72 275 115 260 L115 255 Z M281 769 L168 575 L235 532 L379 706 L281 769 Z " />
<glyph glyph-name="etatonos" unicode="&#x3ae;" horiz-adv-x="569" d="M518 334 C518 427 494 503 364 503 C308 503 250 483 191 444 L187 446 C186 466 185 481 185 491 L49 491 L49 0 L193 0 L193 355 C234 380 271 392 305 392 C362 392 375 363 375 304 L375 0 L518 0 L518 334 Z M303 766 L190 572 L257 529 L401 703 L303 766 Z " />
<glyph glyph-name="iotatonos" unicode="&#x3af;" horiz-adv-x="301" d="M64 87 C64 22 94 -8 167 -8 C203 -8 237 -1 270 12 L268 98 L207 98 L207 491 L64 491 L64 87 Z M180 766 L67 572 L134 529 L278 703 L180 766 Z " />
<glyph glyph-name="upsilondieresistonos" unicode="&#x3b0;" horiz-adv-x="563" d="M368 193 C368 132 332 95 279 95 C222 95 194 126 194 187 L194 492 L51 492 L51 189 C51 68 132 -9 280 -9 C420 -9 513 71 513 207 L513 492 L368 492 L368 193 Z M292 764 L215 554 L277 529 L392 721 L292 764 Z M210 617 C210 654 185 677 142 677 C102 677 78 653 78 617 C78 581 102 557 142 557 C185 557 210 582 210 617 L210 617 Z M498 617 C498 653 474 677 431 677 C390 677 366 652 366 617 C366 581 389 557 430 557 C471 557 498 582 498 617 L498 617 Z " />
<glyph glyph-name="alpha" unicode="&#x3b1;" horiz-adv-x="606" d="M374 140 C339 111 303 97 268 97 C207 97 176 148 176 249 C176 338 212 397 280 397 C313 397 345 385 374 361 L374 140 Z M385 455 C348 483 301 497 246 497 C95 497 33 371 33 243 C33 166 47 104 75 59 C104 14 153 -9 224 -9 C284 -9 338 9 386 45 C399 4 427 -8 479 -8 C513 -7 545 -1 576 10 C575 19 575 33 574 52 C573 71 573 86 572 95 L516 95 L516 491 L406 491 L390 456 L385 455 Z " />
<glyph glyph-name="beta" unicode="&#x3b2;" horiz-adv-x="560" d="M419 412 C440 425 456 445 468 471 C480 497 486 521 486 542 C486 653 409 723 269 723 C92 723 42 601 42 475 L42 202 L42 13 C42 -32 42 -69 41 -98 L41 -189 L184 -189 L184 17 C185 20 187 21 188 22 C222 1 265 -9 316 -9 C444 -9 525 74 525 221 C525 318 490 379 419 405 L419 412 Z M270 623 C317 623 353 584 353 536 C353 476 318 440 262 440 L232 440 L232 354 L268 354 C346 354 385 314 385 233 C385 146 349 94 282 94 C245 94 213 103 185 121 L185 518 C185 588 213 623 270 623 L270 623 Z " />
<glyph glyph-name="gamma" unicode="&#x3b3;" horiz-adv-x="562" d="M354 -208 L354 3 L540 492 L394 492 L326 277 C320 258 307 212 288 141 L284 141 C275 170 266 201 257 236 L237 311 C218 380 205 425 197 445 C182 484 163 502 123 502 C88 502 47 489 0 462 L16 388 L68 394 L213 -5 L212 -208 L354 -208 Z " />
<glyph glyph-name="delta" unicode="&#x3b4;" horiz-adv-x="575" d="M307 725 C178 725 108 670 108 573 C108 526 133 486 182 452 C135 434 100 404 76 361 C53 319 41 274 41 227 C41 87 120 -9 284 -9 C463 -9 533 111 533 236 C533 316 502 381 440 432 C413 453 364 482 293 518 C263 537 248 555 248 572 C248 609 278 627 318 627 C363 627 407 619 451 604 L480 696 C431 715 373 725 307 725 L307 725 Z M389 233 C389 138 355 91 286 91 C210 91 185 143 185 227 C185 306 222 374 286 390 C355 354 389 302 389 233 L389 233 Z " />
<glyph glyph-name="epsilon" unicode="&#x3b5;" horiz-adv-x="466" d="M115 255 C66 238 34 191 34 139 C34 43 116 -11 252 -11 C327 -11 394 4 453 34 L424 127 C374 107 327 97 284 97 C219 97 186 113 186 160 C186 196 213 214 252 214 L325 214 L325 308 L260 308 C215 308 192 323 192 354 C192 389 217 406 267 406 C307 406 352 398 401 383 L427 476 C379 495 319 505 248 505 C119 505 41 444 41 356 C41 312 72 275 115 260 L115 255 L115 255 Z " />
<glyph glyph-name="zeta" unicode="&#x3b6;" horiz-adv-x="437" d="M297 600 C218 539 154 471 106 396 C58 321 34 258 34 206 C30 165 49 132 64 109 C73 96 103 77 115 68 C121 64 133 58 150 51 L186 36 L230 20 C252 13 267 7 275 4 C311 -8 320 -14 320 -31 C320 -44 298 -76 255 -126 L320 -188 C358 -157 390 -124 417 -89 C444 -54 458 -24 458 1 C458 26 449 45 431 58 C414 71 374 90 312 115 C261 134 225 150 206 164 C187 179 178 200 178 227 C178 275 204 333 255 402 C306 471 378 543 469 618 L469 704 L61 704 L61 606 L295 606 C295 605 296 603 297 600 L297 600 Z " />
<glyph glyph-name="eta" unicode="&#x3b7;" horiz-adv-x="569" d="M518 334 C518 427 494 503 364 503 C308 503 250 483 191 444 L187 446 C186 466 185 481 185 491 L49 491 L49 0 L193 0 L193 355 C234 380 271 392 305 392 C362 392 375 363 375 304 L375 0 L518 0 L518 334 Z " />
<glyph glyph-name="theta" unicode="&#x3b8;" horiz-adv-x="572" d="M533 361 C533 603 451 724 288 724 C195 724 126 684 89 612 C53 541 37 459 37 354 C37 249 50 171 85 100 C120 31 187 -9 282 -9 C375 -9 444 32 480 103 C517 174 533 257 533 361 L533 361 Z M389 321 C388 169 362 90 286 90 C242 90 213 107 200 142 C187 177 180 236 180 321 L389 321 Z M181 413 C182 478 188 518 201 559 C216 600 244 621 287 621 C328 621 356 599 369 558 C382 517 387 477 388 413 L181 413 Z " />
<glyph glyph-name="iota" unicode="&#x3b9;" horiz-adv-x="301" d="M64 87 C64 22 94 -8 167 -8 C203 -8 237 -1 270 12 L268 98 L207 98 L207 491 L64 491 L64 87 L64 87 Z " />
<glyph glyph-name="kappa" unicode="&#x3ba;" horiz-adv-x="531" d="M193 418 C194 434 194 458 194 490 L49 490 L49 0 L194 0 L194 172 L237 216 L368 0 L526 0 L364 257 L328 299 L513 491 L353 491 L195 322 C192 322 190 322 189 323 L193 418 Z " />
<glyph glyph-name="lambda" unicode="&#x3bb;" horiz-adv-x="579" d="M292 373 C339 202 368 98 379 62 C394 14 413 -8 464 -8 C505 -8 540 -2 569 10 L562 92 L519 92 L359 622 C334 705 290 733 214 733 C181 733 143 727 102 714 L111 668 L120 623 C141 627 159 629 174 629 C207 629 217 616 228 579 L264 461 L186 461 L5 0 L149 0 L232 217 L262 301 L287 373 L292 373 L292 373 Z " />
<glyph glyph-name="nu" unicode="&#x3bd;" horiz-adv-x="551" d="M276 95 C271 108 263 136 252 181 C241 226 233 253 230 263 L159 491 L9 491 L177 0 L372 0 L541 491 L397 491 L369 399 C351 340 338 298 329 273 C316 231 283 99 281 95 L276 95 L276 95 Z " />
<glyph glyph-name="xi" unicode="&#x3be;" horiz-adv-x="465" d="M138 388 C67 352 31 288 31 197 C32 162 42 133 53 112 C65 91 91 69 108 56 C127 44 166 25 186 16 L232 -1 C252 -9 268 -15 279 -20 C319 -36 331 -47 326 -68 C326 -77 310 -103 279 -146 L353 -203 C430 -130 468 -70 468 -22 C468 29 426 59 325 95 C265 116 224 135 203 152 C182 169 171 192 171 220 C171 289 216 341 303 341 L400 341 L400 438 L308 438 C239 438 186 468 186 528 C186 587 226 621 291 621 C336 621 383 614 430 601 L441 649 L453 697 C406 717 349 727 281 727 C130 727 48 652 45 543 C45 472 76 423 139 396 L138 388 L138 388 Z " />
<glyph glyph-name="omicron" unicode="&#x3bf;" horiz-adv-x="577" d="M285 -10 C372 -10 436 14 476 61 C517 109 537 171 537 246 C537 321 517 383 478 430 C439 478 376 502 291 502 C206 502 142 478 101 430 C60 382 40 320 40 245 C40 168 59 107 98 60 C137 13 200 -10 285 -10 L285 -10 Z M389 245 C389 142 356 91 291 91 C211 91 187 146 187 245 C187 349 222 401 291 401 C356 401 389 349 389 245 L389 245 Z " />
<glyph glyph-name="pi" unicode="&#x3c0;" horiz-adv-x="570" d="M519 245 C520 375 520 457 520 491 L50 491 L50 0 L192 0 L192 397 L376 397 L376 0 L519 0 L519 245 Z " />
<glyph glyph-name="rho" unicode="&#x3c1;" horiz-adv-x="571" d="M191 16 C224 -1 265 -9 313 -9 C462 -9 534 89 534 249 C534 401 455 501 296 501 C128 501 42 398 41 221 L41 25 C41 -74 41 -151 40 -205 L185 -205 L185 12 C188 13 190 15 191 16 L191 16 Z M286 398 C356 398 391 349 391 252 C391 132 348 94 281 94 C249 94 206 108 186 121 L186 266 C186 346 218 398 286 398 L286 398 Z " />
<glyph glyph-name="sigma1" unicode="&#x3c2;" horiz-adv-x="473" d="M284 502 C197 502 134 478 93 431 C53 384 33 322 33 245 C33 182 47 132 76 96 C105 61 157 28 232 -2 C277 -21 294 -33 294 -48 C295 -72 269 -101 249 -130 L329 -189 C402 -114 439 -54 439 -9 C439 12 430 29 412 44 C395 59 362 78 314 100 C255 127 218 150 201 169 C185 188 177 216 177 251 C177 342 223 396 304 396 C347 396 386 391 422 380 L443 477 C393 494 340 502 284 502 L284 502 Z " />
<glyph glyph-name="sigma" unicode="&#x3c3;" horiz-adv-x="586" d="M565 397 L565 491 L286 491 C203 491 140 467 97 420 C54 373 33 312 33 239 C33 87 115 -7 280 -7 C439 -7 526 89 526 234 C526 306 508 358 472 391 C472 392 473 396 474 397 L565 397 Z M281 391 C348 391 382 340 382 239 C382 148 348 90 281 90 C212 90 177 139 177 238 C177 340 212 391 281 391 L281 391 Z " />
<glyph glyph-name="tau" unicode="&#x3c4;" horiz-adv-x="445" d="M5 398 L113 398 L113 138 C113 41 171 -8 288 -8 C342 -8 390 1 431 20 L413 112 C379 103 351 99 329 99 C274 99 254 120 254 175 L254 398 L409 398 L409 492 L5 492 L5 398 Z " />
<glyph glyph-name="upsilon" unicode="&#x3c5;" horiz-adv-x="563" d="M368 193 C368 132 332 95 279 95 C222 95 194 126 194 187 L194 492 L51 492 L51 189 C51 68 132 -9 280 -9 C420 -9 513 71 513 207 L513 492 L368 492 L368 193 Z " />
<glyph glyph-name="phi" unicode="&#x3c6;" horiz-adv-x="749" d="M34 245 C34 87 124 3 304 -7 L304 -205 L439 -205 L439 -9 C622 -2 714 98 714 250 C714 325 692 386 648 432 C605 479 544 502 466 502 L306 502 L306 89 C210 94 175 148 175 245 C175 334 204 393 263 420 L222 494 C94 459 34 362 34 245 L34 245 Z M571 250 C571 147 527 93 440 89 L440 402 C527 399 571 349 571 250 L571 250 Z " />
<glyph glyph-name="chi" unicode="&#x3c7;" horiz-adv-x="520" d="M514 0 L347 257 L506 491 L353 491 L263 325 L174 491 L17 491 L173 256 L4 0 L157 0 L261 182 L358 0 L514 0 Z " />
<glyph glyph-name="psi" unicode="&#x3c8;" horiz-adv-x="762" d="M452 -210 L452 -6 C533 -3 596 18 642 57 C689 96 712 146 712 206 L712 491 L572 491 L572 199 C572 142 529 101 452 97 L452 574 L311 574 L311 97 C230 102 190 142 190 199 L190 491 L50 491 L49 206 C49 146 72 96 119 57 C166 18 230 -3 311 -6 L311 -210 L452 -210 Z " />
<glyph glyph-name="omega" unicode="&#x3c9;" horiz-adv-x="785" d="M333 174 C333 127 308 93 261 93 C196 93 176 148 176 241 C176 329 204 386 259 411 L235 501 C95 480 34 379 34 242 C34 75 104 -9 245 -9 C305 -9 360 20 389 72 L393 72 C418 19 473 -9 534 -9 C608 -9 662 14 697 61 C732 108 750 168 750 242 C750 379 689 480 550 501 L525 411 C580 386 608 329 608 241 C608 141 583 93 523 93 C480 93 457 127 456 174 L455 332 L333 332 L333 174 Z " />
<glyph glyph-name="iotadieresis" unicode="&#x3ca;" horiz-adv-x="301" d="M103 623 C103 660 77 685 32 685 C-11 685 -36 660 -36 623 C-36 587 -12 561 32 561 C76 561 103 587 103 623 L103 623 Z M314 623 C314 662 288 685 243 685 C202 685 176 660 176 623 C176 587 200 561 243 561 C288 561 314 587 314 623 L314 623 Z M64 87 C64 22 94 -8 167 -8 C203 -8 237 -1 270 12 L268 98 L207 98 L207 491 L64 491 L64 87 Z " />
<glyph glyph-name="upsilondieresis" unicode="&#x3cb;" horiz-adv-x="563" d="M244 623 C244 660 218 685 173 685 C130 685 105 660 105 623 C105 587 129 561 173 561 C217 561 244 587 244 623 L244 623 Z M455 623 C455 662 429 685 384 685 C343 685 317 660 317 623 C317 587 341 561 384 561 C429 561 455 587 455 623 L455 623 Z M368 193 C368 132 332 95 279 95 C222 95 194 126 194 187 L194 492 L51 492 L51 189 C51 68 132 -9 280 -9 C420 -9 513 71 513 207 L513 492 L368 492 L368 193 Z " />
<glyph glyph-name="omicrontonos" unicode="&#x3cc;" horiz-adv-x="550" d="M285 -10 C372 -10 436 14 476 61 C517 109 537 171 537 246 C537 321 517 383 478 430 C439 478 376 502 291 502 C206 502 142 478 101 430 C60 382 40 320 40 245 C40 168 59 107 98 60 C137 13 200 -10 285 -10 L285 -10 Z M389 245 C389 142 356 91 291 91 C211 91 187 146 187 245 C187 349 222 401 291 401 C356 401 389 349 389 245 L389 245 Z M323 766 L210 572 L277 529 L421 703 L323 766 Z " />
<glyph glyph-name="upsilontonos" unicode="&#x3cd;" horiz-adv-x="563" d="M368 193 C368 132 332 95 279 95 C222 95 194 126 194 187 L194 492 L51 492 L51 189 C51 68 132 -9 280 -9 C420 -9 513 71 513 207 L513 492 L368 492 L368 193 Z M328 766 L215 572 L282 529 L426 703 L328 766 Z " />
<glyph glyph-name="omegatonos" unicode="&#x3ce;" horiz-adv-x="785" d="M333 174 C333 127 308 93 261 93 C196 93 176 148 176 241 C176 329 204 386 259 411 L235 501 C95 480 34 379 34 242 C34 75 104 -9 245 -9 C305 -9 360 20 389 72 L393 72 C418 19 473 -9 534 -9 C608 -9 662 14 697 61 C732 108 750 168 750 242 C750 379 689 480 550 501 L525 411 C580 386 608 329 608 241 C608 141 583 93 523 93 C480 93 457 127 456 174 L455 332 L333 332 L333 174 Z M436 763 L323 569 L390 526 L534 700 L436 763 Z " />
<glyph glyph-name="Stigmagreek" unicode="&#x3da;" horiz-adv-x="697" d="M40 397 C40 318 68 251 125 196 C182 141 276 98 407 67 C486 48 508 33 508 2 C508 -5 506 -11 502 -18 C496 -27 477 -45 444 -72 L473 -106 L503 -141 C596 -83 643 -29 643 21 C643 108 569 151 416 194 C325 219 261 247 225 278 C189 310 171 349 171 396 C171 500 263 564 444 569 C542 572 617 585 670 608 L641 712 C588 695 517 685 426 683 C166 674 40 562 40 397 L40 397 Z " />
<glyph glyph-name="stigmagreek" unicode="&#x3db;" horiz-adv-x="585" d="M39 280 C39 156 119 70 319 21 C374 8 389 -1 389 -22 C389 -35 373 -54 341 -79 L391 -140 C468 -93 507 -49 507 -8 C507 59 447 96 330 129 C197 168 149 213 149 280 C149 357 217 404 349 408 C428 410 487 420 526 438 L501 529 C458 515 403 507 335 505 C138 497 39 411 39 280 L39 280 Z " />
<glyph glyph-name="Digammagreek" unicode="&#x3dc;" horiz-adv-x="573" d="M215 0 C215 23 215 73 214 152 L214 306 L437 303 L437 400 L214 397 L214 593 L529 593 L529 690 L76 690 C76 642 76 527 75 344 L75 0 L215 0 L215 0 Z " />
<glyph glyph-name="digammagreek" unicode="&#x3dd;" horiz-adv-x="591" d="M215 -195 C215 -172 215 -121 214 -42 L214 110 L437 107 L437 204 L214 201 L214 396 L529 397 L529 493 L76 493 C76 445 76 330 75 148 L75 -195 L215 -195 L215 -195 Z " />
<glyph glyph-name="Koppagreek" unicode="&#x3de;" horiz-adv-x="633" d="M102 271 C100 266 99 259 99 249 C99 222 119 202 151 202 C160 202 171 204 183 208 L413 281 L326 8 C323 -5 322 -16 322 -25 C322 -62 348 -87 397 -87 C424 -87 457 -78 495 -59 C534 -41 566 -19 591 8 L560 62 L429 18 L528 328 C529 337 530 343 530 346 C530 371 514 389 485 389 C474 389 462 387 450 382 L219 310 L335 602 C340 615 343 628 343 641 C343 684 313 708 265 708 C232 708 198 696 162 673 C126 650 94 625 67 596 L108 539 L234 589 L102 271 L102 271 Z " />
<glyph glyph-name="koppagreek" unicode="&#x3df;" horiz-adv-x="484" d="M196 525 C172 525 144 517 111 501 C79 486 51 467 26 445 L57 387 L171 432 L130 262 C130 258 128 246 128 243 C128 216 144 203 177 203 L321 203 L179 -129 L304 -143 L433 220 C436 231 438 243 438 254 C438 280 421 293 386 293 L314 293 C283 294 259 294 243 294 L272 420 C275 433 276 447 276 461 C276 504 249 525 196 525 L196 525 Z " />
<glyph glyph-name="Sampigreek" unicode="&#x3e0;" horiz-adv-x="669" d="M38 650 C179 635 289 582 369 491 L92 337 L140 260 L285 351 L416 432 C436 405 453 373 468 336 L176 171 L220 95 L491 265 C505 209 512 153 512 98 C512 49 507 -11 497 -82 L567 -95 C589 -8 600 70 600 141 C600 306 553 440 458 545 C363 650 226 707 47 717 L38 650 L38 650 Z " />
<glyph glyph-name="sampigreek" unicode="&#x3e1;" horiz-adv-x="600" d="M46 446 C155 435 243 395 312 324 L87 201 L132 128 L358 270 C375 245 388 220 397 197 L161 65 L203 -8 L418 131 C429 92 434 51 434 6 C434 -37 430 -88 421 -148 L493 -161 C511 -88 520 -21 520 40 C520 176 481 287 403 374 C325 461 210 508 58 515 L46 446 L46 446 Z " />
<glyph glyph-name="afii10023" unicode="&#x401;" horiz-adv-x="606" d="M280 785 C280 822 254 847 209 847 C166 847 141 822 141 785 C141 749 165 723 209 723 C253 723 280 749 280 785 L280 785 Z M491 785 C491 824 465 847 420 847 C379 847 353 822 353 785 C353 749 377 723 420 723 C465 723 491 749 491 785 L491 785 Z M560 105 L221 105 L221 311 L494 311 L494 409 L221 409 L221 584 L546 584 L546 688 L72 688 L72 0 L560 0 L560 105 Z " />
<glyph glyph-name="afii10051" unicode="&#x402;" horiz-adv-x="845" d="M799 212 C799 352 706 433 565 433 C505 433 446 422 389 401 L389 581 L661 581 L661 688 L25 688 L25 581 L243 581 L242 0 L389 0 L389 302 C434 319 477 328 520 328 C597 328 644 281 644 188 C644 99 605 21 527 -46 L589 -122 C646 -88 696 -42 737 16 C778 74 799 139 799 212 L799 212 Z " />
<glyph glyph-name="afii10052" unicode="&#x403;" horiz-adv-x="575" d="M223 582 L549 582 L549 688 L76 688 L76 0 L223 0 L223 582 Z M384 955 L237 786 L284 737 L460 876 L384 955 Z " />
<glyph glyph-name="afii10053" unicode="&#x404;" horiz-adv-x="627" d="M385 701 C227 701 139 629 93 536 C61 471 51 408 51 339 C51 235 71 157 118 92 C166 27 254 -9 375 -9 C461 -9 533 3 592 26 C581 71 574 106 569 129 C518 114 465 107 408 107 C274 107 208 174 209 309 L451 305 L451 411 C342 408 263 407 212 406 C217 521 290 584 402 584 C455 584 503 578 546 566 L569 672 C508 691 446 701 385 701 L385 701 Z " />
<glyph glyph-name="afii10054" unicode="&#x405;" horiz-adv-x="623" d="M320 701 C151 701 59 620 59 492 C59 452 72 419 85 396 C98 373 134 350 155 338 C166 332 183 325 204 318 C226 311 243 306 255 303 L313 288 C392 267 426 248 426 195 C426 131 386 104 303 104 C228 104 154 119 79 149 L41 45 C112 8 196 -10 292 -10 C481 -10 581 63 581 195 C581 270 552 325 493 361 C466 377 418 394 351 411 C290 426 265 431 236 455 C221 467 214 481 214 498 C214 555 252 586 315 586 C384 586 446 575 500 552 L538 652 C479 685 406 701 320 701 L320 701 Z " />
<glyph glyph-name="afii10055" unicode="&#x406;" horiz-adv-x="308" d="M227 688 L81 688 L81 0 L227 0 L227 688 Z " />
<glyph glyph-name="afii10056" unicode="&#x407;" horiz-adv-x="308" d="M120 787 C120 824 94 849 49 849 C6 849 -19 824 -19 787 C-19 751 5 725 49 725 C93 725 120 751 120 787 L120 787 Z M331 787 C331 826 305 849 260 849 C219 849 193 824 193 787 C193 751 217 725 260 725 C305 725 331 751 331 787 L331 787 Z M227 688 L81 688 L81 0 L227 0 L227 688 Z " />
<glyph glyph-name="afii10057" unicode="&#x408;" horiz-adv-x="365" d="M126 156 C126 96 114 49 90 16 C67 -17 20 -53 -51 -90 L-16 -192 C177 -145 273 -37 273 151 L274 689 L127 689 L126 156 L126 156 Z " />
<glyph glyph-name="afii10058" unicode="&#x409;" horiz-adv-x="1037" d="M729 319 C792 319 842 282 842 211 C842 139 797 101 736 101 L610 101 L610 319 L729 319 Z M177 491 C177 474 175 466 175 450 C168 343 164 280 152 223 C147 195 138 172 127 154 C106 118 71 92 14 71 L49 -32 C103 -21 146 -3 179 21 C230 59 264 123 281 213 C290 261 300 364 310 521 L314 586 L463 586 L463 0 L773 0 C908 0 996 79 996 210 C996 342 900 419 755 419 L610 419 L610 688 L189 688 L177 491 Z " />
<glyph glyph-name="afii10059" unicode="&#x40a;" horiz-adv-x="1019" d="M756 0 C892 0 979 78 979 210 C979 342 883 419 738 419 L593 419 L593 688 L445 688 L445 418 L220 418 L220 688 L73 688 L73 0 L220 0 L220 318 L445 318 L445 0 L756 0 Z M713 318 C777 318 826 282 826 210 C826 139 781 101 720 101 L593 101 L593 318 L713 318 Z " />
<glyph glyph-name="afii10060" unicode="&#x40b;" horiz-adv-x="825" d="M769 273 C769 392 680 445 549 445 C490 445 431 435 371 414 L371 581 L637 581 L637 688 L16 688 L16 581 L223 581 L223 0 L370 0 L370 306 C415 326 462 336 509 336 C583 336 620 306 620 245 L620 0 L769 0 L769 273 L769 273 Z " />
<glyph glyph-name="afii10061" unicode="&#x40c;" horiz-adv-x="655" d="M465 367 C508 386 538 427 553 488 L603 685 L461 685 L415 510 C399 447 361 416 302 416 L217 416 L217 686 L72 686 L72 0 L217 0 L217 307 L310 307 C378 307 412 276 429 211 L487 0 L635 0 L571 238 C552 303 525 346 464 362 L465 367 Z M417 954 L270 785 L317 736 L493 875 L417 954 Z " />
<glyph glyph-name="afii10062" unicode="&#x40e;" horiz-adv-x="636" d="M259 436 L162 688 L15 688 L235 178 L272 178 L256 136 C244 103 227 94 198 94 C180 94 153 98 117 105 L94 5 C142 -8 188 -15 233 -15 C308 -15 353 16 385 96 L620 688 L475 688 L383 436 L324 270 L319 270 L259 436 Z M323 720 C397 720 461 763 516 849 L478 887 C423 834 373 808 327 808 C288 808 237 840 197 893 L139 849 C196 763 257 720 323 720 L323 720 Z " />
<glyph glyph-name="afii10145" unicode="&#x40f;" horiz-adv-x="718" d="M419 -185 L419 0 L645 0 L645 687 L495 687 L496 103 L220 103 L220 687 L73 687 L73 0 L302 0 L302 -185 L419 -185 Z " />
<glyph glyph-name="afii10017" unicode="&#x410;" horiz-adv-x="664" d="M428 687 L242 687 L8 0 L155 0 L204 157 L455 157 L503 0 L655 0 L428 687 Z M236 257 L287 433 L329 587 L334 587 L374 438 L425 257 L236 257 Z " />
<glyph glyph-name="afii10018" unicode="&#x411;" horiz-adv-x="635" d="M370 0 C506 0 593 83 593 215 C593 347 500 419 352 419 L207 419 L207 587 L525 587 L525 688 L59 688 L59 0 L370 0 Z M326 319 C393 319 439 286 439 214 C439 143 394 101 335 101 L207 101 L207 319 L326 319 Z " />
<glyph glyph-name="afii10019" unicode="&#x412;" horiz-adv-x="658" d="M496 363 C559 392 584 451 584 503 C584 615 511 687 372 687 L72 687 L72 0 L385 0 C450 0 502 18 542 55 C582 92 602 140 602 200 C602 237 599 271 564 312 C547 333 525 349 496 358 L496 363 Z M344 305 C413 305 452 263 452 206 C452 145 417 104 344 104 L219 104 L219 305 L344 305 Z M330 583 C399 583 433 552 433 491 C433 436 397 405 330 405 L219 405 L219 583 L330 583 Z " />
<glyph glyph-name="afii10020" unicode="&#x413;" horiz-adv-x="575" d="M223 582 L549 582 L549 688 L76 688 L76 0 L223 0 L223 582 Z " />
<glyph glyph-name="afii10021" unicode="&#x414;" horiz-adv-x="753" d="M609 -176 L723 -176 L723 101 L652 103 L652 688 L208 688 L198 549 C189 428 178 334 163 267 C148 200 121 145 81 103 L15 101 L15 -176 L129 -176 L129 0 L609 0 L609 -176 Z M506 587 L506 103 L233 103 C264 140 286 188 297 246 C309 304 320 395 329 520 L334 587 L506 587 Z " />
<glyph glyph-name="afii10022" unicode="&#x415;" horiz-adv-x="606" d="M560 105 L221 105 L221 311 L494 311 L494 409 L221 409 L221 584 L546 584 L546 688 L72 688 L72 0 L560 0 L560 105 Z " />
<glyph glyph-name="afii10024" unicode="&#x416;" horiz-adv-x="999" d="M800 367 C843 386 872 426 889 488 L939 685 L799 685 L752 510 C736 447 699 416 640 416 L571 416 L571 686 L425 686 L425 416 L357 416 C304 416 265 437 245 510 L198 685 L57 685 L111 475 C125 422 155 385 200 364 L199 361 C146 348 109 307 90 238 L26 0 L173 0 L231 211 C248 275 289 307 353 307 L425 307 L425 0 L571 0 L571 307 L645 307 C709 307 750 275 767 211 L824 0 L970 0 L907 238 C889 305 853 347 799 362 L800 367 L800 367 Z " />
<glyph glyph-name="afii10025" unicode="&#x417;" horiz-adv-x="615" d="M292 700 C207 700 129 685 58 655 L84 560 C139 581 197 592 260 592 C346 592 389 564 389 507 C389 484 378 462 355 441 C333 421 304 411 269 411 L187 411 L187 318 L275 318 C355 318 409 282 409 219 C409 141 355 102 247 102 C188 102 125 113 58 134 L27 37 C88 8 170 -6 271 -6 C357 -6 427 13 481 52 C536 91 563 145 563 215 C563 286 519 350 447 374 L445 378 C509 409 544 470 544 525 C544 586 521 631 474 658 C427 686 367 700 292 700 L292 700 Z " />
<glyph glyph-name="afii10026" unicode="&#x418;" horiz-adv-x="728" d="M511 687 C498 664 465 610 412 524 C359 439 323 379 303 344 L221 211 L217 211 L217 448 C218 554 218 633 218 686 L72 686 L72 0 L218 0 L313 152 L506 468 L510 468 L510 0 L654 0 L654 686 C623 687 575 687 511 687 L511 687 Z " />
<glyph glyph-name="afii10027" unicode="&#x419;" horiz-adv-x="728" d="M511 687 C498 664 465 610 412 524 C359 439 323 379 303 344 L221 211 L217 211 L217 448 C218 554 218 633 218 686 L72 686 L72 0 L218 0 L313 152 L506 468 L510 468 L510 0 L654 0 L654 686 C623 687 575 687 511 687 L511 687 Z M353 747 C418 747 492 787 551 878 L508 917 C457 869 407 844 388 841 C379 840 369 839 356 839 C317 839 267 869 227 924 L167 879 C225 791 287 747 353 747 L353 747 Z " />
<glyph glyph-name="afii10028" unicode="&#x41a;" horiz-adv-x="655" d="M465 367 C508 386 538 427 553 488 L603 685 L461 685 L415 510 C399 447 361 416 302 416 L217 416 L217 686 L72 686 L72 0 L217 0 L217 307 L310 307 C378 307 412 276 429 211 L487 0 L635 0 L571 238 C552 303 525 346 464 362 L465 367 L465 367 Z " />
<glyph glyph-name="afii10029" unicode="&#x41b;" horiz-adv-x="696" d="M624 688 L190 688 L178 489 C178 474 176 464 176 450 C161 192 156 126 15 71 L47 -32 C121 -18 167 11 206 44 C230 65 250 107 263 135 C270 149 275 169 280 194 L292 260 C295 279 298 305 301 338 C304 372 306 400 307 423 L312 521 L315 584 L476 584 L477 0 L624 0 L624 688 Z " />
<glyph glyph-name="afii10030" unicode="&#x41c;" horiz-adv-x="890" d="M673 0 L817 0 L817 687 L641 687 C633 669 617 632 594 575 C571 519 555 481 546 462 L448 219 L440 219 L344 464 L254 687 L72 687 L72 0 L214 0 L214 229 C215 340 215 417 215 459 L218 459 L262 344 C267 334 306 240 381 62 L502 62 L620 337 L670 464 L673 464 L673 0 Z " />
<glyph glyph-name="afii10031" unicode="&#x41d;" horiz-adv-x="710" d="M636 687 L487 687 L487 413 L220 413 L220 550 C221 611 221 656 221 687 L72 687 L72 0 L221 0 C221 33 221 84 220 152 L220 306 L487 306 L487 0 L636 0 L636 687 Z " />
<glyph glyph-name="afii10032" unicode="&#x41e;" horiz-adv-x="746" d="M694 344 C694 539 606 700 376 700 C268 700 187 667 133 600 C80 534 53 448 53 342 C53 123 159 -10 376 -10 C478 -10 556 23 611 88 C666 154 694 239 694 344 L694 344 Z M537 342 C537 193 487 97 376 97 C256 97 208 178 208 341 C208 510 264 595 376 595 C483 595 537 511 537 342 L537 342 Z " />
<glyph glyph-name="afii10033" unicode="&#x41f;" horiz-adv-x="725" d="M645 688 L80 688 L80 0 L229 0 L228 580 L495 580 L495 0 L645 0 L645 688 Z " />
<glyph glyph-name="afii10034" unicode="&#x420;" horiz-adv-x="597" d="M569 477 C569 609 486 688 333 688 L72 688 L72 0 L221 0 L220 264 L345 264 C420 264 476 285 513 328 C550 371 569 420 569 477 L569 477 Z M312 584 C377 584 419 549 419 474 C419 398 376 365 317 365 L220 365 L220 584 L312 584 Z " />
<glyph glyph-name="afii10035" unicode="&#x421;" horiz-adv-x="627" d="M385 701 C122 700 51 502 52 340 C52 236 71 159 119 92 C167 27 254 -10 377 -10 C459 -10 531 2 593 27 L569 129 C514 114 461 107 408 107 C263 107 208 182 208 345 C208 505 273 585 404 585 C452 585 500 578 547 565 L568 673 C509 692 448 701 385 701 L385 701 Z " />
<glyph glyph-name="afii10036" unicode="&#x422;" horiz-adv-x="610" d="M379 581 L596 581 L596 688 L14 688 L14 581 L232 581 L232 0 L378 0 L379 581 Z " />
<glyph glyph-name="afii10037" unicode="&#x423;" horiz-adv-x="636" d="M259 436 L162 688 L15 688 L235 178 L272 178 L256 136 C244 103 227 94 198 94 C180 94 153 98 117 105 L94 5 C142 -8 188 -15 233 -15 C308 -15 353 16 385 96 L620 688 L475 688 L383 436 L324 270 L319 270 L259 436 Z " />
<glyph glyph-name="afii10038" unicode="&#x424;" horiz-adv-x="867" d="M509 531 C633 523 682 449 682 349 C682 249 617 178 509 169 L509 531 Z M364 169 C243 179 183 239 183 348 C183 449 240 520 364 531 L364 169 Z M364 687 L364 634 C261 629 181 599 123 546 C65 493 36 427 36 350 C36 182 148 78 364 67 L364 0 L508 0 L508 67 C712 80 829 188 829 352 C829 431 802 496 748 548 C695 601 615 629 508 634 L508 687 L364 687 Z " />
<glyph glyph-name="afii10039" unicode="&#x425;" horiz-adv-x="646" d="M6 0 L172 0 L320 259 L472 0 L638 0 L413 354 L633 687 L466 687 L328 446 L192 687 L24 687 L234 357 L6 0 Z " />
<glyph glyph-name="afii10040" unicode="&#x426;" horiz-adv-x="755" d="M725 -175 L725 103 L637 103 L637 687 L488 687 L488 103 L220 103 L220 687 L73 687 L73 0 L615 0 L615 -175 L725 -175 Z " />
<glyph glyph-name="afii10041" unicode="&#x427;" horiz-adv-x="671" d="M451 686 L451 389 C408 372 361 364 310 364 C235 364 195 391 195 463 L195 686 L46 686 L46 433 C46 299 157 255 285 255 C340 255 396 263 451 279 L451 0 L598 0 L598 686 L451 686 Z " />
<glyph glyph-name="afii10042" unicode="&#x428;" horiz-adv-x="995" d="M922 688 L773 688 L773 103 L568 103 L568 688 L425 688 L425 103 L219 103 L219 688 L73 688 L73 0 L922 0 L922 688 Z " />
<glyph glyph-name="afii10043" unicode="&#x429;" horiz-adv-x="1039" d="M1009 -176 L1009 103 L922 103 L922 688 L773 688 L773 103 L568 103 L568 688 L425 688 L425 103 L219 103 L219 688 L73 688 L73 0 L900 0 L900 -176 L1009 -176 Z " />
<glyph glyph-name="afii10044" unicode="&#x42a;" horiz-adv-x="823" d="M18 688 L18 584 L250 584 L249 0 L556 0 C695 0 783 71 783 210 C783 277 760 328 713 364 C667 401 607 419 534 419 L396 419 L397 688 L18 688 Z M514 323 C579 323 628 283 628 211 C628 138 584 97 521 97 L396 97 L396 323 L514 323 Z " />
<glyph glyph-name="afii10045" unicode="&#x42b;" horiz-adv-x="903" d="M384 0 C519 0 607 79 607 210 C607 342 511 419 366 419 L221 419 L220 688 L73 688 L73 0 L384 0 Z M340 319 C403 319 453 282 453 211 C453 139 408 101 347 101 L221 101 L221 319 L340 319 Z M831 688 L685 688 L685 0 L831 0 L831 688 Z " />
<glyph glyph-name="afii10046" unicode="&#x42c;" horiz-adv-x="647" d="M384 0 C519 0 607 79 607 210 C607 342 511 419 366 419 L221 419 L221 688 L73 688 L73 0 L384 0 Z M340 319 C403 319 453 282 453 211 C453 139 408 101 347 101 L221 101 L221 319 L340 319 Z " />
<glyph glyph-name="afii10047" unicode="&#x42d;" horiz-adv-x="620" d="M233 -8 C487 -8 567 169 567 364 C567 588 455 700 231 700 C170 700 112 690 57 670 L78 566 C123 578 170 584 221 584 C336 584 397 521 408 410 L167 415 L167 310 L409 314 C400 171 340 107 204 107 C153 107 101 114 49 128 L26 25 C79 3 148 -8 233 -8 L233 -8 Z " />
<glyph glyph-name="afii10048" unicode="&#x42e;" horiz-adv-x="1014" d="M962 343 C962 538 884 700 653 700 C556 700 483 673 433 619 C384 566 354 494 344 404 L219 404 L219 688 L73 688 L73 0 L219 0 L219 310 L343 310 C352 109 453 -9 653 -9 C754 -9 831 23 883 87 C936 152 962 237 962 343 L962 343 Z M807 342 C807 191 760 97 653 97 C540 97 494 178 494 341 C494 508 547 592 653 592 C716 592 759 564 779 512 C800 461 807 411 807 342 L807 342 Z " />
<glyph glyph-name="afii10049" unicode="&#x42f;" horiz-adv-x="650" d="M182 312 C131 293 107 259 87 192 L32 0 L179 0 C190 45 208 105 231 180 C254 252 289 277 354 277 L429 277 L429 0 L577 0 L577 688 L291 688 C143 688 70 604 70 485 C70 410 111 343 182 316 L182 312 Z M219 479 C219 546 261 583 324 583 L429 583 L429 379 L324 379 C267 379 219 407 219 479 L219 479 Z " />
<glyph glyph-name="afii10065" unicode="&#x430;" horiz-adv-x="579" d="M484 330 C484 451 416 501 291 501 C212 501 141 487 78 460 L101 371 C152 388 204 396 257 396 C326 396 348 371 348 311 L348 299 L281 295 L214 291 C105 284 32 230 32 133 C32 76 63 -10 184 -10 C251 -10 307 10 354 51 L356 49 C360 4 387 -10 435 -10 C480 -10 520 -2 555 15 L548 95 L484 95 L484 330 Z M348 126 C315 97 281 82 247 82 C202 82 180 103 180 145 C180 186 203 208 249 212 L348 220 L348 126 Z " />
<glyph glyph-name="afii10066" unicode="&#x431;" horiz-adv-x="566" d="M268 675 C149 627 77 553 52 454 C41 415 36 346 36 249 C36 114 91 -8 278 -8 C363 -8 426 16 467 63 C508 110 529 169 529 240 C529 389 465 482 318 482 C253 482 201 458 163 410 C162 411 160 412 159 412 C180 486 203 524 261 557 C282 570 300 579 315 586 C330 593 353 603 382 615 C423 632 459 650 490 667 C484 681 471 709 450 750 C427 738 380 719 323 696 L268 675 Z M287 386 C351 386 383 337 383 238 C383 140 350 91 283 91 C195 92 180 162 180 233 C180 273 189 308 207 339 C225 370 252 386 287 386 L287 386 Z " />
<glyph glyph-name="afii10067" unicode="&#x432;" horiz-adv-x="556" d="M439 264 C481 285 502 319 502 365 C502 445 442 491 342 491 L50 491 L50 0 L352 0 C449 0 520 55 520 142 C520 202 493 242 439 262 L439 264 Z M309 212 C352 212 373 189 373 154 C373 118 352 94 309 94 L192 94 L192 212 L309 212 Z M300 397 C335 397 359 380 359 348 C359 315 336 296 304 296 L192 296 L192 397 L300 397 Z " />
<glyph glyph-name="afii10068" unicode="&#x433;" horiz-adv-x="451" d="M192 394 L444 394 L444 492 L50 492 L50 0 L192 0 L192 394 Z " />
<glyph glyph-name="afii10069" unicode="&#x434;" horiz-adv-x="619" d="M150 492 L143 386 C137 300 129 235 119 192 C110 149 93 117 68 96 L20 94 L20 -147 L128 -147 L128 0 L482 0 L482 -149 L586 -149 L586 94 L535 96 L536 492 L150 492 Z M393 96 L214 96 C232 119 245 151 252 190 C260 229 266 286 270 359 L272 395 L393 395 L393 96 Z " />
<glyph glyph-name="afii10070" unicode="&#x435;" horiz-adv-x="544" d="M280 504 C188 504 120 469 87 414 C54 359 40 305 40 245 C40 172 53 117 88 68 C123 20 190 -8 286 -8 C366 -8 435 8 494 41 L465 129 C410 108 357 98 307 98 C220 98 184 136 184 213 L505 213 L505 264 C505 308 503 338 486 386 C477 410 465 430 450 445 C421 477 360 504 280 504 L280 504 Z M286 413 C344 413 374 376 375 301 L186 301 C192 376 225 413 286 413 L286 413 Z " />
<glyph glyph-name="afii10072" unicode="&#x436;" horiz-adv-x="849" d="M493 216 L545 216 C593 216 623 201 640 149 L664 70 C675 37 682 13 687 0 L827 0 L773 173 C758 218 735 246 686 261 L686 263 C722 276 747 306 760 352 L798 490 L665 490 L628 369 C616 326 587 304 542 304 L493 304 L493 491 L353 491 L353 304 L306 304 C261 304 231 326 218 369 L182 490 L49 490 C63 443 76 397 87 352 C100 307 125 277 161 263 L161 261 C112 246 90 218 74 173 L48 91 C37 52 27 21 20 0 L161 0 L207 149 C221 194 253 216 303 216 L353 216 L353 0 L493 0 L493 216 Z " />
<glyph glyph-name="afii10073" unicode="&#x437;" horiz-adv-x="488" d="M359 270 C404 286 435 328 435 373 C435 453 371 504 239 504 C166 504 101 492 42 468 L64 384 C113 400 160 408 205 408 C260 408 288 390 288 354 C288 321 258 302 214 302 L150 302 L150 219 L225 219 C275 219 300 200 300 162 C300 114 261 90 182 90 C146 90 101 98 47 114 L20 25 C77 2 143 -10 216 -10 C364 -10 449 52 449 151 C449 203 416 249 359 265 L359 270 L359 270 Z " />
<glyph glyph-name="afii10074" unicode="&#x438;" horiz-adv-x="581" d="M530 491 L393 491 L252 279 L197 193 L192 193 L192 491 L49 491 L49 0 L185 0 L311 187 L382 297 L387 297 L387 0 L530 0 L530 491 Z " />
<glyph glyph-name="afii10075" unicode="&#x439;" horiz-adv-x="581" d="M530 491 L393 491 L252 279 L197 193 L192 193 L192 491 L49 491 L49 0 L185 0 L311 187 L382 297 L387 297 L387 0 L530 0 L530 491 Z M289 546 C354 546 428 586 487 677 L444 716 C393 668 343 643 324 640 C315 639 305 638 292 638 C253 638 203 668 163 723 L103 678 C161 590 223 546 289 546 L289 546 Z " />
<glyph glyph-name="afii10076" unicode="&#x43a;" horiz-adv-x="564" d="M189 216 L259 216 C307 216 337 201 354 149 C357 142 372 92 400 0 L540 0 L487 173 C472 218 443 248 400 261 L400 263 C437 277 461 307 473 352 C485 391 498 437 512 490 L379 490 L342 369 C330 326 301 304 256 304 L189 304 L189 491 L49 491 L49 0 L189 0 L189 216 Z " />
<glyph glyph-name="afii10077" unicode="&#x43b;" horiz-adv-x="548" d="M497 492 L129 492 L122 348 C118 253 109 187 96 152 C83 117 53 89 6 69 L49 -38 C136 -20 185 32 211 93 C230 132 240 196 244 247 C247 273 249 305 250 344 L252 395 L354 395 L354 0 L497 0 L497 492 Z " />
<glyph glyph-name="afii10078" unicode="&#x43c;" horiz-adv-x="707" d="M656 491 L504 491 L410 308 L360 201 L354 201 L300 312 L205 491 L49 491 L50 0 L188 0 L188 282 L193 282 L243 183 L317 48 L399 48 L471 186 L515 278 L520 278 L520 0 L656 0 L656 491 Z " />
<glyph glyph-name="afii10079" unicode="&#x43d;" horiz-adv-x="572" d="M521 491 L378 491 L378 306 L193 306 L193 491 L49 491 L49 0 L193 0 L193 212 L378 212 L378 0 L521 0 L521 491 Z " />
<glyph glyph-name="afii10080" unicode="&#x43e;" horiz-adv-x="577" d="M285 -10 C372 -10 436 14 476 61 C517 109 537 171 537 246 C537 321 517 383 478 430 C439 478 376 502 291 502 C206 502 142 478 101 430 C60 382 40 320 40 245 C40 168 59 107 98 60 C137 13 200 -10 285 -10 L285 -10 Z M389 245 C389 142 356 91 291 91 C211 91 187 146 187 245 C187 349 222 401 291 401 C356 401 389 349 389 245 L389 245 Z " />
<glyph glyph-name="afii10081" unicode="&#x43f;" horiz-adv-x="570" d="M519 245 C520 375 520 457 520 491 L50 491 L50 0 L192 0 L192 397 L376 397 L376 0 L519 0 L519 245 Z " />
<glyph glyph-name="afii10082" unicode="&#x440;" horiz-adv-x="575" d="M184 492 L50 492 L50 -209 L192 -209 L192 20 C225 1 269 -9 324 -9 C469 -9 534 92 534 248 C534 415 469 499 340 499 C287 499 237 481 192 444 L187 448 L184 492 Z M291 92 C254 92 221 101 193 119 L193 357 C204 366 220 375 241 383 C262 391 279 395 294 395 C355 395 391 361 391 254 C391 146 358 92 291 92 L291 92 Z " />
<glyph glyph-name="afii10083" unicode="&#x441;" horiz-adv-x="485" d="M184 246 C184 338 227 392 306 392 C345 392 380 387 413 378 C418 401 426 434 435 478 C390 494 339 502 282 502 C187 502 118 468 85 413 C52 360 39 304 39 240 C39 104 88 -8 276 -8 C349 -8 410 5 461 31 L434 126 C385 109 341 101 302 101 C217 101 184 151 184 246 L184 246 Z " />
<glyph glyph-name="afii10084" unicode="&#x442;" horiz-adv-x="497" d="M320 0 L320 394 L487 394 L487 492 L10 492 L10 394 L177 394 L178 0 L320 0 Z " />
<glyph glyph-name="afii10085" unicode="&#x443;" horiz-adv-x="536" d="M260 91 C256 106 244 163 237 194 L198 336 L155 491 L14 491 L166 11 L230 11 C230 10 227 0 220 -19 C214 -39 211 -50 210 -51 C194 -98 174 -112 129 -112 C118 -112 94 -109 58 -104 L38 -198 C87 -211 130 -217 166 -217 C246 -217 300 -176 329 -93 L526 491 L381 491 L295 197 L267 90 L260 91 L260 91 Z " />
<glyph glyph-name="afii10086" unicode="&#x444;" horiz-adv-x="755" d="M446 -209 L446 -9 C627 1 717 88 717 253 C717 405 627 498 446 502 L446 715 L307 715 L308 502 C131 497 38 398 38 246 C38 179 53 125 92 76 C131 27 205 -4 308 -8 L307 -209 L446 -209 Z M446 407 C547 402 581 342 581 246 C581 145 536 92 446 85 L446 407 Z M173 246 C173 345 218 398 308 407 L308 85 C218 89 173 143 173 246 L173 246 Z " />
<glyph glyph-name="afii10087" unicode="&#x445;" horiz-adv-x="520" d="M514 0 L347 257 L506 491 L353 491 L263 325 L174 491 L17 491 L173 256 L4 0 L157 0 L261 182 L358 0 L514 0 Z " />
<glyph glyph-name="afii10088" unicode="&#x446;" horiz-adv-x="607" d="M579 -147 L579 96 L518 96 L518 491 L375 491 L375 96 L193 96 L193 491 L50 491 L50 0 L469 0 L469 -147 L579 -147 Z " />
<glyph glyph-name="afii10089" unicode="&#x447;" horiz-adv-x="544" d="M492 492 L349 492 L349 290 C319 276 285 269 246 269 C194 269 177 297 177 352 L177 491 L34 491 L34 326 C34 217 88 162 196 162 C254 162 305 172 349 193 L349 0 L492 0 L492 492 Z " />
<glyph glyph-name="afii10090" unicode="&#x448;" horiz-adv-x="805" d="M755 492 L612 492 L612 96 L472 96 L472 492 L330 492 L330 96 L193 96 L193 492 L50 492 L50 0 L755 0 L755 492 Z " />
<glyph glyph-name="afii10091" unicode="&#x449;" horiz-adv-x="835" d="M815 -147 L815 96 L755 96 L755 492 L612 492 L612 96 L472 96 L472 492 L330 492 L330 96 L193 96 L193 492 L50 492 L50 0 L706 0 L706 -147 L815 -147 Z " />
<glyph glyph-name="afii10092" unicode="&#x44a;" horiz-adv-x="697" d="M13 491 L13 395 L198 395 L198 0 L499 0 C548 0 589 15 621 45 C653 76 669 115 669 164 C669 263 596 327 489 327 L340 327 L340 491 L13 491 Z M449 242 C496 242 528 211 528 166 C528 122 500 91 455 91 L340 91 L340 242 L449 242 Z " />
<glyph glyph-name="afii10093" unicode="&#x44b;" horiz-adv-x="762" d="M301 242 C348 242 380 211 380 166 C380 122 352 92 307 92 L191 92 L191 242 L301 242 Z M49 0 L351 0 C400 0 441 15 472 45 C504 76 520 115 520 164 C520 213 503 252 469 282 C435 312 392 327 341 327 L191 327 L191 491 L49 491 L49 0 Z M711 491 L568 491 L568 0 L711 0 L711 491 Z " />
<glyph glyph-name="afii10094" unicode="&#x44c;" horiz-adv-x="551" d="M301 242 C348 242 380 211 380 166 C380 122 352 92 307 92 L191 92 L191 242 L301 242 Z M49 0 L351 0 C400 0 441 15 472 45 C504 76 520 115 520 164 C520 213 503 252 469 282 C435 312 392 327 341 327 L191 327 L191 491 L49 491 L49 0 Z " />
<glyph glyph-name="afii10095" unicode="&#x44d;" horiz-adv-x="484" d="M299 222 C296 142 252 89 175 89 C140 89 97 97 46 113 L20 30 C70 4 128 -9 195 -9 C290 -9 358 24 393 77 C429 130 443 188 443 260 C443 422 362 503 200 503 C145 503 92 493 43 473 L65 388 C106 399 145 405 181 405 C254 405 294 367 299 291 L131 295 L131 219 L299 222 Z " />
<glyph glyph-name="afii10096" unicode="&#x44e;" horiz-adv-x="790" d="M192 216 L271 216 C282 80 357 -10 505 -10 C587 -10 648 14 688 62 C729 110 749 171 749 246 C749 321 729 382 690 430 C651 479 592 503 512 503 C371 503 290 419 273 296 L192 296 L192 492 L50 492 L50 0 L192 0 L192 216 Z M512 401 C575 401 606 349 606 246 C606 143 575 91 512 91 C435 91 413 148 413 245 C413 333 441 401 512 401 L512 401 Z " />
<glyph glyph-name="afii10097" unicode="&#x44f;" horiz-adv-x="564" d="M140 217 C109 206 87 179 72 134 L26 0 L170 0 L214 129 C231 178 255 192 303 192 L372 192 L372 0 L513 0 L513 493 L243 493 C119 493 59 426 59 338 C59 283 84 236 139 219 L140 217 Z M202 342 C202 386 228 408 281 408 L372 408 L372 274 L281 274 C237 274 202 294 202 342 L202 342 Z " />
<glyph glyph-name="afii10071" unicode="&#x451;" horiz-adv-x="544" d="M280 504 C188 504 120 469 87 414 C54 359 40 305 40 245 C40 172 53 117 88 68 C123 20 190 -8 286 -8 C366 -8 435 8 494 41 L465 129 C410 108 357 98 307 98 C220 98 184 136 184 213 L505 213 L505 264 C505 308 503 338 486 386 C477 410 465 430 450 445 C421 477 360 504 280 504 L280 504 Z M286 413 C344 413 374 376 375 301 L186 301 C192 376 225 413 286 413 L286 413 Z M238 622 C238 659 212 684 167 684 C124 684 99 659 99 622 C99 586 123 560 167 560 C211 560 238 586 238 622 L238 622 Z M449 622 C449 661 423 684 378 684 C337 684 311 659 311 622 C311 586 335 560 378 560 C423 560 449 586 449 622 L449 622 Z " />
<glyph glyph-name="afii10099" unicode="&#x452;" horiz-adv-x="576" d="M56 542 L56 0 L200 0 L200 326 C240 345 274 354 303 354 C366 354 397 306 397 209 C397 152 388 113 370 92 C353 71 323 60 281 58 L279 -39 C283 -39 295 -40 299 -40 C488 -40 538 71 538 206 C538 375 478 456 342 456 C299 456 251 444 196 421 L196 481 C197 508 197 529 197 542 L398 542 L399 602 L198 602 L198 715 L56 715 L56 602 L5 602 L5 542 L56 542 Z " />
<glyph glyph-name="afii10100" unicode="&#x453;" horiz-adv-x="451" d="M192 394 L444 394 L444 492 L50 492 L50 0 L192 0 L192 394 Z M304 772 L156 602 L206 550 L380 690 L304 772 Z " />
<glyph glyph-name="afii10101" unicode="&#x454;" horiz-adv-x="490" d="M346 286 C274 285 220 283 183 282 C190 362 233 402 310 402 C343 402 378 397 416 386 C417 393 421 406 426 427 L437 476 C392 493 341 502 284 502 C81 501 38 354 39 238 C40 103 85 -8 282 -8 C354 -8 414 5 463 31 L436 116 C387 99 344 91 305 91 C229 91 188 132 183 214 L346 212 L346 286 Z " />
<glyph glyph-name="afii10102" unicode="&#x455;" horiz-adv-x="491" d="M258 503 C123 503 50 449 50 354 C50 309 66 277 107 253 C128 242 145 233 159 228 L227 205 C232 204 253 197 260 194 C267 193 284 187 289 183 C306 173 319 163 319 142 C319 106 291 88 236 88 C181 88 123 99 62 121 L31 32 C85 5 152 -8 231 -8 C382 -8 460 44 460 139 C456 208 428 246 376 272 C340 291 319 297 278 309 C277 309 275 310 272 311 C218 325 191 341 191 358 C191 388 215 403 263 403 C308 403 354 394 400 377 L415 421 C424 447 429 462 431 465 C384 490 326 503 258 503 L258 503 Z " />
<glyph glyph-name="afii10103" unicode="&#x456;" horiz-adv-x="299" d="M220 491 L77 491 L77 0 L220 0 L220 491 Z M233 627 C233 672 201 704 148 704 C97 704 66 672 66 627 C66 583 97 551 148 551 C201 551 233 583 233 627 L233 627 Z " />
<glyph glyph-name="afii10104" unicode="&#x457;" horiz-adv-x="299" d="M117 623 C117 660 91 685 46 685 C3 685 -22 660 -22 623 C-22 587 2 561 46 561 C90 561 117 587 117 623 L117 623 Z M328 623 C328 662 302 685 257 685 C216 685 190 660 190 623 C190 587 214 561 257 561 C302 561 328 587 328 623 L328 623 Z M220 491 L77 491 L77 0 L220 0 L220 491 Z " />
<glyph glyph-name="afii10105" unicode="&#x458;" horiz-adv-x="307" d="M83 56 C83 7 75 -29 60 -52 C45 -75 12 -101 -40 -131 C-36 -137 -4 -221 -1 -228 C81 -206 139 -174 173 -133 C207 -92 225 -33 226 46 C227 57 227 206 227 491 L83 491 L83 56 Z M240 627 C240 672 208 704 156 704 C104 704 74 672 74 627 C74 582 104 551 156 551 C208 551 240 583 240 627 L240 627 Z " />
<glyph glyph-name="afii10106" unicode="&#x459;" horiz-adv-x="841" d="M593 242 C641 242 672 212 672 167 C672 123 644 93 599 93 L487 93 L487 242 L593 242 Z M120 492 L112 348 C112 338 111 333 111 324 C106 229 97 166 86 133 C75 100 47 75 2 56 L38 -39 C87 -27 126 -4 151 19 C178 43 198 89 207 121 C212 137 217 159 221 188 C225 217 228 241 229 260 C231 279 233 307 235 344 L238 395 L345 395 L345 0 L644 0 C693 0 734 15 765 46 C797 77 813 116 813 165 C813 213 796 252 761 283 C727 314 685 329 634 329 L487 329 L487 492 L120 492 Z " />
<glyph glyph-name="afii10107" unicode="&#x45a;" horiz-adv-x="846" d="M354 492 L355 314 L193 314 L193 492 L50 492 L50 0 L193 0 L193 221 L355 221 L355 0 L654 0 C701 0 740 15 771 44 C802 74 818 113 818 161 C818 211 801 249 766 276 C732 303 689 316 638 316 L496 316 L496 492 L354 492 Z M602 229 C647 229 678 204 678 160 C678 117 649 93 608 93 L496 93 L496 229 L602 229 Z " />
<glyph glyph-name="afii10108" unicode="&#x45b;" horiz-adv-x="587" d="M536 304 C536 355 529 389 508 422 C488 455 446 473 382 473 C332 473 274 454 207 417 L207 482 C208 511 208 533 208 547 L389 547 L389 608 L209 608 L209 715 L68 715 L68 608 L5 608 L5 547 L68 547 L68 0 L211 0 L211 325 C252 350 289 362 324 362 C380 362 393 335 393 274 L393 0 L536 0 L536 304 Z " />
<glyph glyph-name="afii10109" unicode="&#x45c;" horiz-adv-x="564" d="M189 216 L259 216 C307 216 337 201 354 149 C357 142 372 92 400 0 L540 0 L487 173 C472 218 443 248 400 261 L400 263 C437 277 461 307 473 352 C485 391 498 437 512 490 L379 490 L342 369 C330 326 301 304 256 304 L189 304 L189 491 L49 491 L49 0 L189 0 L189 216 Z M343 754 L195 584 L245 532 L419 672 L343 754 Z " />
<glyph glyph-name="afii10110" unicode="&#x45e;" horiz-adv-x="536" d="M238 194 C231 217 218 266 197 341 L156 491 L14 491 L166 11 L230 11 L210 -51 C195 -98 174 -112 129 -112 C122 -112 99 -109 58 -103 L38 -198 C86 -211 127 -217 160 -217 C245 -217 302 -176 329 -93 L526 491 L382 491 L296 197 C287 165 277 129 268 89 L261 89 L238 194 Z M268 547 C333 547 407 587 466 678 L423 717 C372 669 322 644 303 641 C294 640 284 639 271 639 C232 639 182 669 142 724 L82 679 C140 591 202 547 268 547 L268 547 Z " />
<glyph glyph-name="afii10193" unicode="&#x45f;" horiz-adv-x="573" d="M522 491 L379 491 L379 96 L192 96 L192 491 L49 491 L49 0 L231 0 L231 -154 L344 -154 L344 0 L522 0 L522 491 Z " />
<glyph glyph-name="afii10050" unicode="&#x490;" horiz-adv-x="576" d="M223 585 L553 585 C553 611 553 650 552 701 L552 817 L450 817 L450 687 L75 687 L75 0 L223 0 L223 585 Z " />
<glyph glyph-name="afii10098" unicode="&#x491;" horiz-adv-x="473" d="M192 397 L452 397 L452 605 L354 605 L354 492 L50 492 L50 0 L192 0 L192 397 Z " />
<glyph glyph-name="schwacyrillic" unicode="&#x4d9;" horiz-adv-x="533" d="M43 231 C43 190 47 156 64 109 C73 86 85 67 100 50 C131 18 186 -8 259 -8 C450 -8 498 141 498 250 C498 323 486 377 453 426 C421 475 355 503 262 503 C190 503 123 487 61 455 L88 371 C141 392 191 402 239 402 C319 402 358 360 357 276 L43 276 L43 231 Z M258 88 C203 88 174 122 171 190 L353 190 C345 122 313 88 258 88 L258 88 Z " />
<glyph glyph-name="Wgrave" unicode="&#x1e80;" horiz-adv-x="943" d="M469 498 C472 488 479 459 488 412 C497 365 503 336 506 326 C515 295 529 239 548 159 C567 80 581 27 588 0 L770 0 C796 101 851 331 935 688 L781 688 L742 506 L708 342 L692 253 L677 167 L669 167 L651 253 L633 335 L589 510 L545 688 L386 688 L308 329 L293 247 L278 166 L271 166 C268 182 262 210 255 250 L240 336 C233 365 221 424 202 513 L165 688 L8 688 L174 0 L359 0 L430 326 C433 339 438 366 445 407 C452 448 458 479 462 499 L469 498 Z M539 781 L390 949 L317 870 L490 731 L539 781 Z " />
<glyph glyph-name="wgrave" unicode="&#x1e81;" horiz-adv-x="820" d="M539 262 L475 492 L339 492 L280 269 L247 114 L242 114 L212 265 L157 492 L16 492 L149 0 L316 0 L369 210 L402 369 L409 369 L445 210 L503 0 L670 0 L803 492 L664 492 L609 262 L580 115 L573 115 L539 262 Z M483 589 C472 602 448 629 409 671 C370 713 345 741 334 756 C327 749 313 734 292 710 L254 668 L430 531 L483 589 Z " />
<glyph glyph-name="Wacute" unicode="&#x1e82;" horiz-adv-x="943" d="M469 498 C472 488 479 459 488 412 C497 365 503 336 506 326 C515 295 529 239 548 159 C567 80 581 27 588 0 L770 0 C796 101 851 331 935 688 L781 688 L742 506 L708 342 L692 253 L677 167 L669 167 L651 253 L633 335 L589 510 L545 688 L386 688 L308 329 L293 247 L278 166 L271 166 C268 182 262 210 255 250 L240 336 C233 365 221 424 202 513 L165 688 L8 688 L174 0 L359 0 L430 326 C433 339 438 366 445 407 C452 448 458 479 462 499 L469 498 Z M567 946 L420 777 L467 728 L643 867 L567 946 Z " />
<glyph glyph-name="wacute" unicode="&#x1e83;" horiz-adv-x="820" d="M539 262 L475 492 L339 492 L280 269 L247 114 L242 114 L212 265 L157 492 L16 492 L149 0 L316 0 L369 210 L402 369 L409 369 L445 210 L503 0 L670 0 L803 492 L664 492 L609 262 L580 115 L573 115 L539 262 Z M505 754 L357 584 L407 532 L581 672 L505 754 Z " />
<glyph glyph-name="Wdieresis" unicode="&#x1e84;" horiz-adv-x="943" d="M469 498 C472 488 479 459 488 412 C497 365 503 336 506 326 C515 295 529 239 548 159 C567 80 581 27 588 0 L770 0 C796 101 851 331 935 688 L781 688 L742 506 L708 342 L692 253 L677 167 L669 167 L651 253 L633 335 L589 510 L545 688 L386 688 L308 329 L293 247 L278 166 L271 166 C268 182 262 210 255 250 L240 336 C233 365 221 424 202 513 L165 688 L8 688 L174 0 L359 0 L430 326 C433 339 438 366 445 407 C452 448 458 479 462 499 L469 498 L469 498 Z M428 792 C428 829 402 854 357 854 C314 854 289 829 289 792 C289 756 313 730 357 730 C401 730 428 756 428 792 L428 792 Z M639 792 C639 831 613 854 568 854 C527 854 501 829 501 792 C501 756 525 730 568 730 C613 730 639 756 639 792 L639 792 Z " />
<glyph glyph-name="wdieresis" unicode="&#x1e85;" horiz-adv-x="820" d="M539 262 L475 492 L339 492 L280 269 L247 114 L242 114 L212 265 L157 492 L16 492 L149 0 L316 0 L369 210 L402 369 L409 369 L445 210 L503 0 L670 0 L803 492 L664 492 L609 262 L580 115 L573 115 L539 262 Z M367 614 C367 651 341 676 296 676 C253 676 228 651 228 614 C228 578 252 552 296 552 C340 552 367 578 367 614 L367 614 Z M578 614 C578 653 552 676 507 676 C466 676 440 651 440 614 C440 578 464 552 507 552 C552 552 578 578 578 614 L578 614 Z " />
<glyph glyph-name="Ygrave" unicode="&#x1ef2;" horiz-adv-x="626" d="M390 0 L390 264 L616 687 L465 687 L379 516 L346 444 C332 411 321 388 314 373 L308 373 L247 510 L162 687 L8 687 L232 247 L232 0 L390 0 Z M383 774 L234 942 L161 863 L334 724 L383 774 Z " />
<glyph glyph-name="ygrave" unicode="&#x1ef3;" horiz-adv-x="536" d="M238 194 C231 217 218 266 197 341 L156 491 L14 491 L166 11 L230 11 L210 -51 C195 -98 174 -112 129 -112 C122 -112 99 -109 58 -103 L38 -198 C86 -211 127 -217 160 -217 C245 -217 302 -176 329 -93 L526 491 L382 491 L296 197 C287 165 277 129 268 89 L261 89 L238 194 Z M343 586 C332 599 308 626 269 668 C230 710 205 738 194 753 C187 746 173 731 152 707 L114 665 L290 528 L343 586 Z " />
<glyph glyph-name="uni1F00" unicode="&#x1f00;" horiz-adv-x="606" d="M374 140 C339 111 303 97 268 97 C207 97 176 148 176 249 C176 338 212 397 280 397 C313 397 345 385 374 361 L374 140 Z M385 455 C348 483 301 497 246 497 C95 497 33 371 33 243 C33 166 47 104 75 59 C104 14 153 -9 224 -9 C284 -9 338 9 386 45 C399 4 427 -8 479 -8 C513 -7 545 -1 576 10 C575 19 575 33 574 52 C573 71 573 86 572 95 L516 95 L516 491 L406 491 L390 456 L385 455 Z M225 694 C264 689 284 673 284 648 C284 629 271 607 246 582 L279 546 C336 585 367 637 367 677 C367 732 334 768 269 786 L251 776 L225 694 Z " />
<glyph glyph-name="uni1F01" unicode="&#x1f01;" horiz-adv-x="606" d="M374 140 C339 111 303 97 268 97 C207 97 176 148 176 249 C176 338 212 397 280 397 C313 397 345 385 374 361 L374 140 Z M385 455 C348 483 301 497 246 497 C95 497 33 371 33 243 C33 166 47 104 75 59 C104 14 153 -9 224 -9 C284 -9 338 9 386 45 C399 4 427 -8 479 -8 C513 -7 545 -1 576 10 C575 19 575 33 574 52 C573 71 573 86 572 95 L516 95 L516 491 L406 491 L390 456 L385 455 Z M317 786 C252 768 220 732 220 677 C220 637 252 585 308 546 L340 582 C316 607 304 629 304 648 C304 674 323 689 362 694 L336 776 L317 786 Z " />
<glyph glyph-name="uni1F02" unicode="&#x1f02;" horiz-adv-x="606" d="M374 140 C339 111 303 97 268 97 C207 97 176 148 176 249 C176 338 212 397 280 397 C313 397 345 385 374 361 L374 140 Z M385 455 C348 483 301 497 246 497 C95 497 33 371 33 243 C33 166 47 104 75 59 C104 14 153 -9 224 -9 C284 -9 338 9 386 45 C399 4 427 -8 479 -8 C513 -7 545 -1 576 10 C575 19 575 33 574 52 C573 71 573 86 572 95 L516 95 L516 491 L406 491 L390 456 L385 455 Z M121 704 C158 701 176 686 176 660 C176 638 165 616 143 594 L176 557 C232 597 264 650 264 687 C264 743 231 780 166 798 L148 787 L121 704 Z M446 587 L367 804 L265 762 L388 562 L446 587 Z " />
<glyph glyph-name="uni1F03" unicode="&#x1f03;" horiz-adv-x="606" d="M385 455 C348 483 301 497 246 497 C95 497 33 371 33 243 C33 166 47 104 75 59 C104 14 153 -9 224 -9 C284 -9 338 9 386 45 C399 4 427 -8 479 -8 C513 -7 545 -1 576 10 C575 19 575 33 574 52 C573 71 573 86 572 95 L516 95 L516 491 L406 491 L390 456 L385 455 Z M374 140 C339 111 303 97 268 97 C207 97 176 148 176 249 C176 338 212 397 280 397 C313 397 345 385 374 361 L374 140 Z M387 807 L283 769 L392 562 C405 567 425 574 452 585 L387 807 Z M235 797 C169 779 136 742 136 687 C136 650 169 596 225 557 L258 592 C235 613 224 636 224 659 C224 684 242 699 279 704 L253 787 C248 790 238 796 235 797 L235 797 Z " />
<glyph glyph-name="uni1F04" unicode="&#x1f04;" horiz-adv-x="606" d="M374 140 C339 111 303 97 268 97 C207 97 176 148 176 249 C176 338 212 397 280 397 C313 397 345 385 374 361 L374 140 Z M385 455 C348 483 301 497 246 497 C95 497 33 371 33 243 C33 166 47 104 75 59 C104 14 153 -9 224 -9 C284 -9 338 9 386 45 C399 4 427 -8 479 -8 C513 -7 545 -1 576 10 C575 19 575 33 574 52 C573 71 573 86 572 95 L516 95 L516 491 L406 491 L390 456 L385 455 Z M149 704 C187 701 206 686 206 660 C206 640 195 618 172 594 L205 557 C261 597 292 650 292 687 C292 744 260 781 195 798 L176 787 L149 704 Z M375 798 L296 580 L354 556 L476 756 L375 798 Z " />
<glyph glyph-name="uni1F05" unicode="&#x1f05;" horiz-adv-x="606" d="M385 455 C348 483 301 497 246 497 C95 497 33 371 33 243 C33 166 47 104 75 59 C104 14 153 -9 224 -9 C284 -9 338 9 386 45 C399 4 427 -8 479 -8 C513 -7 545 -1 576 10 C575 19 575 33 574 52 C573 71 573 86 572 95 L516 95 L516 491 L406 491 L390 456 L385 455 Z M374 140 C339 111 303 97 268 97 C207 97 176 148 176 249 C176 338 212 397 280 397 C313 397 345 385 374 361 L374 140 Z M357 554 L479 754 L377 797 L298 579 L357 554 Z M250 797 C185 779 152 742 152 687 C152 650 184 596 240 557 L273 592 C250 617 239 640 239 659 C239 684 257 699 294 704 L268 787 C260 791 254 794 250 797 L250 797 Z " />
<glyph glyph-name="uni1F06" unicode="&#x1f06;" horiz-adv-x="606" d="M374 140 C339 111 303 97 268 97 C207 97 176 148 176 249 C176 338 212 397 280 397 C313 397 345 385 374 361 L374 140 Z M385 455 C348 483 301 497 246 497 C95 497 33 371 33 243 C33 166 47 104 75 59 C104 14 153 -9 224 -9 C284 -9 338 9 386 45 C399 4 427 -8 479 -8 C513 -7 545 -1 576 10 C575 19 575 33 574 52 C573 71 573 86 572 95 L516 95 L516 491 L406 491 L390 456 L385 455 Z M382 736 C430 736 465 767 487 829 L446 859 L387 818 C371 818 342 824 299 836 C257 849 225 855 204 855 C156 855 120 826 96 768 L138 735 L196 774 C209 774 236 768 279 755 C322 742 356 736 382 736 L382 736 Z M230 655 C263 652 280 641 280 621 C280 610 269 596 248 579 L281 547 C340 576 369 608 369 643 C369 686 337 715 272 729 L255 721 L230 655 Z " />
<glyph glyph-name="uni1F07" unicode="&#x1f07;" horiz-adv-x="606" d="M374 140 C339 111 303 97 268 97 C207 97 176 148 176 249 C176 338 212 397 280 397 C313 397 345 385 374 361 L374 140 Z M385 455 C348 483 301 497 246 497 C95 497 33 371 33 243 C33 166 47 104 75 59 C104 14 153 -9 224 -9 C284 -9 338 9 386 45 C399 4 427 -8 479 -8 C513 -7 545 -1 576 10 C575 19 575 33 574 52 C573 71 573 86 572 95 L516 95 L516 491 L406 491 L390 456 L385 455 Z M392 735 C440 735 475 766 497 828 L456 858 L397 817 C381 817 352 823 309 835 C267 848 235 854 214 854 C166 854 130 825 106 767 L148 734 L206 773 C219 773 246 767 289 754 C332 741 366 735 392 735 L392 735 Z M323 727 C256 714 223 686 223 642 C223 613 254 577 313 546 L347 578 C325 595 314 609 314 620 C314 639 331 650 366 654 L340 718 L323 727 Z " />
<glyph glyph-name="uni1F08" unicode="&#x1f08;" horiz-adv-x="664" d="M428 687 L242 687 L8 0 L155 0 L204 157 L455 157 L503 0 L655 0 L428 687 Z M236 257 L287 433 L329 587 L334 587 L374 438 L425 257 L236 257 Z M-26 625 C13 620 33 604 33 579 C33 560 20 538 -5 513 L28 477 C85 516 116 568 116 608 C116 663 83 699 18 717 L0 707 L-26 625 Z " />
<glyph glyph-name="uni1F09" unicode="&#x1f09;" horiz-adv-x="664" d="M428 687 L242 687 L8 0 L155 0 L204 157 L455 157 L503 0 L655 0 L428 687 Z M236 257 L287 433 L329 587 L334 587 L374 438 L425 257 L236 257 Z M69 712 C4 694 -28 658 -28 603 C-28 563 4 511 60 472 L92 508 C68 533 56 555 56 574 C56 600 75 615 114 620 L88 702 L69 712 Z " />
<glyph glyph-name="uni1F0A" unicode="&#x1f0a;" horiz-adv-x="664" d="M428 687 L242 687 L8 0 L155 0 L204 157 L455 157 L503 0 L655 0 L428 687 Z M236 257 L287 433 L329 587 L334 587 L374 438 L425 257 L236 257 Z M-184 616 C-147 613 -129 598 -129 572 C-129 550 -140 528 -162 506 L-129 469 C-73 509 -41 562 -41 599 C-41 655 -74 692 -139 710 L-157 699 L-184 616 Z M141 499 L62 716 L-40 674 L83 474 L141 499 Z " />
<glyph glyph-name="uni1F0B" unicode="&#x1f0b;" horiz-adv-x="664" d="M428 687 L242 687 L8 0 L155 0 L204 157 L455 157 L503 0 L655 0 L428 687 Z M236 257 L287 433 L329 587 L334 587 L374 438 L425 257 L236 257 Z M70 718 L-34 680 L75 473 C88 478 108 485 135 496 L70 718 Z M-82 708 C-148 690 -181 653 -181 598 C-181 561 -148 507 -92 468 L-59 503 C-82 524 -93 547 -93 570 C-93 595 -75 610 -38 615 L-64 698 C-69 701 -79 707 -82 708 L-82 708 Z " />
<glyph glyph-name="uni1F0C" unicode="&#x1f0c;" horiz-adv-x="664" d="M428 687 L242 687 L8 0 L155 0 L204 157 L455 157 L503 0 L655 0 L428 687 Z M236 257 L287 433 L329 587 L334 587 L374 438 L425 257 L236 257 Z M-166 615 C-128 612 -109 597 -109 571 C-109 551 -120 529 -143 505 L-110 468 C-54 508 -23 561 -23 598 C-23 655 -55 692 -120 709 L-139 698 L-166 615 Z M60 709 L-19 491 L39 467 L161 667 L60 709 Z " />
<glyph glyph-name="uni1F0D" unicode="&#x1f0d;" horiz-adv-x="664" d="M428 687 L242 687 L8 0 L155 0 L204 157 L455 157 L503 0 L655 0 L428 687 Z M236 257 L287 433 L329 587 L334 587 L374 438 L425 257 L236 257 Z M42 466 L164 666 L62 709 L-17 491 L42 466 Z M-65 709 C-130 691 -163 654 -163 599 C-163 562 -131 508 -75 469 L-42 504 C-65 529 -76 552 -76 571 C-76 596 -58 611 -21 616 L-47 699 C-55 703 -61 706 -65 709 L-65 709 Z " />
<glyph glyph-name="uni1F0E" unicode="&#x1f0e;" horiz-adv-x="664" d="M428 687 L242 687 L8 0 L155 0 L204 157 L455 157 L503 0 L655 0 L428 687 Z M236 257 L287 433 L329 587 L334 587 L374 438 L425 257 L236 257 Z M72 586 C120 586 155 617 177 679 L136 709 L77 668 C61 668 32 674 -10 686 C-53 699 -85 705 -106 705 C-154 705 -190 676 -214 618 L-172 585 L-114 624 C-101 624 -74 618 -31 605 C12 592 46 586 72 586 L72 586 Z M-80 505 C-47 502 -30 491 -30 471 C-30 460 -41 446 -62 429 L-29 397 C30 426 59 458 59 493 C59 536 27 565 -38 579 L-55 571 L-80 505 Z " />
<glyph glyph-name="uni1F0F" unicode="&#x1f0f;" horiz-adv-x="664" d="M428 687 L242 687 L8 0 L155 0 L204 157 L455 157 L503 0 L655 0 L428 687 Z M236 257 L287 433 L329 587 L334 587 L374 438 L425 257 L236 257 Z M76 587 C124 587 159 618 181 680 L140 710 L81 669 C65 669 36 675 -6 687 C-49 700 -81 706 -102 706 C-150 706 -186 677 -210 619 L-168 586 L-110 625 C-97 625 -70 619 -27 606 C16 593 50 587 76 587 L76 587 Z M7 579 C-60 566 -93 538 -93 494 C-93 465 -62 429 -3 398 L31 430 C9 447 -2 461 -2 472 C-2 491 15 502 50 506 L24 570 L7 579 Z " />
<glyph glyph-name="uni1F10" unicode="&#x1f10;" horiz-adv-x="466" d="M115 255 C66 238 34 191 34 139 C34 43 116 -11 252 -11 C327 -11 394 4 453 34 L424 127 C374 107 327 97 284 97 C219 97 186 113 186 160 C186 196 213 214 252 214 L325 214 L325 308 L260 308 C215 308 192 323 192 354 C192 389 217 406 267 406 C307 406 352 398 401 383 L427 476 C379 495 319 505 248 505 C119 505 41 444 41 356 C41 312 72 275 115 260 L115 255 Z M181 697 C220 692 240 676 240 651 C240 632 227 610 202 585 L235 549 C292 588 323 640 323 680 C323 735 290 771 225 789 L207 779 L181 697 Z " />
<glyph glyph-name="uni1F11" unicode="&#x1f11;" horiz-adv-x="466" d="M115 255 C66 238 34 191 34 139 C34 43 116 -11 252 -11 C327 -11 394 4 453 34 L424 127 C374 107 327 97 284 97 C219 97 186 113 186 160 C186 196 213 214 252 214 L325 214 L325 308 L260 308 C215 308 192 323 192 354 C192 389 217 406 267 406 C307 406 352 398 401 383 L427 476 C379 495 319 505 248 505 C119 505 41 444 41 356 C41 312 72 275 115 260 L115 255 Z M266 787 C201 769 169 733 169 678 C169 638 201 586 257 547 L289 583 C265 608 253 630 253 649 C253 675 272 690 311 695 L285 777 L266 787 Z " />
<glyph glyph-name="uni1F12" unicode="&#x1f12;" horiz-adv-x="466" d="M115 255 C66 238 34 191 34 139 C34 43 116 -11 252 -11 C327 -11 394 4 453 34 L424 127 C374 107 327 97 284 97 C219 97 186 113 186 160 C186 196 213 214 252 214 L325 214 L325 308 L260 308 C215 308 192 323 192 354 C192 389 217 406 267 406 C307 406 352 398 401 383 L427 476 C379 495 319 505 248 505 C119 505 41 444 41 356 C41 312 72 275 115 260 L115 255 Z M91 701 C128 698 146 683 146 657 C146 635 135 613 113 591 L146 554 C202 594 234 647 234 684 C234 740 201 777 136 795 L118 784 L91 701 Z M416 584 L337 801 L235 759 L358 559 L416 584 Z " />
<glyph glyph-name="uni1F13" unicode="&#x1f13;" horiz-adv-x="466" d="M115 255 C66 238 34 191 34 139 C34 43 116 -11 252 -11 C327 -11 394 4 453 34 L424 127 C374 107 327 97 284 97 C219 97 186 113 186 160 C186 196 213 214 252 214 L325 214 L325 308 L260 308 C215 308 192 323 192 354 C192 389 217 406 267 406 C307 406 352 398 401 383 L427 476 C379 495 319 505 248 505 C119 505 41 444 41 356 C41 312 72 275 115 260 L115 255 Z M341 804 L237 766 L346 559 C359 564 379 571 406 582 L341 804 Z M189 794 C123 776 90 739 90 684 C90 647 123 593 179 554 L212 589 C189 610 178 633 178 656 C178 681 196 696 233 701 L207 784 C202 787 192 793 189 794 L189 794 Z " />
<glyph glyph-name="uni1F14" unicode="&#x1f14;" horiz-adv-x="466" d="M115 255 C66 238 34 191 34 139 C34 43 116 -11 252 -11 C327 -11 394 4 453 34 L424 127 C374 107 327 97 284 97 C219 97 186 113 186 160 C186 196 213 214 252 214 L325 214 L325 308 L260 308 C215 308 192 323 192 354 C192 389 217 406 267 406 C307 406 352 398 401 383 L427 476 C379 495 319 505 248 505 C119 505 41 444 41 356 C41 312 72 275 115 260 L115 255 Z M108 702 C146 699 165 684 165 658 C165 638 154 616 131 592 L164 555 C220 595 251 648 251 685 C251 742 219 779 154 796 L135 785 L108 702 Z M334 796 L255 578 L313 554 L435 754 L334 796 Z " />
</font>
</svg>
