<?xml version="1.0" encoding="utf-8"?>
<!-- Generator: Adobe Illustrator 19.0.0, SVG Export Plug-In . SVG Version: 6.00 Build 0)  -->
<svg version="1.1" id="Layer_1" xmlns="http://www.w3.org/2000/svg" xmlns:xlink="http://www.w3.org/1999/xlink" x="0px" y="0px"
	 viewBox="0 0 51.1 43.9" style="enable-background:new 0 0 51.1 43.9;" xml:space="preserve">
<style type="text/css">
	.st0{fill:#D4DFE8;}
	.st1{fill:#F50808;}
</style>
<path class="st0" d="M48.9,2.2c2.9,2.9,2.9,7.7,0,10.6c-2.9,2.9-7.7,2.9-10.6,0c-2.9-2.9-2.9-7.7,0-10.6C41.2-0.7,46-0.7,48.9,2.2z"
	/>
<path class="st0" d="M33.5,16.9c7.4,0,13.5,6,13.5,13.5c0,7.4-6,13.5-13.5,13.5c-7.4,0-13.5-6-13.5-13.5
	C20,22.9,26.1,16.9,33.5,16.9z"/>
<path class="st1" d="M33.4,1.9v33.7L0,1.9H33.4z"/>
</svg>
