<?xml version="1.0" encoding="utf-8"?>
<!-- Generator: Adobe Illustrator 19.0.0, SVG Export Plug-In . SVG Version: 6.00 Build 0)  -->
<svg version="1.1" id="Layer_1" xmlns="http://www.w3.org/2000/svg" xmlns:xlink="http://www.w3.org/1999/xlink" x="0px" y="0px"
	 viewBox="190 -113 409 256" style="enable-background:new 190 -113 409 256;" xml:space="preserve">
<style type="text/css">
	.st0{fill:#D8E4EE;}
	.st1{clip-path:url(#SVGID_2_);fill:#D8E4EE;}
	.st2{clip-path:url(#SVGID_2_);fill:#1F4455;}
</style>
<path class="st0" d="M294.6,106l0.9-25.4l-50.2,50.2l12.3,12.3L294.6,106z"/>
<g>
	<defs>
		<rect id="SVGID_1_" x="190" y="-113" width="409" height="256"/>
	</defs>
	<clipPath id="SVGID_2_">
		<use xlink:href="#SVGID_1_"  style="overflow:visible;"/>
	</clipPath>
	<path class="st1" d="M347.1,26.8l-0.5,27.1L599-198.5l-13.3-13.3L347.1,26.8z"/>
	<path class="st1" d="M347.5-80l0.2,26.4L508-213.9l-13.3-13.3L347.5-80z"/>
	<path class="st1" d="M346.9-26.2l-0.3,24.9L489.2-144L477-156.3L346.9-26.2z"/>
	<path class="st2" d="M354-34v140.8L212.2-34H354z"/>
	<path class="st1" d="M294.9-0.8l0.5-27.1L191,76.5l13.3,13.3L294.9-0.8z"/>
	<path class="st1" d="M295.1,52.2l0.3-24.9l-76.8,76.8l12.3,12.3L295.1,52.2z"/>
</g>
</svg>
